<svg width="224" height="40" viewBox="0 0 224 40" fill="none" xmlns="http://www.w3.org/2000/svg">
<path d="M62.5266 33.8401C58.529 33.8401 55.4082 32.744 53.1644 30.5517C50.9205 28.3594 49.7986 25.2516 49.7986 21.2281V6.21753H57.4586V20.996C57.4586 23.3172 57.91 24.9808 58.8127 25.9866C59.7412 26.9925 61.0049 27.4954 62.604 27.4954C64.2031 27.4954 65.4539 26.9925 66.3566 25.9866C67.2593 24.9808 67.7107 23.3172 67.7107 20.996V6.21753H75.2547V21.2281C75.2547 25.2516 74.1327 28.3594 71.8889 30.5517C69.645 32.744 66.5243 33.8401 62.5266 33.8401Z" fill="#333333"/>
<path d="M93.7522 11.9819C95.3771 11.9819 96.8472 12.3172 98.1625 12.9878C99.4779 13.6326 100.51 14.6384 101.258 16.0054C102.031 17.3723 102.418 19.139 102.418 21.3055V33.2985H95.0676V22.5048C95.0676 21.0089 94.7581 19.9256 94.1391 19.2551C93.5459 18.5587 92.7077 18.2105 91.6244 18.2105C90.8507 18.2105 90.1414 18.3911 89.4966 18.7521C88.8519 19.0874 88.3489 19.6161 87.9879 20.3383C87.6268 21.0605 87.4462 22.0019 87.4462 23.1625V33.2985H80.0957V12.3301H87.098V18.2879L85.744 16.547C86.5435 15.0253 87.6397 13.8905 89.0324 13.1425C90.4251 12.3688 91.9984 11.9819 93.7522 11.9819Z" fill="#333333"/>
<path d="M114.654 33.6467C112.875 33.6467 111.134 33.4403 109.432 33.0277C107.755 32.615 106.401 32.0992 105.37 31.4802L107.575 26.4509C108.555 27.0441 109.702 27.5212 111.018 27.8823C112.333 28.2176 113.623 28.3852 114.887 28.3852C116.125 28.3852 116.976 28.2563 117.44 27.9983C117.93 27.7404 118.175 27.3922 118.175 26.9538C118.175 26.5411 117.943 26.2445 117.479 26.064C117.04 25.8577 116.447 25.7029 115.699 25.5997C114.977 25.4966 114.177 25.3805 113.3 25.2516C112.423 25.1226 111.534 24.955 110.631 24.7486C109.754 24.5165 108.942 24.1812 108.194 23.7428C107.472 23.2785 106.891 22.6595 106.453 21.8858C106.014 21.112 105.795 20.132 105.795 18.9456C105.795 17.6044 106.182 16.418 106.956 15.3864C107.755 14.3289 108.916 13.5036 110.438 12.9104C111.959 12.2914 113.816 11.9819 116.008 11.9819C117.479 11.9819 118.962 12.1367 120.457 12.4461C121.979 12.7299 123.256 13.1683 124.287 13.7615L122.082 18.7521C121.051 18.1589 120.019 17.7592 118.987 17.5528C117.956 17.3207 116.976 17.2047 116.047 17.2047C114.809 17.2047 113.932 17.3465 113.416 17.6302C112.926 17.9139 112.681 18.2621 112.681 18.6748C112.681 19.0874 112.901 19.4098 113.339 19.6419C113.778 19.8483 114.358 20.0159 115.08 20.1449C115.828 20.248 116.64 20.3641 117.517 20.4931C118.394 20.5962 119.271 20.7639 120.148 20.996C121.051 21.2281 121.863 21.5763 122.585 22.0405C123.333 22.479 123.926 23.0851 124.365 23.8588C124.803 24.6068 125.023 25.574 125.023 26.7604C125.023 28.0499 124.623 29.2105 123.823 30.2422C123.05 31.2738 121.889 32.0992 120.341 32.7182C118.82 33.3372 116.924 33.6467 114.654 33.6467Z" fill="#333333"/>
<path d="M137.552 33.6467C134.87 33.6467 132.781 32.989 131.285 31.6736C129.789 30.3325 129.041 28.3207 129.041 25.6384V7.64895H136.392V25.5611C136.392 26.309 136.598 26.9022 137.011 27.3407C137.423 27.7533 137.952 27.9597 138.597 27.9597C139.474 27.9597 140.222 27.7404 140.841 27.302L142.659 32.4474C142.04 32.86 141.279 33.1566 140.376 33.3372C139.474 33.5435 138.532 33.6467 137.552 33.6467ZM125.985 18.5974V13.1038H141.189V18.5974H125.985Z" fill="#333333"/>
<path d="M145.493 33.2985V12.3301H152.496V18.4426L151.451 16.7017C152.07 15.1284 153.076 13.9549 154.469 13.1812C155.862 12.3817 157.551 11.9819 159.537 11.9819V18.5974C159.202 18.5458 158.905 18.52 158.647 18.52C158.415 18.4942 158.157 18.4813 157.873 18.4813C156.377 18.4813 155.165 18.894 154.237 19.7193C153.308 20.5188 152.844 21.8342 152.844 23.6654V33.2985H145.493Z" fill="#333333"/>
<path d="M174.129 33.2985V29.3911L173.626 28.4239V21.2281C173.626 20.0675 173.265 19.1777 172.543 18.5587C171.846 17.9139 170.724 17.5915 169.177 17.5915C168.171 17.5915 167.152 17.7592 166.121 18.0945C165.089 18.404 164.212 18.8424 163.49 19.4098L161.014 14.4192C162.2 13.6454 163.619 13.0522 165.269 12.6396C166.946 12.2011 168.609 11.9819 170.26 11.9819C173.665 11.9819 176.295 12.7685 178.152 14.3418C180.035 15.8893 180.976 18.3266 180.976 21.6537V33.2985H174.129ZM167.939 33.6467C166.262 33.6467 164.844 33.3629 163.683 32.7955C162.523 32.2281 161.633 31.4544 161.014 30.4743C160.421 29.4942 160.124 28.3981 160.124 27.1859C160.124 25.8963 160.447 24.7873 161.091 23.8588C161.762 22.9045 162.781 22.1824 164.148 21.6924C165.515 21.1765 167.281 20.9186 169.448 20.9186H174.4V24.7486H170.454C169.267 24.7486 168.429 24.9421 167.939 25.3289C167.475 25.7158 167.243 26.2316 167.243 26.8764C167.243 27.5212 167.488 28.037 167.978 28.4239C168.468 28.8108 169.138 29.0042 169.989 29.0042C170.789 29.0042 171.511 28.8108 172.156 28.4239C172.826 28.0112 173.316 27.3922 173.626 26.5669L174.632 29.275C174.245 30.7193 173.484 31.8155 172.349 32.5634C171.24 33.2856 169.77 33.6467 167.939 33.6467Z" fill="#333333"/>
<path d="M196.597 33.6467C194.276 33.6467 192.2 33.1824 190.368 32.2539C188.563 31.3254 187.144 30.0488 186.113 28.4239C185.081 26.7733 184.565 24.8905 184.565 22.7756C184.565 20.6607 185.081 18.7908 186.113 17.166C187.144 15.5411 188.563 14.2773 190.368 13.3746C192.2 12.4461 194.276 11.9819 196.597 11.9819C198.97 11.9819 201.02 12.4848 202.748 13.4907C204.476 14.4966 205.701 15.9151 206.423 17.7463L200.736 20.6478C200.246 19.6677 199.64 18.9585 198.918 18.52C198.196 18.0558 197.409 17.8236 196.558 17.8236C195.707 17.8236 194.933 18.0171 194.237 18.404C193.541 18.7908 192.986 19.3582 192.573 20.1062C192.187 20.8283 191.993 21.7181 191.993 22.7756C191.993 23.8588 192.187 24.7744 192.573 25.5224C192.986 26.2703 193.541 26.8377 194.237 27.2246C194.933 27.6115 195.707 27.8049 196.558 27.8049C197.409 27.8049 198.196 27.5857 198.918 27.1472C199.64 26.683 200.246 25.9608 200.736 24.9808L206.423 27.8823C205.701 29.7135 204.476 31.132 202.748 32.1379C201.02 33.1437 198.97 33.6467 196.597 33.6467Z" fill="#333333"/>
<path d="M218.893 33.6467C216.211 33.6467 214.122 32.989 212.626 31.6736C211.13 30.3325 210.382 28.3207 210.382 25.6384V7.64895H217.733V25.5611C217.733 26.309 217.939 26.9022 218.352 27.3407C218.764 27.7533 219.293 27.9597 219.938 27.9597C220.815 27.9597 221.563 27.7404 222.182 27.302L224 32.4474C223.381 32.86 222.62 33.1566 221.718 33.3372C220.815 33.5435 219.873 33.6467 218.893 33.6467ZM207.326 18.5974V13.1038H222.53V18.5974H207.326Z" fill="#333333"/>
<g clip-path="url(#clip0_112_7711)">
<path d="M32.028 2.31582L30.3508 3.99131L30.3494 12.6914C30.3485 19.3066 30.3467 21.418 30.3426 21.502C30.325 21.8675 30.3142 22.0412 30.2966 22.2533C30.194 23.4708 29.9523 24.6639 29.5702 25.8416C29.5553 25.8872 29.544 25.9242 29.5444 25.9242C29.5499 25.9242 29.862 25.588 29.9822 25.4526C31.4457 23.8078 32.5285 21.8481 33.1333 19.7489C33.4563 18.6289 33.6406 17.4971 33.6935 16.3126C33.707 16.0031 33.7075 15.7165 33.7061 8.21589L33.7048 0.640793L32.028 2.31582Z" fill="#7FB800"/>
<path d="M34.984 8.38867C34.9831 14.2716 34.9813 16.1655 34.9772 16.2494C34.9578 16.6501 34.9492 16.7914 34.9289 17.0346C34.703 19.7222 33.7951 22.3079 32.2886 24.5569C31.6987 25.4373 31.0405 26.2369 30.283 26.9936C29.6791 27.5974 29.0611 28.1258 28.37 28.6294C28.3329 28.6565 28.2851 28.6939 28.2638 28.7124C28.2214 28.7494 28.1744 28.7819 28.1387 28.8004C28.1256 28.8067 28.0836 28.8338 28.0461 28.86C27.3423 29.3482 26.555 29.8013 25.7568 30.1781C23.8587 31.0733 21.8084 31.5823 19.697 31.6821C19.2245 31.7042 18.6468 31.7051 18.1793 31.6843C16.8978 31.6266 15.6483 31.4217 14.4142 31.0661C14.2245 31.0115 13.8044 30.8811 13.7425 30.8576C13.7236 30.8504 14.0361 31.1388 14.2448 31.3211C15.5227 32.4375 17.0048 33.3318 18.5763 33.9356C19.9812 34.4757 21.4502 34.7907 22.9517 34.8747C23.2466 34.8909 23.3315 34.8927 23.8054 34.8927C24.2792 34.8927 24.3642 34.8909 24.6591 34.8747C27.3961 34.7217 30.0183 33.8007 32.2525 32.2064C33.1347 31.5769 33.9527 30.8428 34.6741 30.0323C36.1738 28.3483 37.2552 26.3537 37.842 24.1891C38.1103 23.1982 38.2725 22.168 38.3235 21.1274C38.3263 21.0741 38.3308 20.9794 38.3335 20.9176C38.3375 20.8327 38.3394 18.7033 38.3403 12.398L38.3416 3.99127L36.6635 2.31488L34.9854 0.638496L34.984 8.38867Z" fill="#00A6ED"/>
<path d="M0.00135515 13.3005C0.00225858 19.2899 0.00406544 21.3607 0.00813088 21.4432C0.0239409 21.7808 0.0343304 21.95 0.0519473 22.1598C0.232182 24.2951 0.893042 26.3776 1.98123 28.2395C2.26129 28.7191 2.57252 29.1875 2.90182 29.6266C3.18279 30.0011 3.48047 30.3617 3.78493 30.6961C4.10519 31.0471 4.52619 31.4654 4.84149 31.7448L4.87401 31.7732L4.86091 31.7448C4.85369 31.729 4.8302 31.6771 4.80852 31.6301C4.40694 30.7565 4.07809 29.8247 3.84184 28.8915C3.55049 27.7386 3.39329 26.5906 3.36077 25.3713C3.35806 25.2694 3.35625 22.1278 3.35625 16.915V8.62103L1.67812 6.94465L0 5.26826L0.00135515 13.3005Z" fill="#FF4D6D"/>
<path d="M6.31174 6.94566L4.63452 8.62115V16.8564C4.63452 22.0679 4.63633 25.163 4.63904 25.2857C4.64536 25.5741 4.6562 25.8047 4.67518 26.0641C4.83554 28.2522 5.48149 30.3681 6.56922 32.2688C7.12302 33.2367 7.78479 34.1396 8.54141 34.9605C8.80702 35.2479 9.12006 35.5606 9.40735 35.8246C11.7414 37.9712 14.6929 39.3087 17.8246 39.6399C18.7637 39.7387 19.753 39.7496 20.6953 39.671C22.8978 39.4878 25.0458 38.8046 26.9592 37.6783C28.2105 36.9423 29.3452 36.0277 30.3326 34.9605C30.4392 34.8449 30.6086 34.655 30.6068 34.6527C30.6059 34.6518 30.5752 34.6653 30.5391 34.6829C30.2947 34.7994 29.9496 34.9487 29.646 35.0692C27.5148 35.9144 25.2535 36.2777 22.9064 36.1518C22.1453 36.1107 21.3783 36.0128 20.6271 35.8607C18.8993 35.5105 17.2406 34.8689 15.7174 33.9619C13.9376 32.9019 12.367 31.4868 11.1257 29.8253C11.0719 29.7531 11.01 29.6691 10.9875 29.6384C10.9653 29.6078 10.936 29.5699 10.922 29.5541C10.8863 29.5153 10.8646 29.485 10.8348 29.4331C10.8203 29.4088 10.7869 29.3569 10.7602 29.3181C10.4928 28.9313 10.2114 28.4783 9.9729 28.0496C8.88833 26.1025 8.23424 23.964 8.04769 21.7547C8.02691 21.5128 8.01652 21.3387 7.9989 20.965C7.99484 20.8775 7.99303 18.9845 7.99122 13.0601L7.98851 5.27063L6.31174 6.94566Z" fill="#FFB400"/>
</g>
<defs>
<clipPath id="clip0_112_7711">
<rect width="38.3416" height="39.7233" fill="white"/>
</clipPath>
</defs>
</svg>
