<?xml version="1.0" encoding="UTF-8" standalone="no"?>
<svg
   enable-background="new 0 0 20 20"
   height="48"
   viewBox="0 0 20 20"
   width="48"
   fill="#000000"
   version="1.1"
   id="svg8109"
   sodipodi:docname="folder_copy_black_48dp.svg"
   xmlns:inkscape="http://www.inkscape.org/namespaces/inkscape"
   xmlns:sodipodi="http://sodipodi.sourceforge.net/DTD/sodipodi-0.dtd"
   xmlns="http://www.w3.org/2000/svg"
   xmlns:svg="http://www.w3.org/2000/svg">
  <defs
     id="defs8113" />
  <sodipodi:namedview
     id="namedview8111"
     pagecolor="#ffffff"
     bordercolor="#000000"
     borderopacity="0.25"
     inkscape:showpageshadow="2"
     inkscape:pageopacity="0.0"
     inkscape:pagecheckerboard="0"
     inkscape:deskcolor="#d1d1d1"
     showgrid="false" />
  <g
     id="g8099">
    <rect
       fill="none"
       height="20"
       width="20"
       x="0"
       id="rect8097"
       y="0" />
  </g>
  <g
     id="g8107"
     style="fill:#ff4d6d;fill-opacity:1">
    <g
       id="g8105"
       style="fill:#ff4d6d;fill-opacity:1">
      <path
         d="M 2.5,5 H 1 V 15.5 C 1,16.33 1.67,17 2.5,17 H 15.68 V 15.5 H 2.5 Z"
         id="path8101"
         style="fill:#ff4d6d;fill-opacity:1" />
      <path
         d="M 16.5,4 H 11 L 9,2 H 5.5 C 4.67,2 4,2.67 4,3.5 v 9 C 4,13.33 4.67,14 5.5,14 h 11 c 0.83,0 1.5,-0.67 1.5,-1.5 v -7 C 18,4.67 17.33,4 16.5,4 Z m 0,8.5 h -11 v -9 h 2.88 l 2,2 h 6.12 z"
         id="path8103"
         style="fill:#ff4d6d;fill-opacity:1" />
    </g>
  </g>
</svg>
