<?xml version="1.0" encoding="UTF-8" standalone="no"?>
<svg
   height="48"
   viewBox="0 0 24 24"
   width="48"
   fill="#000000"
   version="1.1"
   id="svg256"
   xmlns="http://www.w3.org/2000/svg"
   xmlns:svg="http://www.w3.org/2000/svg">
  <defs
     id="defs260" />
  <path
     d="M 0,0 H 24 V 24 H 0 Z"
     fill="none"
     id="path252" />
  <path
     d="m 12.87,15.07 -2.54,-2.51 0.03,-0.03 C 12.1,10.59 13.34,8.36 14.07,6 H 17 V 4 H 10 V 2 H 8 V 4 H 1 V 5.99 H 12.17 C 11.5,7.92 10.44,9.75 9,11.35 8.07,10.32 7.3,9.19 6.69,8 h -2 c 0.73,1.63 1.73,3.17 2.98,4.56 L 2.58,17.58 4,19 9,14 12.11,17.11 Z M 18.5,10 h -2 L 12,22 h 2 l 1.12,-3 h 4.75 L 21,22 h 2 z m -2.62,7 1.62,-4.33 1.62,4.33 z"
     id="path254"
     style="fill:#ff4d6d;fill-opacity:1" />
</svg>
