<?xml version="1.0" encoding="UTF-8" standalone="no"?>
<svg
   enable-background="new 0 0 24 24"
   height="48"
   viewBox="0 0 24 24"
   width="48"
   fill="#000000"
   version="1.1"
   id="svg2702"
   sodipodi:docname="no_accounts_black_48dp.svg"
   xmlns:inkscape="http://www.inkscape.org/namespaces/inkscape"
   xmlns:sodipodi="http://sodipodi.sourceforge.net/DTD/sodipodi-0.dtd"
   xmlns="http://www.w3.org/2000/svg"
   xmlns:svg="http://www.w3.org/2000/svg">
  <defs
     id="defs2706" />
  <sodipodi:namedview
     id="namedview2704"
     pagecolor="#ffffff"
     bordercolor="#000000"
     borderopacity="0.25"
     inkscape:showpageshadow="2"
     inkscape:pageopacity="0.0"
     inkscape:pagecheckerboard="0"
     inkscape:deskcolor="#d1d1d1"
     showgrid="false" />
  <g
     id="g2692">
    <rect
       fill="none"
       height="24"
       width="24"
       id="rect2690"
       x="0"
       y="0" />
  </g>
  <g
     id="g2700"
     style="fill:#ff4d6d;fill-opacity:1">
    <g
       id="g2698"
       style="fill:#ff4d6d;fill-opacity:1">
      <path
         d="M 15.18,10.94 C 15.38,10.5 15.5,10.02 15.5,9.5 15.5,7.57 13.93,6 12,6 11.48,6 11,6.12 10.56,6.32 Z"
         id="path2694"
         style="fill:#ff4d6d;fill-opacity:1" />
      <path
         d="M 12,2 C 6.48,2 2,6.48 2,12 2,17.52 6.48,22 12,22 17.52,22 22,17.52 22,12 22,6.48 17.52,2 12,2 Z M 4,12 C 4,10.15 4.63,8.45 5.69,7.1 l 2.86,2.86 c 0.21,1.56 1.43,2.79 2.99,2.99 l 2.2,2.2 C 13.17,15.05 12.59,15 12,15 9.68,15 7.55,15.8 5.86,17.12 4.7,15.73 4,13.95 4,12 Z m 8,8 C 10.26,20 8.66,19.44 7.35,18.5 8.66,17.56 10.26,17 12,17 c 1.74,0 3.34,0.56 4.65,1.5 C 15.34,19.44 13.74,20 12,20 Z M 18.31,16.9 7.1,5.69 C 8.45,4.63 10.15,4 12,4 c 4.42,0 8,3.58 8,8 0,1.85 -0.63,3.54 -1.69,4.9 z"
         id="path2696"
         style="fill:#ff4d6d;fill-opacity:1" />
    </g>
  </g>
</svg>
