<svg width="87" height="87" viewBox="0 0 87 87" fill="none" xmlns="http://www.w3.org/2000/svg">
<circle cx="43.1538" cy="43.1538" r="43.1538" fill="#FFE8B0"/>
<g clip-path="url(#clip0_1787_3745)">
<path fill-rule="evenodd" clip-rule="evenodd" d="M17.7516 36.2095L31.6355 20.1542C31.6711 20.1144 31.7208 20.0901 31.7741 20.0863C31.8274 20.0826 31.88 20.0997 31.9208 20.1341L52.4843 37.9186C52.5046 37.9359 52.5213 37.957 52.5333 37.9808C52.5453 38.0046 52.5524 38.0305 52.5543 38.0571C52.5562 38.0836 52.5527 38.1103 52.5442 38.1356C52.5356 38.1608 52.5221 38.184 52.5044 38.204L38.6203 54.2593C38.5852 54.299 38.536 54.3234 38.4831 54.3271C38.4303 54.3309 38.3781 54.3138 38.3378 54.2794L17.7715 36.4948C17.7317 36.4591 17.7074 36.4094 17.7036 36.3562C17.6999 36.3029 17.717 36.2503 17.7514 36.2094L17.7516 36.2095Z" fill="#005B82"/>
<path fill-rule="evenodd" clip-rule="evenodd" d="M26.965 28.6512L36.6575 24.2314L52.4844 37.9186C52.5047 37.9358 52.5214 37.957 52.5334 37.9807C52.5454 38.0045 52.5525 38.0305 52.5544 38.057C52.5563 38.0836 52.5528 38.1103 52.5443 38.1355C52.5357 38.1607 52.5222 38.184 52.5045 38.2039L38.6206 54.2593C38.5855 54.299 38.5363 54.3233 38.4835 54.3271C38.4306 54.3309 38.3784 54.3137 38.3381 54.2793L37.3509 53.4263L26.5566 29.7497C26.4652 29.5499 26.4568 29.322 26.5334 29.116C26.6099 28.9101 26.765 28.7429 26.9646 28.6512H26.965Z" fill="#005C85"/>
<path fill-rule="evenodd" clip-rule="evenodd" d="M27.2268 29.2218L46.5378 20.4166C46.5866 20.3947 46.6421 20.3929 46.6923 20.4116C46.7425 20.4303 46.7833 20.4679 46.806 20.5164L58.0849 45.2543C58.1063 45.3033 58.1078 45.3586 58.0892 45.4086C58.0705 45.4587 58.0332 45.4995 57.985 45.5225L38.6711 54.3277C38.6227 54.3493 38.5676 54.351 38.518 54.3323C38.4683 54.3136 38.428 54.276 38.4059 54.2278L27.127 29.49C27.1158 29.4659 27.1096 29.4397 27.1085 29.4132C27.1075 29.3866 27.1118 29.3601 27.1211 29.3351C27.1304 29.3102 27.1445 29.2874 27.1626 29.2679C27.1808 29.2485 27.2026 29.2328 27.2268 29.2218Z" fill="#00A6ED"/>
<path fill-rule="evenodd" clip-rule="evenodd" d="M38.6918 26.1918H49.3944L58.0854 45.2544C58.1068 45.3033 58.1083 45.3587 58.0897 45.4087C58.071 45.4587 58.0337 45.4996 57.9855 45.5226L38.6717 54.3278C38.6232 54.3494 38.5682 54.3511 38.5185 54.3324C38.4688 54.3137 38.4285 54.2761 38.4064 54.2279L37.8613 53.0352V27.0221C37.8612 26.913 37.8826 26.805 37.9243 26.7042C37.9659 26.6034 38.0271 26.5118 38.1042 26.4347C38.1814 26.3575 38.273 26.2964 38.3738 26.2547C38.4746 26.213 38.5827 26.1916 38.6918 26.1918Z" fill="#56A5E6"/>
<path fill-rule="evenodd" clip-rule="evenodd" d="M38.6918 26.8195H54.496L60.1169 32.4404V54.2079C60.1171 54.2344 60.1121 54.2605 60.1022 54.285C60.0923 54.3095 60.0776 54.3318 60.0591 54.3506C60.0405 54.3694 60.0185 54.3843 59.9941 54.3946C59.9698 54.4049 59.9437 54.4103 59.9173 54.4104H38.6918C38.6382 54.4102 38.5868 54.3888 38.5488 54.3509C38.5109 54.313 38.4895 54.2616 38.4893 54.2079V27.022C38.4895 26.9684 38.5109 26.917 38.5488 26.879C38.5868 26.8411 38.6382 26.8197 38.6918 26.8195Z" fill="#EAF6FF"/>
<path fill-rule="evenodd" clip-rule="evenodd" d="M54.4961 26.8195V31.1789C54.4972 31.5131 54.6304 31.8332 54.8667 32.0695C55.103 32.3058 55.4232 32.439 55.7573 32.4401H60.117L54.4961 26.8195Z" fill="#BEC7CF"/>
<path fill-rule="evenodd" clip-rule="evenodd" d="M43.5511 45.9876H60.1398C60.9804 45.9907 61.7856 46.326 62.38 46.9203C62.9743 47.5147 63.3096 48.32 63.3126 49.1605V62.1914C63.3101 63.032 62.975 63.8376 62.3805 64.432C61.786 65.0265 60.9805 65.3616 60.1398 65.3642H30.7342C29.8934 65.3621 29.0876 65.0271 28.4931 64.4325C27.8985 63.838 27.5636 63.0322 27.5615 62.1914V42.8148C27.5627 42.1243 27.8376 41.4624 28.3259 40.9741C28.8142 40.4859 29.4761 40.211 30.1666 40.2098H35.7076C36.6235 40.2098 37.2484 40.7748 37.9046 41.4139L41.3542 44.7836C42.0104 45.4227 42.6354 45.9876 43.5512 45.9876H43.5511Z" fill="#E8A400"/>
<path fill-rule="evenodd" clip-rule="evenodd" d="M60.1163 46.5212C60.5524 46.8098 60.9104 47.2019 61.1583 47.6624C61.4063 48.1229 61.5365 48.6375 61.5373 49.1605V62.1914C61.5347 63.032 61.1996 63.8376 60.6051 64.432C60.0107 65.0265 59.2052 65.3616 58.3645 65.3642H60.139C60.9797 65.3616 61.7852 65.0265 62.3797 64.432C62.9741 63.8376 63.3092 63.032 63.3118 62.1914V49.1605C63.3104 48.3195 62.9757 47.5132 62.381 46.9185C61.7863 46.3237 60.9801 45.989 60.139 45.9876H58.3645C58.9885 45.9872 59.5985 46.173 60.1163 46.5212ZM41.3533 44.7836L38.4886 41.9874L37.9036 41.4139C37.2475 40.7748 36.6225 40.2098 35.7067 40.2098H33.9316C34.8475 40.2098 35.4724 40.7748 36.1286 41.4139L38.4883 43.7193L39.5791 44.7836C40.2353 45.4227 40.8601 45.9876 41.7761 45.9876H43.5508C42.6349 45.9876 42.01 45.4227 41.3538 44.7836H41.3533Z" fill="#E6A74E"/>
<path fill-rule="evenodd" clip-rule="evenodd" d="M61.7406 55.3549C62.9285 55.3549 64.0897 55.0026 65.0774 54.3427C66.0651 53.6827 66.835 52.7447 67.2896 51.6472C67.7442 50.5497 67.8631 49.342 67.6313 48.1769C67.3996 47.0118 66.8275 45.9416 65.9875 45.1017C65.1475 44.2617 64.0773 43.6897 62.9122 43.4579C61.7472 43.2262 60.5395 43.3451 59.442 43.7998C58.3445 44.2544 57.4065 45.0242 56.7466 46.0119C56.0866 46.9997 55.7344 48.1609 55.7344 49.3488C55.7373 50.9408 56.3711 52.4668 57.4968 53.5925C58.6226 54.7182 60.1485 55.352 61.7406 55.3549Z" fill="#7FB800"/>
<path fill-rule="evenodd" clip-rule="evenodd" d="M61.2324 43.3626C62.706 43.4877 64.0817 44.1518 65.0961 45.2279C66.1105 46.3041 66.6923 47.7166 66.7301 49.195C66.7679 50.6734 66.259 52.1137 65.301 53.2403C64.3429 54.3669 63.003 55.1005 61.5377 55.3007C61.435 55.3149 61.3351 55.3264 61.2324 55.3349C61.3322 55.3435 61.435 55.3492 61.5377 55.352C61.6033 55.3549 61.6718 55.3549 61.7403 55.3549C63.329 55.3484 64.8503 54.7128 65.9714 53.5871C67.0925 52.4614 67.7219 50.9375 67.7219 49.3488C67.7219 47.7601 67.0925 46.2361 65.9714 45.1105C64.8503 43.9848 63.329 43.3491 61.7403 43.3427C61.5695 43.3427 61.3978 43.3484 61.2324 43.3628V43.3626Z" fill="#21B335"/>
<path fill-rule="evenodd" clip-rule="evenodd" d="M58.833 32.4404V44.0902C59.2391 43.8658 59.67 43.6896 60.1169 43.5653V32.4404H58.833Z" fill="#D3DDE6"/>
<path d="M41.2851 31.7188C41.2851 31.5323 41.3592 31.3534 41.4911 31.2214C41.623 31.0895 41.8019 31.0154 41.9885 31.0154H51.2913C51.4779 31.0154 51.6568 31.0895 51.7887 31.2214C51.9206 31.3534 51.9947 31.5323 51.9947 31.7188C51.9947 31.9054 51.9206 32.0843 51.7887 32.2162C51.6568 32.3481 51.4779 32.4223 51.2913 32.4223H41.9887C41.8963 32.4223 41.8048 32.4041 41.7195 32.3688C41.6341 32.3334 41.5565 32.2816 41.4912 32.2163C41.4258 32.151 41.374 32.0734 41.3387 31.9881C41.3033 31.9027 41.2851 31.8112 41.2851 31.7188ZM41.9885 35.8462H56.6806C56.8672 35.8462 57.0461 35.7721 57.178 35.6402C57.3099 35.5083 57.384 35.3293 57.384 35.1428C57.384 34.9562 57.3099 34.7773 57.178 34.6454C57.0461 34.5135 56.8672 34.4394 56.6806 34.4394H41.9887C41.8021 34.4394 41.6232 34.5135 41.4913 34.6454C41.3594 34.7773 41.2853 34.9562 41.2853 35.1428C41.2853 35.3293 41.3594 35.5083 41.4913 35.6402C41.6232 35.7721 41.8021 35.8462 41.9887 35.8462H41.9885ZM56.6804 37.8599H41.9887C41.8021 37.8599 41.6232 37.934 41.4913 38.0659C41.3594 38.1978 41.2853 38.3767 41.2853 38.5633C41.2853 38.7499 41.3594 38.9288 41.4913 39.0607C41.6232 39.1926 41.8021 39.2667 41.9887 39.2667H56.6806C56.8672 39.2667 57.0461 39.1926 57.178 39.0607C57.3099 38.9288 57.384 38.7499 57.384 38.5633C57.384 38.3767 57.3099 38.1978 57.178 38.0659C57.0461 37.934 56.8672 37.8599 56.6806 37.8599H56.6804ZM56.6804 41.2807H41.9887C41.8021 41.2807 41.6232 41.3548 41.4913 41.4867C41.3594 41.6186 41.2853 41.7976 41.2853 41.9841C41.2853 42.1707 41.3594 42.3496 41.4913 42.4815C41.6232 42.6134 41.8021 42.6875 41.9887 42.6875H56.6806C56.8672 42.6875 57.0461 42.6134 57.178 42.4815C57.3099 42.3496 57.384 42.1707 57.384 41.9841C57.384 41.7976 57.3099 41.6186 57.178 41.4867C57.0461 41.3548 56.8672 41.2807 56.6806 41.2807H56.6804ZM64.0207 55.6814V62.1996C64.0193 63.2258 63.6111 64.2096 62.8854 64.9351C62.1597 65.6607 61.1759 66.0689 60.1498 66.0701H30.7947C29.7685 66.0689 28.7847 65.6608 28.059 64.9352C27.3333 64.2096 26.925 63.2258 26.9237 62.1996V45.3196L17.2434 36.9479C17.1735 36.8875 17.1162 36.8139 17.0747 36.7313C17.0333 36.6487 17.0085 36.5588 17.0018 36.4666C16.9952 36.3745 17.0067 36.2819 17.0358 36.1942C17.0649 36.1065 17.1111 36.0254 17.1715 35.9555L31.2966 19.6228C31.357 19.5529 31.4306 19.4956 31.5132 19.4541C31.5958 19.4127 31.6857 19.3879 31.7779 19.3812C31.87 19.3746 31.9626 19.3861 32.0503 19.4152C32.138 19.4443 32.2191 19.4904 32.289 19.5509L37.3496 23.9285L46.4651 19.7735C46.5491 19.7351 46.6399 19.7137 46.7323 19.7105C46.8246 19.7072 46.9167 19.7222 47.0032 19.7546C47.0898 19.7869 47.1691 19.836 47.2367 19.899C47.3043 19.962 47.3588 20.0377 47.3971 20.1218L50.1605 26.1844H54.5189C54.7055 26.1845 54.8844 26.2586 55.0164 26.3904L60.6277 32.0018C60.693 32.0671 60.7449 32.1447 60.7802 32.2301C60.8156 32.3154 60.8338 32.4069 60.8338 32.4993V42.7436C62.4742 42.5167 64.1406 42.9055 65.5112 43.835C66.8818 44.7644 67.8596 46.1687 68.2557 47.7767C68.6519 49.3846 68.4383 51.0824 67.6563 52.5422C66.8742 54.0019 65.5792 55.1203 64.0211 55.6814H64.0207ZM59.4262 43.0956V33.2028H55.7775C55.2572 33.2023 54.7584 32.9953 54.3904 32.6274C54.0225 32.2595 53.8156 31.7606 53.815 31.2403V27.5915H39.243V41.7322L41.8881 44.3181C42.4876 44.9046 42.9605 45.3196 43.5895 45.3196H56.4258C57.196 44.31 58.2363 43.539 59.4262 43.0956ZM55.2222 31.2403C55.2224 31.3876 55.2809 31.5287 55.3851 31.6329C55.4892 31.737 55.6304 31.7956 55.7776 31.7957H58.4314L55.2222 28.5863V31.2403ZM46.4085 21.3457L37.5605 25.3791C37.5339 25.3933 37.5065 25.4058 37.4783 25.4165L28.0437 29.7174L32.5255 39.5519H35.7589C36.6337 39.5519 37.3035 39.9501 37.8353 40.392V26.8881C37.8353 26.7015 37.9094 26.5226 38.0414 26.3907C38.1733 26.2588 38.3522 26.1846 38.5387 26.1846H48.6137L46.4085 21.3457ZM26.9237 43.4593V42.8564C26.9251 41.98 27.2741 41.1399 27.894 40.5205C28.514 39.9011 29.3544 39.5529 30.2308 39.5523H30.9797L26.4716 29.6612C26.4333 29.5772 26.4119 29.4864 26.4087 29.394C26.4054 29.3017 26.4204 29.2096 26.4528 29.1231C26.4851 29.0366 26.5342 28.9572 26.5972 28.8897C26.6602 28.8221 26.7359 28.7676 26.82 28.7293L35.941 24.5714L31.9005 21.0756L18.696 36.344L26.9237 43.4593ZM62.6137 56.0203C61.6688 56.1449 60.7082 56.0661 59.7962 55.7892C58.8842 55.5122 58.0419 55.0436 57.3258 54.4146C56.6097 53.7856 56.0363 53.0109 55.644 52.1422C55.2517 51.2736 55.0496 50.3312 55.0513 49.378C55.0506 48.4659 55.2373 47.5633 55.5997 46.7263H43.5893C42.3378 46.7263 41.5092 45.9155 40.9041 45.3236L38.0657 42.5492C38.0529 42.5374 38.0404 42.5253 38.0285 42.5127L37.4636 41.96C36.8428 41.3553 36.3884 40.9584 35.7594 40.9584H30.2308C29.7274 40.9586 29.2447 41.1585 28.8885 41.5142C28.5323 41.8698 28.3317 42.3523 28.3308 42.8557V62.1996C28.3316 62.8529 28.5914 63.4791 29.0533 63.941C29.5152 64.4029 30.1415 64.6627 30.7947 64.6634H60.1498C60.803 64.6627 61.4293 64.4029 61.8912 63.941C62.3531 63.4792 62.613 62.8529 62.6137 62.1996V56.0203ZM67.0433 49.3786C67.0433 48.332 66.7329 47.3088 66.1514 46.4385C65.5698 45.5682 64.7433 44.8898 63.7763 44.4893C62.8093 44.0887 61.7452 43.9839 60.7186 44.1881C59.692 44.3923 58.749 44.8963 58.0089 45.6365C57.2688 46.3766 56.7647 47.3195 56.5605 48.3461C56.3563 49.3727 56.4611 50.4368 56.8616 51.4038C57.2622 52.3708 57.9405 53.1974 58.8108 53.7789C59.6811 54.3604 60.7042 54.6708 61.7509 54.6709C63.154 54.6693 64.4992 54.1112 65.4914 53.1191C66.4835 52.1269 67.0416 50.7818 67.0433 49.3786ZM65.3329 46.7192C65.2676 46.6539 65.1901 46.6021 65.1047 46.5667C65.0194 46.5314 64.9279 46.5132 64.8355 46.5132C64.7431 46.5132 64.6517 46.5314 64.5663 46.5667C64.481 46.6021 64.4034 46.6539 64.3381 46.7192L60.5115 50.5456L59.1632 49.1974C59.0978 49.132 59.0203 49.0802 58.9349 49.0449C58.8496 49.0095 58.7581 48.9913 58.6657 48.9913C58.5734 48.9913 58.4819 49.0095 58.3965 49.0449C58.3112 49.0802 58.2337 49.132 58.1683 49.1974C58.103 49.2627 58.0512 49.3402 58.0158 49.4256C57.9805 49.5109 57.9623 49.6024 57.9623 49.6948C57.9623 49.7872 57.9805 49.8786 58.0158 49.964C58.0512 50.0493 58.103 50.1269 58.1683 50.1922L60.0142 52.0379C60.0795 52.1032 60.1571 52.155 60.2424 52.1904C60.3278 52.2257 60.4192 52.2439 60.5116 52.2439C60.604 52.2439 60.6955 52.2257 60.7808 52.1904C60.8662 52.155 60.9437 52.1032 61.009 52.0379L65.3329 47.7143C65.3983 47.6489 65.4501 47.5714 65.4855 47.486C65.5209 47.4006 65.5391 47.3091 65.5391 47.2167C65.5391 47.1243 65.5209 47.0328 65.4855 46.9475C65.4501 46.8621 65.3983 46.7845 65.3329 46.7192ZM58.8482 60.2708H32.0963C31.9098 60.2708 31.7309 60.3449 31.5989 60.4768C31.467 60.6087 31.3929 60.7876 31.3929 60.9742C31.3929 61.1608 31.467 61.3397 31.5989 61.4716C31.7309 61.6035 31.9098 61.6776 32.0963 61.6776H58.8482C59.0348 61.6776 59.2137 61.6035 59.3456 61.4716C59.4775 61.3397 59.5516 61.1608 59.5516 60.9742C59.5516 60.7876 59.4775 60.6087 59.3456 60.4768C59.2137 60.3449 59.0348 60.2708 58.8482 60.2708ZM32.0963 56.8728H38.9581C39.1446 56.8728 39.3236 56.7987 39.4555 56.6667C39.5874 56.5348 39.6615 56.3559 39.6615 56.1693C39.6615 55.9828 39.5874 55.8039 39.4555 55.672C39.3236 55.54 39.1446 55.4659 38.9581 55.4659H32.0963C31.9098 55.4659 31.7309 55.54 31.5989 55.672C31.467 55.8039 31.3929 55.9828 31.3929 56.1693C31.3929 56.3559 31.467 56.5348 31.5989 56.6667C31.7309 56.7987 31.9098 56.8728 32.0963 56.8728Z" fill="black"/>
</g>
<defs>
<clipPath id="clip0_1787_3745">
<rect width="51.45" height="51.45" fill="white" transform="translate(17 17)"/>
</clipPath>
</defs>
</svg>
