<svg width="87" height="87" viewBox="0 0 87 87" fill="none" xmlns="http://www.w3.org/2000/svg">
<circle cx="43.1538" cy="43.1538" r="43.1538" fill="#FFE8B0"/>
<g clip-path="url(#clip0_1787_3823)">
<path d="M52.6889 59.0466L60.0943 55.5489C61.7269 54.7243 63.7193 55.3288 64.6189 56.9211L49.5662 66.658C47.5483 67.5893 45.2835 67.8456 43.1081 67.389L32.7267 64.4752C31.7711 64.2074 30.7492 64.3191 29.8743 64.7876L27.7031 65.9492L27.9953 55.361L28.0818 55.363C31.1843 53.1588 35.2585 52.8737 38.6375 54.6246L39.259 54.9464C40.2302 55.4496 41.3033 55.7269 42.3973 55.7566L48.4997 55.9251C50.4151 55.9774 52.0914 57.2264 52.6889 59.0466Z" fill="#F7CAA5"/>
<path d="M54.7202 40.4718C54.7202 46.7646 49.6187 51.8661 43.3259 51.8661C37.0331 51.8661 31.9316 46.7646 31.9316 40.4718C31.9316 34.179 37.0331 29.0775 43.3259 29.0775C49.6187 29.0775 54.7202 34.179 54.7202 40.4718Z" fill="#FF4D6D"/>
<path d="M27.7023 65.9492L27.6698 67.1409L20.9785 66.9575L21.3823 52.272L28.0749 52.4558L27.9945 55.3609L27.7023 65.9492Z" fill="#7FB800"/>
<path d="M43.3958 45.0792C43.3015 45.0586 43.2042 45.0549 43.1082 45.0685C42.139 44.9626 41.4063 44.1417 41.41 43.1668C41.41 42.7007 41.0322 42.3228 40.5661 42.3228C40.1001 42.3228 39.7222 42.7007 39.7222 43.1668C39.7164 44.7936 40.8059 46.2202 42.3764 46.6439V47.487C42.3764 47.953 42.7542 48.3309 43.2203 48.3309C43.6863 48.3309 44.0642 47.953 44.0642 47.487V46.6941C45.8716 46.3158 47.1004 44.6321 46.91 42.7955C46.72 40.9589 45.1723 39.5628 43.3258 39.5623C42.2676 39.5623 41.41 38.7048 41.41 37.6466C41.41 36.5888 42.2676 35.7309 43.3258 35.7309C44.384 35.7309 45.2415 36.5888 45.2415 37.6466C45.2415 38.1127 45.6194 38.4905 46.0854 38.4905C46.5515 38.4905 46.9294 38.1127 46.9294 37.6466C46.9269 35.9418 45.7323 34.4712 44.0642 34.1197V33.3511C44.0642 32.8851 43.6863 32.5072 43.2203 32.5072C42.7542 32.5072 42.3764 32.8851 42.3764 33.3511V34.1712C40.6349 34.6463 39.5141 36.337 39.7539 38.1258C39.9941 39.9151 41.5209 41.2506 43.3258 41.2502C44.3757 41.242 45.237 42.0805 45.2559 43.1301C45.2753 44.1801 44.4458 45.0495 43.3958 45.0796V45.0792Z" fill="black"/>
<path d="M31.0879 40.4717C31.0879 47.2306 36.5673 52.71 43.3261 52.71C50.085 52.71 55.5643 47.2306 55.5643 40.4717C55.5643 33.7129 50.085 28.2335 43.3261 28.2335C36.5706 28.2413 31.0957 33.7162 31.0879 40.4717ZM43.3261 29.9214C49.1529 29.9214 53.8765 34.645 53.8765 40.4717C53.8765 46.2985 49.1529 51.0221 43.3261 51.0221C37.4994 51.0221 32.7758 46.2985 32.7758 40.4717C32.7823 34.6479 37.5023 29.928 43.3261 29.9214Z" fill="black"/>
<path d="M59.724 54.7898L53.1147 57.9117C52.1991 56.216 50.4486 55.1376 48.5225 55.0815L42.4193 54.913C41.453 54.885 40.5052 54.6406 39.646 54.1968L39.025 53.8754C35.8455 52.2176 32.056 52.2217 28.8797 53.8857L28.9185 52.4784C28.9317 52.0128 28.5641 51.6246 28.098 51.6118L21.4055 51.4281C21.1818 51.4219 20.9646 51.5047 20.8022 51.6584C20.6395 51.8125 20.5447 52.0247 20.5389 52.2485L20.1351 66.934C20.1223 67.4001 20.4895 67.7879 20.9555 67.8006L27.6468 67.9844H27.6703C28.1273 67.984 28.501 67.6201 28.5134 67.1636L28.5328 66.4618L30.2721 65.5309C30.9541 65.1642 31.7523 65.0768 32.4978 65.2874L42.8796 68.2008C42.8973 68.2061 42.9154 68.2102 42.934 68.2144C43.6848 68.3714 44.45 68.4505 45.2169 68.4501C46.84 68.4509 48.4443 68.101 49.9191 67.4236C49.9553 67.4067 49.9904 67.3873 50.0237 67.3659L65.0764 57.629C65.4514 57.3867 65.5726 56.8942 65.3529 56.5052C64.2354 54.5223 61.7572 53.7674 59.724 54.7898ZM26.8692 65.9257L26.8544 66.2739L21.8481 66.1367L22.2041 53.1386L27.2137 53.2758L26.8692 65.9257ZM49.1588 65.9162C47.3255 66.7437 45.2783 66.9719 43.3077 66.5685L32.9539 63.6626C31.789 63.3337 30.5416 63.4701 29.4756 64.0433L28.5863 64.5193L28.8249 55.8764C31.6398 54.0039 35.2508 53.8115 38.2487 55.3741L38.8701 55.6955C39.9551 56.2559 41.1526 56.5654 42.3731 56.6L48.476 56.769C50.0349 56.8135 51.3988 57.8301 51.8867 59.3111C51.9304 59.4446 51.9667 59.5801 51.9951 59.7178L42.9039 59.4668C42.4378 59.454 42.0501 59.8212 42.0369 60.2873C42.0241 60.7533 42.3917 61.1411 42.8573 61.1543L52.8885 61.4304H52.912C53.369 61.4308 53.7431 61.0669 53.7559 60.6095C53.7658 60.2428 53.7382 59.876 53.6739 59.5146L60.4546 56.3111C60.4612 56.3083 60.4678 56.305 60.4744 56.3017C61.4362 55.815 62.599 55.9778 63.3902 56.71L49.1588 65.9162Z" fill="black"/>
<path d="M44.1703 25.8613V17.8439C44.1703 17.3779 43.7924 17 43.3264 17C42.8603 17 42.4824 17.3779 42.4824 17.8439V25.8613C42.4824 26.3273 42.8603 26.7052 43.3264 26.7052C43.7924 26.7052 44.1703 26.3273 44.1703 25.8613Z" fill="black"/>
<path d="M50.4994 25.8612V22.0635C50.4994 21.5975 50.1215 21.2196 49.6555 21.2196C49.1894 21.2196 48.8115 21.5975 48.8115 22.0635V25.8612C48.8115 26.3273 49.1894 26.7052 49.6555 26.7052C50.1215 26.7052 50.4994 26.3273 50.4994 25.8612Z" fill="black"/>
<path d="M37.8402 25.8612V22.0635C37.8402 21.5975 37.4623 21.2196 36.9963 21.2196C36.5302 21.2196 36.1523 21.5975 36.1523 22.0635V25.8612C36.1523 26.3273 36.5302 26.7052 36.9963 26.7052C37.4623 26.7052 37.8402 26.3273 37.8402 25.8612Z" fill="black"/>
</g>
<defs>
<clipPath id="clip0_1787_3823">
<rect width="51.45" height="51.45" fill="white" transform="translate(17 17)"/>
</clipPath>
</defs>
</svg>
