<svg width="87" height="87" viewBox="0 0 87 87" fill="none" xmlns="http://www.w3.org/2000/svg">
<circle cx="43.1538" cy="43.1538" r="43.1538" fill="#FFE8B0"/>
<g clip-path="url(#clip0_1787_3385)">
<path d="M22.3596 28.7906H63.0908C63.6594 28.7906 64.2047 29.0165 64.6067 29.4185C65.0087 29.8206 65.2346 30.3658 65.2346 30.9344V63.0906H20.2158V30.9344C20.2158 30.3658 20.4417 29.8206 20.8437 29.4185C21.2457 29.0165 21.791 28.7906 22.3596 28.7906Z" fill="#00A6ED"/>
<path d="M25.5752 28.7906H22.3596C21.791 28.7906 21.2457 29.0165 20.8437 29.4185C20.4417 29.8206 20.2158 30.3658 20.2158 30.9344V63.0906H23.4314V30.9344C23.4314 30.3658 23.6573 29.8206 24.0593 29.4185C24.4614 29.0165 25.0066 28.7906 25.5752 28.7906Z" fill="#14B5E0"/>
<path d="M65.2343 60.9469H45.9405V63.0906H39.5093V60.9469H20.2155C19.647 60.9469 19.1017 61.1728 18.6997 61.5748C18.2976 61.9768 18.0718 62.5221 18.0718 63.0906V65.2344C18.0718 65.803 18.2976 66.3482 18.6997 66.7503C19.1017 67.1523 19.647 67.3781 20.2155 67.3781H65.2343C65.8028 67.3781 66.3481 67.1523 66.7501 66.7503C67.1522 66.3482 67.378 65.803 67.378 65.2344V63.0906C67.378 62.5221 67.1522 61.9768 66.7501 61.5748C66.3481 61.1728 65.8028 60.9469 65.2343 60.9469Z" fill="#FF4D6D"/>
<path d="M21.2874 65.2344V63.0906C21.2874 62.5221 21.5133 61.9768 21.9153 61.5748C22.3173 61.1728 22.8626 60.9469 23.4312 60.9469H20.2155C19.647 60.9469 19.1017 61.1728 18.6997 61.5748C18.2976 61.9768 18.0718 62.5221 18.0718 63.0906V65.2344C18.0718 65.803 18.2976 66.3482 18.6997 66.7503C19.1017 67.1523 19.647 67.3781 20.2155 67.3781H23.4312C22.8626 67.3781 22.3173 67.1523 21.9153 66.7503C21.5133 66.3482 21.2874 65.803 21.2874 65.2344Z" fill="#E03614"/>
<path d="M65.2344 59.875H45.9406C45.6563 59.875 45.3837 59.9879 45.1827 60.1889C44.9817 60.39 44.8687 60.6626 44.8687 60.9469V62.0187H40.5812V60.9469C40.5812 60.6626 40.4683 60.39 40.2673 60.1889C40.0663 59.9879 39.7937 59.875 39.5094 59.875H24.5031C24.2188 59.875 23.9462 59.9879 23.7452 60.1889C23.5442 60.39 23.4312 60.6626 23.4312 60.9469C23.4312 61.2312 23.5442 61.5038 23.7452 61.7048C23.9462 61.9058 24.2188 62.0187 24.5031 62.0187H38.4375V63.0906C38.4375 63.3749 38.5504 63.6475 38.7514 63.8486C38.9525 64.0496 39.2251 64.1625 39.5094 64.1625H45.9406C46.2249 64.1625 46.4975 64.0496 46.6986 63.8486C46.8996 63.6475 47.0125 63.3749 47.0125 63.0906V62.0187H65.2344C65.5187 62.0187 65.7913 62.1317 65.9923 62.3327C66.1933 62.5337 66.3062 62.8063 66.3062 63.0906V65.2344C66.3062 65.5187 66.1933 65.7913 65.9923 65.9923C65.7913 66.1933 65.5187 66.3062 65.2344 66.3062H20.2156C19.9313 66.3062 19.6587 66.1933 19.4577 65.9923C19.2567 65.7913 19.1437 65.5187 19.1437 65.2344V63.0906C19.1437 62.8063 19.2567 62.5337 19.4577 62.3327C19.6587 62.1317 19.9313 62.0187 20.2156 62.0187C20.4999 62.0187 20.7725 61.9058 20.9736 61.7048C21.1746 61.5038 21.2875 61.2312 21.2875 60.9469V30.9344C21.2875 30.6501 21.4004 30.3775 21.6014 30.1764C21.8025 29.9754 22.0751 29.8625 22.3594 29.8625C22.6437 29.8625 22.9163 29.7496 23.1173 29.5486C23.3183 29.3475 23.4312 29.0749 23.4312 28.7906C23.4312 28.5063 23.3183 28.2337 23.1173 28.0327C22.9163 27.8317 22.6437 27.7188 22.3594 27.7188C21.5065 27.7188 20.6886 28.0575 20.0856 28.6606C19.4825 29.2636 19.1437 30.0815 19.1437 30.9344V60.0722C18.5189 60.2931 17.9776 60.7017 17.5939 61.242C17.2102 61.7823 17.0027 62.4279 17 63.0906V65.2344C17 66.0872 17.3388 66.9051 17.9418 67.5082C18.5449 68.1112 19.3628 68.45 20.2156 68.45H65.2344C66.0872 68.45 66.9051 68.1112 67.5082 67.5082C68.1112 66.9051 68.45 66.0872 68.45 65.2344V63.0906C68.45 62.2378 68.1112 61.4199 67.5082 60.8168C66.9051 60.2138 66.0872 59.875 65.2344 59.875Z" fill="black"/>
<path d="M63.0904 29.8625C63.3747 29.8625 63.6473 29.9754 63.8484 30.1764C64.0494 30.3775 64.1623 30.6501 64.1623 30.9344V56.6594C64.1623 56.9437 64.2752 57.2163 64.4762 57.4173C64.6773 57.6183 64.9499 57.7312 65.2342 57.7312C65.5185 57.7312 65.7911 57.6183 65.9921 57.4173C66.1931 57.2163 66.3061 56.9437 66.3061 56.6594V30.9344C66.3061 30.0815 65.9673 29.2636 65.3642 28.6606C64.7612 28.0575 63.9433 27.7188 63.0904 27.7188C62.8062 27.7188 62.5335 27.8317 62.3325 28.0327C62.1315 28.2337 62.0186 28.5063 62.0186 28.7906C62.0186 29.0749 62.1315 29.3475 62.3325 29.5486C62.5335 29.7496 62.8062 29.8625 63.0904 29.8625Z" fill="black"/>
<path d="M34.464 38.1235C34.6662 38.3187 34.9369 38.4268 35.218 38.4243C35.499 38.4219 35.7679 38.3092 35.9666 38.1104C36.1653 37.9117 36.2781 37.6428 36.2805 37.3618C36.2829 37.0808 36.1749 36.81 35.9797 36.6078L28.1625 28.7907L35.9797 20.9735C36.082 20.8746 36.1637 20.7563 36.2199 20.6256C36.276 20.4948 36.3056 20.3541 36.3068 20.2118C36.3081 20.0695 36.281 19.9283 36.2271 19.7966C36.1732 19.6649 36.0936 19.5452 35.9929 19.4446C35.8923 19.3439 35.7726 19.2643 35.6409 19.2104C35.5092 19.1565 35.368 19.1294 35.2257 19.1307C35.0834 19.1319 34.9427 19.1615 34.812 19.2176C34.6812 19.2738 34.5629 19.3555 34.464 19.4578L25.889 28.0328C25.6881 28.2339 25.5752 28.5064 25.5752 28.7907C25.5752 29.0749 25.6881 29.3475 25.889 29.5485L34.464 38.1235Z" fill="black"/>
<path d="M49.4701 38.1235C49.6711 38.3244 49.9437 38.4373 50.2279 38.4373C50.5121 38.4373 50.7847 38.3244 50.9857 38.1235L59.5607 29.5485C59.7617 29.3475 59.8745 29.0749 59.8745 28.7907C59.8745 28.5065 59.7617 28.2339 59.5607 28.0329L50.9857 19.4579C50.7836 19.2626 50.5128 19.1546 50.2318 19.157C49.9507 19.1595 49.6819 19.2722 49.4831 19.4709C49.2844 19.6697 49.1717 19.9385 49.1692 20.2195C49.1668 20.5006 49.2748 20.7713 49.4701 20.9735L57.2873 28.7907L49.4701 36.6079C49.2691 36.8089 49.1562 37.0815 49.1562 37.3657C49.1562 37.6499 49.2691 37.9225 49.4701 38.1235Z" fill="black"/>
<path d="M39.2018 40.5362C39.3016 40.5663 39.4053 40.5814 39.5095 40.5812C39.7401 40.5812 39.9645 40.5069 40.1495 40.3692C40.3345 40.2315 40.4701 40.0378 40.5363 39.817L46.9676 18.3795C47.008 18.2446 47.0214 18.1031 47.0071 17.9631C46.9928 17.823 46.9511 17.6872 46.8843 17.5633C46.8176 17.4393 46.727 17.3298 46.6179 17.2409C46.5088 17.1519 46.3832 17.0854 46.2483 17.045C46.1135 17.0046 45.972 16.9911 45.832 17.0054C45.6919 17.0197 45.5561 17.0614 45.4321 17.1282C45.3082 17.195 45.1987 17.2855 45.1097 17.3947C45.0208 17.5038 44.9543 17.6293 44.9139 17.7642L38.4826 39.2017C38.4422 39.3365 38.4287 39.478 38.443 39.6181C38.4573 39.7581 38.499 39.894 38.5658 40.0179C38.6326 40.1418 38.7231 40.2514 38.8323 40.3403C38.9414 40.4292 39.067 40.4958 39.2018 40.5362Z" fill="black"/>
<path d="M24.503 44.8687C25.095 44.8687 25.5749 44.3888 25.5749 43.7969C25.5749 43.2049 25.095 42.725 24.503 42.725C23.911 42.725 23.4312 43.2049 23.4312 43.7969C23.4312 44.3888 23.911 44.8687 24.503 44.8687Z" fill="black"/>
<path d="M24.503 49.1562C25.095 49.1562 25.5749 48.6763 25.5749 48.0843C25.5749 47.4923 25.095 47.0125 24.503 47.0125C23.911 47.0125 23.4312 47.4923 23.4312 48.0843C23.4312 48.6763 23.911 49.1562 24.503 49.1562Z" fill="black"/>
<path d="M24.503 53.4438C25.095 53.4438 25.5749 52.9639 25.5749 52.3719C25.5749 51.7799 25.095 51.3 24.503 51.3C23.911 51.3 23.4312 51.7799 23.4312 52.3719C23.4312 52.9639 23.911 53.4438 24.503 53.4438Z" fill="black"/>
<path d="M24.503 57.7313C25.095 57.7313 25.5749 57.2514 25.5749 56.6594C25.5749 56.0674 25.095 55.5875 24.503 55.5875C23.911 55.5875 23.4312 56.0674 23.4312 56.6594C23.4312 57.2514 23.911 57.7313 24.503 57.7313Z" fill="black"/>
<path d="M28.7906 44.8687H35.2219C35.5062 44.8687 35.7788 44.7558 35.9798 44.5548C36.1808 44.3538 36.2937 44.0811 36.2937 43.7969C36.2937 43.5126 36.1808 43.2399 35.9798 43.0389C35.7788 42.8379 35.5062 42.725 35.2219 42.725H28.7906C28.5063 42.725 28.2337 42.8379 28.0327 43.0389C27.8317 43.2399 27.7188 43.5126 27.7188 43.7969C27.7188 44.0811 27.8317 44.3538 28.0327 44.5548C28.2337 44.7558 28.5063 44.8687 28.7906 44.8687Z" fill="black"/>
<path d="M27.7188 48.0843C27.7188 48.3686 27.8317 48.6412 28.0327 48.8423C28.2337 49.0433 28.5063 49.1562 28.7906 49.1562H48.0844C48.3687 49.1562 48.6413 49.0433 48.8423 48.8423C49.0433 48.6412 49.1562 48.3686 49.1562 48.0843C49.1562 47.8 49.0433 47.5274 48.8423 47.3264C48.6413 47.1254 48.3687 47.0125 48.0844 47.0125H28.7906C28.5063 47.0125 28.2337 47.1254 28.0327 47.3264C27.8317 47.5274 27.7188 47.8 27.7188 48.0843Z" fill="black"/>
<path d="M44.8687 52.3719C44.8687 52.0876 44.7558 51.815 44.5548 51.614C44.3538 51.413 44.0812 51.3 43.7969 51.3H28.7906C28.5063 51.3 28.2337 51.413 28.0327 51.614C27.8317 51.815 27.7188 52.0876 27.7188 52.3719C27.7188 52.6562 27.8317 52.9288 28.0327 53.1299C28.2337 53.3309 28.5063 53.4438 28.7906 53.4438H43.7969C44.0812 53.4438 44.3538 53.3309 44.5548 53.1299C44.7558 52.9288 44.8687 52.6562 44.8687 52.3719Z" fill="black"/>
<path d="M28.7906 55.5875C28.5063 55.5875 28.2337 55.7005 28.0327 55.9015C27.8317 56.1025 27.7188 56.3751 27.7188 56.6594C27.7188 56.9437 27.8317 57.2163 28.0327 57.4173C28.2337 57.6183 28.5063 57.7313 28.7906 57.7313H35.2219C35.5062 57.7313 35.7788 57.6183 35.9798 57.4173C36.1808 57.2163 36.2937 56.9437 36.2937 56.6594C36.2937 56.3751 36.1808 56.1025 35.9798 55.9015C35.7788 55.7005 35.5062 55.5875 35.2219 55.5875H28.7906Z" fill="black"/>
<path d="M52.3717 47.0125C52.0874 47.0125 51.8148 47.1254 51.6137 47.3264C51.4127 47.5274 51.2998 47.8 51.2998 48.0843C51.2998 48.3686 51.4127 48.6412 51.6137 48.8423C51.8148 49.0433 52.0874 49.1562 52.3717 49.1562H54.5154C54.7997 49.1562 55.0723 49.0433 55.2734 48.8423C55.4744 48.6412 55.5873 48.3686 55.5873 48.0843C55.5873 47.8 55.4744 47.5274 55.2734 47.3264C55.0723 47.1254 54.7997 47.0125 54.5154 47.0125H52.3717Z" fill="black"/>
</g>
<defs>
<clipPath id="clip0_1787_3385">
<rect width="51.45" height="51.45" fill="white" transform="translate(17 17)"/>
</clipPath>
</defs>
</svg>
