<svg width="20" height="20" viewBox="0 0 20 20" fill="none" xmlns="http://www.w3.org/2000/svg">
<g clip-path="url(#clip0_38_1419)">
<path d="M15.9251 7.30555C15.1463 7.30555 14.4676 7.06482 13.8889 6.58334C13.3102 6.10186 12.9375 5.49537 12.7708 4.76389H7.20831C7.07405 5.375 6.78585 5.90162 6.34373 6.34376C5.90159 6.78589 5.37497 7.07408 4.76385 7.20834V12.7708C5.49534 12.9375 6.10183 13.3098 6.58331 13.8876C7.06479 14.4654 7.30552 15.1464 7.30552 15.9306C7.30552 16.8287 6.98865 17.5926 6.35492 18.2222C5.72118 18.8519 4.95935 19.1667 4.06942 19.1667C3.17128 19.1667 2.40739 18.8519 1.77775 18.2222C1.14813 17.5926 0.833313 16.8269 0.833313 15.9252C0.833313 15.1464 1.07406 14.4676 1.55554 13.8889C2.03701 13.3102 2.64349 12.9375 3.37498 12.7708V7.20834C2.64349 7.04168 2.03701 6.67131 1.55554 6.09724C1.07406 5.52316 0.833313 4.8426 0.833313 4.05557C0.833313 3.16946 1.14882 2.41089 1.77983 1.77986C2.41086 1.14885 3.16943 0.833344 4.05554 0.833344C4.84257 0.833344 5.52313 1.07409 6.09721 1.55557C6.67128 2.03704 7.04165 2.64352 7.20831 3.37501H12.7708C12.9375 2.64352 13.3097 2.03704 13.8875 1.55557C14.4654 1.07409 15.1464 0.833344 15.9305 0.833344C16.8287 0.833344 17.5926 1.14816 18.2222 1.77778C18.8518 2.40742 19.1666 3.169 19.1666 4.06251C19.1666 4.95602 18.8518 5.71991 18.2222 6.35418C17.5926 6.98843 16.8269 7.30555 15.9251 7.30555ZM4.05156 17.7778C4.56447 17.7778 5.00354 17.5972 5.36877 17.2361C5.73402 16.875 5.91665 16.4458 5.91665 15.9484C5.91665 15.4355 5.73402 14.9965 5.36877 14.6312C5.00354 14.266 4.56447 14.0833 4.05156 14.0833C3.5542 14.0833 3.12497 14.266 2.76385 14.6312C2.40274 14.9965 2.22219 15.4355 2.22219 15.9484C2.22219 16.4458 2.40274 16.875 2.76385 17.2361C3.12497 17.5972 3.5542 17.7778 4.05156 17.7778ZM4.05156 5.91668C4.56447 5.91668 5.00354 5.73444 5.36877 5.36997C5.73402 5.00551 5.91665 4.56738 5.91665 4.05557C5.91665 3.55139 5.73402 3.11979 5.36877 2.76076C5.00354 2.40173 4.56447 2.22222 4.05156 2.22222C3.5542 2.22222 3.12497 2.40173 2.76385 2.76076C2.40274 3.11979 2.22219 3.55139 2.22219 4.05557C2.22219 4.56738 2.40274 5.00551 2.76385 5.36997C3.12497 5.73444 3.5542 5.91668 4.05156 5.91668ZM15.9444 19.1667C15.0507 19.1667 14.2856 18.8512 13.6491 18.2202C13.0127 17.5891 12.6944 16.8306 12.6944 15.9444C12.6944 15.0507 13.0122 14.2856 13.6476 13.6492C14.283 13.0127 15.0469 12.6945 15.9393 12.6945C16.8316 12.6945 17.5926 13.0122 18.2222 13.6476C18.8518 14.2831 19.1666 15.047 19.1666 15.9393C19.1666 16.8316 18.8511 17.5926 18.2201 18.2222C17.5891 18.8519 16.8305 19.1667 15.9444 19.1667ZM15.9444 17.7778C16.4486 17.7778 16.8802 17.5972 17.2392 17.2361C17.5983 16.875 17.7778 16.4458 17.7778 15.9484C17.7778 15.4355 17.5983 14.9965 17.2392 14.6312C16.8802 14.266 16.4486 14.0833 15.9444 14.0833C15.4326 14.0833 14.9945 14.266 14.63 14.6312C14.2655 14.9965 14.0833 15.4355 14.0833 15.9484C14.0833 16.4458 14.2655 16.875 14.63 17.2361C14.9945 17.5972 15.4326 17.7778 15.9444 17.7778ZM15.9444 5.91668C16.4486 5.91668 16.8802 5.73444 17.2392 5.36997C17.5983 5.00551 17.7778 4.56738 17.7778 4.05557C17.7778 3.55139 17.5983 3.11979 17.2392 2.76076C16.8802 2.40173 16.4486 2.22222 15.9444 2.22222C15.4326 2.22222 14.9945 2.40173 14.63 2.76076C14.2655 3.11979 14.0833 3.55139 14.0833 4.05557C14.0833 4.56738 14.2655 5.00551 14.63 5.36997C14.9945 5.73444 15.4326 5.91668 15.9444 5.91668Z" fill="#90A4B7"/>
</g>
<defs>
<clipPath id="clip0_38_1419">
<rect width="20" height="20" fill="none"/>
</clipPath>
</defs>
</svg>
