<svg width="20" height="20" viewBox="0 0 20 20" fill="none" xmlns="http://www.w3.org/2000/svg">
<path d="M2.94444 10.4167V15.2778V4.72222V10.4167ZM11.5347 17.7778C11.8032 17.7778 12.0312 17.6817 12.2188 17.4896C12.4062 17.2975 12.5 17.0671 12.5 16.7986C12.5 16.5301 12.4068 16.3021 12.2205 16.1146C12.0341 15.9271 11.8032 15.8333 11.5278 15.8333C11.2639 15.8333 11.0359 15.9265 10.8438 16.1129C10.6516 16.2992 10.5555 16.5301 10.5555 16.8056C10.5555 17.0695 10.6516 17.2975 10.8438 17.4896C11.0359 17.6817 11.2662 17.7778 11.5347 17.7778ZM16.8125 9.16668C17.081 9.16668 17.309 9.07061 17.4965 8.87849C17.684 8.68635 17.7778 8.45602 17.7778 8.18751C17.7778 7.91898 17.6846 7.69097 17.4983 7.50347C17.3119 7.31597 17.081 7.22222 16.8056 7.22222C16.5417 7.22222 16.3137 7.31539 16.1215 7.50174C15.9294 7.68809 15.8333 7.91899 15.8333 8.19445C15.8333 8.45834 15.9294 8.68635 16.1215 8.87849C16.3137 9.07061 16.544 9.16668 16.8125 9.16668ZM5 8.88889H9.16667V7.50001H5V8.88889ZM5 12.5H9.16667V11.1111H5V12.5ZM2.94444 16.6667C2.56944 16.6667 2.24421 16.5289 1.96875 16.2535C1.69328 15.978 1.55554 15.6528 1.55554 15.2778V4.72222C1.55554 4.34722 1.69328 4.02199 1.96875 3.74653C2.24421 3.47107 2.56944 3.33334 2.94444 3.33334H17.0556C17.4306 3.33334 17.7558 3.47107 18.0312 3.74653C18.3067 4.02199 18.4444 4.34722 18.4444 4.72222H2.94444V15.2778H7.77779V16.6667H2.94444ZM11.5261 19.1667C10.8698 19.1667 10.3125 18.9371 9.85417 18.478C9.39583 18.0189 9.16667 17.4614 9.16667 16.8056C9.16667 16.2732 9.32292 15.8009 9.63542 15.3889C9.94792 14.9769 10.3472 14.6968 10.8333 14.5486V11.8056H16.1111V10.4514C15.625 10.3032 15.2257 10.0232 14.9132 9.61111C14.6007 9.19907 14.4445 8.72685 14.4445 8.19445C14.4445 7.53859 14.6742 6.9811 15.1336 6.52199C15.593 6.06289 16.1509 5.83334 16.8072 5.83334C17.4635 5.83334 18.0208 6.0629 18.4792 6.52201C18.9375 6.98111 19.1667 7.53859 19.1667 8.19445C19.1667 8.72685 19.0104 9.19907 18.6979 9.61111C18.3854 10.0232 17.9861 10.3032 17.5 10.4514V13.1944H12.2222V14.5486C12.7083 14.6968 13.1076 14.9769 13.4201 15.3889C13.7326 15.8009 13.8889 16.2732 13.8889 16.8056C13.8889 17.4614 13.6592 18.0189 13.1998 18.478C12.7403 18.9371 12.1825 19.1667 11.5261 19.1667Z" fill="#90A4B7"/>
</svg>
