<svg width="20" height="20" viewBox="0 0 20 20" fill="none" xmlns="http://www.w3.org/2000/svg">
<path d="M14.1667 7.5H17.5C18.4204 7.5 19.1667 8.24629 19.1667 9.16667V10.8333C19.1667 11.7537 18.4204 12.5 17.5 12.5H14.1667V15.8333C14.1667 16.7537 13.4204 17.5 12.5 17.5H10.8333C9.91292 17.5 9.16663 16.7537 9.16663 15.8333V12.5H5.83329C4.91292 12.5 4.16663 11.7537 4.16663 10.8333V9.16667C4.16663 8.24629 4.91292 7.5 5.83329 7.5H9.16663V4.16667C9.16663 3.24629 9.91292 2.5 10.8333 2.5H12.5C13.4204 2.5 14.1667 3.24629 14.1667 4.16667V7.5ZM12.5 4.16667H10.8333V7.91667C10.8333 8.14767 10.6477 8.33333 10.4167 8.33333H5.83329C5.60229 8.33333 5.41663 8.51899 5.41663 8.75V11.25C5.41663 11.481 5.60229 11.6667 5.83329 11.6667H10.4167C10.6477 11.6667 10.8333 11.8523 10.8333 12.0833V15.8333H12.5V12.0833C12.5 11.8523 12.6856 11.6667 12.9166 11.6667H17.5C17.731 11.6667 17.9166 11.481 17.9166 11.25V8.75C17.9166 8.51899 17.731 8.33333 17.5 8.33333H12.9166C12.6856 8.33333 12.5 8.14767 12.5 7.91667V4.16667Z" fill="#90A4B7"/>
</svg>