<svg width="151" height="123" viewBox="0 0 151 123" fill="none" xmlns="http://www.w3.org/2000/svg">
<g filter="url(#filter0_d_200_247)">
<circle cx="70" cy="62" r="40" fill="white"/>
<circle cx="70" cy="62" r="39.546" stroke="#D6DCE5" stroke-width="0.908091"/>
</g>
<g clip-path="url(#clip0_200_247)">
<path d="M54.901 72.4337H49.795C49.5641 72.4337 49.377 72.6209 49.377 72.8517V81.7141C49.377 81.945 49.5641 82.1322 49.795 82.1322H56.3979C56.6288 82.1322 56.816 81.945 56.816 81.7141V74.3486C56.816 74.2378 56.7719 74.1314 56.6936 74.053L55.1967 72.5561C55.1183 72.4777 55.0119 72.4337 54.901 72.4337Z" fill="#FFC333"/>
<path d="M56.6936 74.053L55.1967 72.5561C55.1183 72.4777 55.0121 72.4337 54.9011 72.4337H52.2695C52.3804 72.4337 52.4867 72.4778 52.5651 72.5561L54.062 74.053C54.1404 74.1314 54.1844 74.2377 54.1844 74.3486V81.7141C54.1844 81.945 53.9972 82.1322 53.7663 82.1322H56.398C56.6288 82.1322 56.816 81.945 56.816 81.7141V74.3486C56.8161 74.2378 56.772 74.1314 56.6936 74.053Z" fill="#E8A400"/>
<path d="M89.0143 72.4337H83.9083C83.6774 72.4337 83.4902 72.6209 83.4902 72.8517V81.7141C83.4902 81.945 83.6774 82.1322 83.9083 82.1322H90.5112C90.742 82.1322 90.9292 81.945 90.9292 81.7141V74.3486C90.9292 74.2378 90.8852 74.1314 90.8068 74.053L89.31 72.5561C89.2315 72.4777 89.1252 72.4337 89.0143 72.4337Z" fill="#FFC333"/>
<path d="M90.8069 74.053L89.31 72.5561C89.2316 72.4777 89.1253 72.4337 89.0144 72.4337H86.3809C86.4917 72.4337 86.5981 72.4778 86.6764 72.5561L88.1733 74.053C88.2517 74.1314 88.2957 74.2377 88.2957 74.3486V81.7141C88.2957 81.945 88.1085 82.1322 87.8777 82.1322H90.5112C90.7421 82.1322 90.9293 81.945 90.9293 81.7141V74.3486C90.9293 74.2378 90.8852 74.1314 90.8069 74.053Z" fill="#E8A400"/>
<path d="M89.0143 42.1741H83.9083C83.6774 42.1741 83.4902 42.3613 83.4902 42.5921V51.4545C83.4902 51.6853 83.6774 51.8725 83.9083 51.8725H90.5112C90.742 51.8725 90.9292 51.6853 90.9292 51.4545V44.089C90.9292 43.9781 90.8852 43.8718 90.8068 43.7934L89.31 42.2965C89.2315 42.2181 89.1252 42.1741 89.0143 42.1741Z" fill="#FFC333"/>
<path d="M90.8069 43.7935L89.31 42.2966C89.2316 42.2182 89.1253 42.1742 89.0144 42.1742H86.3809C86.4917 42.1742 86.5981 42.2183 86.6764 42.2966L88.1733 43.7935C88.2517 43.8719 88.2957 43.9782 88.2957 44.0891V51.4546C88.2957 51.6855 88.1085 51.8727 87.8777 51.8727H90.5112C90.7421 51.8727 90.9293 51.6855 90.9293 51.4546V44.089C90.9293 43.9782 90.8852 43.8718 90.8069 43.7935Z" fill="#FFC333"/>
<path d="M54.901 42.1741H49.795C49.5641 42.1741 49.377 42.3613 49.377 42.5921V51.4545C49.377 51.6853 49.5641 51.8725 49.795 51.8725H56.3979C56.6288 51.8725 56.816 51.6853 56.816 51.4545V44.089C56.816 43.9781 56.7719 43.8718 56.6936 43.7934L55.1966 42.2966C55.1183 42.2181 55.0119 42.1741 54.901 42.1741Z" fill="#FFC333"/>
<path d="M56.6936 43.7935L55.1967 42.2966C55.1183 42.2182 55.0121 42.1742 54.9011 42.1742H52.2695C52.3804 42.1742 52.4867 42.2183 52.5651 42.2966L54.062 43.7935C54.1404 43.8718 54.1844 43.9782 54.1844 44.089V51.4545C54.1844 51.6854 53.9972 51.8726 53.7664 51.8726H56.3981C56.6289 51.8726 56.8161 51.6854 56.8161 51.4545V44.089C56.8161 43.9782 56.772 43.8718 56.6936 43.7935Z" fill="#E8A400"/>
<path d="M61.3745 57.4998V69.6062C61.3745 70.068 61.7488 70.4423 62.2106 70.4423H78.0957C78.5575 70.4423 78.9318 70.068 78.9318 69.6062V57.4998H61.3745Z" fill="#F9F3F1"/>
<path d="M76.4235 57.4998V69.6062C76.4235 70.068 76.0492 70.4423 75.5874 70.4423H78.0956C78.5573 70.4423 78.9316 70.068 78.9316 69.6062V57.4998H76.4235Z" fill="#F3EAE6"/>
<path d="M78.9318 57.5835H61.3745V54.7001C61.3745 54.2383 61.7488 53.864 62.2106 53.864H78.0957C78.5575 53.864 78.9318 54.2383 78.9318 54.7001V57.5835Z" fill="#33B8F1"/>
<path d="M78.0956 53.8639H75.5874C76.0492 53.8639 76.4235 54.2382 76.4235 54.7V57.5834H78.9316V54.7C78.9316 54.2382 78.5573 53.8639 78.0956 53.8639Z" fill="#0593FC"/>
<path d="M90.5112 59.9214H87.2027C86.9719 59.9214 86.7847 59.7342 86.7847 59.5034V56.1948C86.7847 55.964 86.9719 55.7768 87.2027 55.7768H90.5112C90.7421 55.7768 90.9293 55.964 90.9293 56.1948V59.5034C90.9293 59.7342 90.7421 59.9214 90.5112 59.9214Z" fill="#FFC333"/>
<path d="M90.5113 55.7768H88.7617C88.9926 55.7768 89.1797 55.964 89.1797 56.1948V59.5034C89.1797 59.7342 88.9926 59.9214 88.7617 59.9214H90.5113C90.7422 59.9214 90.9294 59.7342 90.9294 59.5034V56.1948C90.9294 55.964 90.7422 55.7768 90.5113 55.7768Z" fill="#E8A400"/>
<path d="M90.5112 68.5294H87.2027C86.9719 68.5294 86.7847 68.3422 86.7847 68.1113V64.8028C86.7847 64.572 86.9719 64.3848 87.2027 64.3848H90.5112C90.7421 64.3848 90.9293 64.572 90.9293 64.8028V68.1113C90.9293 68.3422 90.7421 68.5294 90.5112 68.5294Z" fill="#FFC333"/>
<path d="M90.5113 64.3848H88.7617C88.9926 64.3848 89.1797 64.572 89.1797 64.8028V68.1113C89.1797 68.3422 88.9926 68.5294 88.7617 68.5294H90.5113C90.7422 68.5294 90.9294 68.3422 90.9294 68.1113V64.8028C90.9294 64.572 90.7422 64.3848 90.5113 64.3848Z" fill="#E8A400"/>
<path d="M53.1035 59.9214H49.795C49.5641 59.9214 49.377 59.7342 49.377 59.5034V56.1948C49.377 55.964 49.5641 55.7768 49.795 55.7768H53.1035C53.3344 55.7768 53.5216 55.964 53.5216 56.1948V59.5034C53.5216 59.7342 53.3344 59.9214 53.1035 59.9214Z" fill="#FFC333"/>
<path d="M53.1036 55.7768H51.3896C51.6205 55.7768 51.8077 55.964 51.8077 56.1948V59.5034C51.8077 59.7342 51.6205 59.9214 51.3896 59.9214H53.1036C53.3344 59.9214 53.5216 59.7342 53.5216 59.5034V56.1948C53.5216 55.964 53.3344 55.7768 53.1036 55.7768Z" fill="#E8A400"/>
<path d="M53.1035 68.5294H49.795C49.5641 68.5294 49.377 68.3422 49.377 68.1113V64.8028C49.377 64.572 49.5641 64.3848 49.795 64.3848H53.1035C53.3344 64.3848 53.5216 64.572 53.5216 64.8028V68.1113C53.5216 68.3422 53.3344 68.5294 53.1035 68.5294Z" fill="#FFC333"/>
<path d="M53.1036 64.3848H51.3896C51.6205 64.3848 51.8077 64.572 51.8077 64.8028V68.1113C51.8077 68.3422 51.6205 68.5294 51.3896 68.5294H53.1036C53.3344 68.5294 53.5216 68.3422 53.5216 68.1113V64.8028C53.5216 64.572 53.3344 64.3848 53.1036 64.3848Z" fill="#E8A400"/>
<path d="M51.7574 74.6613C51.411 74.6613 51.1304 74.942 51.1304 75.2883C51.1304 75.6346 51.411 75.9153 51.7574 75.9153H54.4354C54.7818 75.9153 55.0624 75.6346 55.0624 75.2883C55.0624 74.942 54.7818 74.6613 54.4354 74.6613H51.7574Z" fill="black"/>
<path d="M54.4354 76.8337H51.7574C51.411 76.8337 51.1304 77.1145 51.1304 77.4608C51.1304 77.8071 51.411 78.0878 51.7574 78.0878H54.4354C54.7818 78.0878 55.0624 77.8071 55.0624 77.4608C55.0624 77.1145 54.7817 76.8337 54.4354 76.8337Z" fill="black"/>
<path d="M53.0388 79.0062H51.7574C51.411 79.0062 51.1304 79.287 51.1304 79.6333C51.1304 79.9796 51.411 80.2603 51.7574 80.2603H53.0388C53.3851 80.2603 53.6658 79.9796 53.6658 79.6333C53.6658 79.287 53.3851 79.0062 53.0388 79.0062Z" fill="black"/>
<path d="M88.5487 74.6613H85.8707C85.5243 74.6613 85.2437 74.942 85.2437 75.2883C85.2437 75.6346 85.5243 75.9153 85.8707 75.9153H88.5487C88.8951 75.9153 89.1757 75.6346 89.1757 75.2883C89.1757 74.942 88.8951 74.6613 88.5487 74.6613Z" fill="black"/>
<path d="M88.5487 76.8337H85.8707C85.5243 76.8337 85.2437 77.1145 85.2437 77.4608C85.2437 77.8071 85.5243 78.0878 85.8707 78.0878H88.5487C88.8951 78.0878 89.1757 77.8071 89.1757 77.4608C89.1757 77.1145 88.8951 76.8337 88.5487 76.8337Z" fill="black"/>
<path d="M87.152 79.0062H85.8707C85.5243 79.0062 85.2437 79.287 85.2437 79.6333C85.2437 79.9796 85.5243 80.2603 85.8707 80.2603H87.152C87.4983 80.2603 87.779 79.9796 87.779 79.6333C87.779 79.287 87.4983 79.0062 87.152 79.0062Z" fill="black"/>
<path d="M85.8707 45.6557H88.5487C88.8951 45.6557 89.1757 45.375 89.1757 45.0287C89.1757 44.6824 88.8951 44.4016 88.5487 44.4016H85.8707C85.5243 44.4016 85.2437 44.6824 85.2437 45.0287C85.2437 45.375 85.5244 45.6557 85.8707 45.6557Z" fill="black"/>
<path d="M85.8707 47.8281H88.5487C88.8951 47.8281 89.1757 47.5474 89.1757 47.2011C89.1757 46.8548 88.8951 46.574 88.5487 46.574H85.8707C85.5243 46.574 85.2437 46.8548 85.2437 47.2011C85.2437 47.5474 85.5244 47.8281 85.8707 47.8281Z" fill="black"/>
<path d="M85.8707 50.0007H87.152C87.4983 50.0007 87.779 49.7199 87.779 49.3736C87.779 49.0273 87.4983 48.7466 87.152 48.7466H85.8707C85.5243 48.7466 85.2437 49.0273 85.2437 49.3736C85.2437 49.7199 85.5244 50.0007 85.8707 50.0007Z" fill="black"/>
<path d="M54.4354 44.4016H51.7574C51.411 44.4016 51.1304 44.6824 51.1304 45.0287C51.1304 45.375 51.411 45.6557 51.7574 45.6557H54.4354C54.7818 45.6557 55.0624 45.375 55.0624 45.0287C55.0624 44.6824 54.7817 44.4016 54.4354 44.4016Z" fill="black"/>
<path d="M54.4354 46.574H51.7574C51.411 46.574 51.1304 46.8548 51.1304 47.2011C51.1304 47.5474 51.411 47.8281 51.7574 47.8281H54.4354C54.7818 47.8281 55.0624 47.5474 55.0624 47.2011C55.0624 46.8548 54.7817 46.574 54.4354 46.574Z" fill="black"/>
<path d="M53.0388 48.7466H51.7574C51.411 48.7466 51.1304 49.0273 51.1304 49.3736C51.1304 49.7199 51.411 50.0007 51.7574 50.0007H53.0388C53.3851 50.0007 53.6658 49.7199 53.6658 49.3736C53.6658 49.0273 53.3851 48.7466 53.0388 48.7466Z" fill="black"/>
<path d="M63.9625 68.1818H71.8254C72.1718 68.1818 72.4524 67.9011 72.4524 67.5548C72.4524 67.2085 72.1718 66.9277 71.8254 66.9277H63.9625C63.6161 66.9277 63.3354 67.2085 63.3354 67.5548C63.3354 67.9011 63.6162 68.1818 63.9625 68.1818Z" fill="black"/>
<path d="M76.4681 66.9277H73.9991C73.6527 66.9277 73.3721 67.2085 73.3721 67.5548C73.3721 67.9011 73.6527 68.1818 73.9991 68.1818H76.4681C76.8145 68.1818 77.0951 67.9011 77.0951 67.5548C77.0951 67.2085 76.8145 66.9277 76.4681 66.9277Z" fill="black"/>
<path d="M65.5954 60.9289C65.249 60.9289 64.9684 61.2096 64.9684 61.5559V64.5867H63.9625C63.6161 64.5867 63.3354 64.8675 63.3354 65.2138C63.3354 65.56 63.6161 65.8408 63.9625 65.8408H76.4681C76.8145 65.8408 77.0951 65.56 77.0951 65.2138C77.0951 64.8675 76.8145 64.5867 76.4681 64.5867H75.4622V63.0489C75.4622 62.7026 75.1816 62.4218 74.8352 62.4218C74.4888 62.4218 74.2082 62.7026 74.2082 63.0489V64.5867H72.3823V60.063C72.3823 59.7167 72.1016 59.4359 71.7552 59.4359C71.4089 59.4359 71.1282 59.7167 71.1282 60.063V64.5868H69.3024V62.3025C69.3024 61.9562 69.0217 61.6755 68.6754 61.6755C68.329 61.6755 68.0483 61.9562 68.0483 62.3025V64.5868H66.2224V61.556C66.2224 61.2096 65.9418 60.9289 65.5954 60.9289Z" fill="black"/>
<path d="M91.2502 43.3501L89.7533 41.8532C89.5559 41.6558 89.2935 41.5471 89.0143 41.5471H83.9083C83.332 41.5471 82.8632 42.0159 82.8632 42.5922V46.3294H74.3828C73.3456 46.3294 72.5017 47.1732 72.5017 48.2105V53.237H67.8045V48.2104C67.8045 47.1731 66.9606 46.3293 65.9234 46.3293H62.545C62.1986 46.3293 61.9179 46.61 61.9179 46.9563C61.9179 47.3026 62.1986 47.5834 62.545 47.5834H65.9234C66.2692 47.5834 66.5505 47.8646 66.5505 48.2104V53.2369H62.2106C61.4038 53.2369 60.7475 53.8933 60.7475 54.7V57.5835V69.6063C60.7475 70.413 61.4038 71.0694 62.2106 71.0694H66.5505V76.0959C66.5505 76.4417 66.2692 76.723 65.9234 76.723H57.4431V74.3487C57.4431 74.0697 57.3344 73.8072 57.137 73.6098L55.6403 72.113C55.443 71.9156 55.1805 71.8068 54.9012 71.8068H49.7951C49.2188 71.8068 48.75 72.2756 48.75 72.8519V81.7143C48.75 82.2906 49.2188 82.7593 49.7951 82.7593H56.398C56.9743 82.7593 57.4431 82.2906 57.4431 81.7143V77.9771H65.9235C66.9607 77.9771 67.8046 77.1332 67.8046 76.0959V71.0694H68.69C69.0364 71.0694 69.3171 70.7886 69.3171 70.4423C69.3171 70.096 69.0364 69.8153 68.69 69.8153H62.2106C62.0953 69.8153 62.0015 69.7215 62.0015 69.6063V58.2105H78.3047V69.6063C78.3047 69.7215 78.211 69.8153 78.0957 69.8153H71.6162C71.2698 69.8153 70.9892 70.096 70.9892 70.4423C70.9892 70.7886 71.2698 71.0694 71.6162 71.0694H72.5017V76.0959C72.5017 77.1332 73.3456 77.9771 74.3828 77.9771H82.8632V81.7143C82.8632 82.2906 83.332 82.7593 83.9083 82.7593H90.5112C91.0875 82.7593 91.5562 82.2906 91.5562 81.7143V74.3487C91.5562 74.0695 91.4475 73.8071 91.2502 73.6098L89.7532 72.1128C89.5558 71.9155 89.2934 71.8068 89.0143 71.8068H83.9083C83.332 71.8068 82.8632 72.2756 82.8632 72.8519V76.723H74.3828C74.037 76.723 73.7558 76.4417 73.7558 76.0959V71.0694H78.0957C78.9024 71.0694 79.5588 70.413 79.5588 69.6063V57.5835V54.7C79.5588 53.8933 78.9024 53.2369 78.0957 53.2369H73.7558V48.2104C73.7558 47.8646 74.037 47.5834 74.3828 47.5834H82.8632V47.8565C82.8632 48.2028 83.1439 48.4836 83.4903 48.4836C83.8367 48.4836 84.1173 48.2028 84.1173 47.8565V42.8011H88.9277L90.3022 44.1756V51.2455H84.1172V50.7827C84.1172 50.4364 83.8366 50.1557 83.4902 50.1557C83.1438 50.1557 82.8632 50.4364 82.8632 50.7827V51.4545C82.8632 52.0308 83.3319 52.4996 83.9082 52.4996H90.5112C91.0875 52.4996 91.5562 52.0308 91.5562 51.4545V44.0891C91.5562 43.8099 91.4475 43.5475 91.2502 43.3501ZM56.189 81.5052H50.0041V73.0608H54.8145L56.1889 74.4351L56.189 81.5052ZM84.1172 73.0608H88.9277L90.3022 74.4352V81.5051H84.1172V73.0608ZM64.3425 56.9564H62.0015V54.7C62.0015 54.5848 62.0953 54.491 62.2106 54.491H64.3425V56.9564ZM78.0957 54.491C78.211 54.491 78.3047 54.5848 78.3047 54.7V56.9564H65.5966V54.491H78.0957Z" fill="black"/>
<path d="M90.5113 55.1498H87.2028C86.6265 55.1498 86.1577 55.6186 86.1577 56.1949V59.5034C86.1577 60.0797 86.6265 60.5485 87.2028 60.5485H90.5113C91.0876 60.5485 91.5564 60.0797 91.5564 59.5034V56.1949C91.5564 55.6186 91.0876 55.1498 90.5113 55.1498ZM90.3023 59.2944H87.4118V56.4039H90.3023V59.2944Z" fill="black"/>
<path d="M90.5113 63.7578H87.2028C86.6265 63.7578 86.1577 64.2265 86.1577 64.8028V68.1114C86.1577 68.6877 86.6265 69.1564 87.2028 69.1564H90.5113C91.0876 69.1564 91.5564 68.6877 91.5564 68.1114V64.8028C91.5564 64.2265 91.0876 63.7578 90.5113 63.7578ZM90.3023 67.9023H87.4118V65.0118H90.3023V67.9023Z" fill="black"/>
<path d="M49.7951 52.4995H56.398C56.9743 52.4995 57.4431 52.0308 57.4431 51.4545V47.5833H59.6188C59.9652 47.5833 60.2458 47.3026 60.2458 46.9563C60.2458 46.61 59.9652 46.3293 59.6188 46.3293H57.4431V44.089C57.4431 43.8099 57.3344 43.5474 57.1371 43.35L55.6401 41.8531C55.4427 41.6557 55.1803 41.547 54.9011 41.547H49.7951C49.2188 41.547 48.75 42.0158 48.75 42.5921V51.4545C48.75 52.0308 49.2188 52.4995 49.7951 52.4995ZM50.0041 42.8011H54.8145L56.1889 44.1755V51.2455H50.0041V42.8011Z" fill="black"/>
<path d="M49.7951 60.5485H53.1036C53.6799 60.5485 54.1487 60.0797 54.1487 59.5034V56.1949C54.1487 55.6186 53.6799 55.1498 53.1036 55.1498H49.7951C49.2188 55.1498 48.75 55.6186 48.75 56.1949V59.5034C48.75 60.0797 49.2188 60.5485 49.7951 60.5485ZM50.0041 56.4039H52.8946V59.2944H50.0041V56.4039Z" fill="black"/>
<path d="M49.7951 69.1564H53.1036C53.6799 69.1564 54.1487 68.6877 54.1487 68.1114V64.8028C54.1487 64.2265 53.6799 63.7578 53.1036 63.7578H49.7951C49.2188 63.7578 48.75 64.2265 48.75 64.8028V68.1114C48.75 68.6877 49.2188 69.1564 49.7951 69.1564ZM50.0041 65.0118H52.8946V67.9023H50.0041V65.0118Z" fill="black"/>
</g>
<defs>
<filter id="filter0_d_200_247" x="-1.78318" y="-4.33464" width="152.647" height="152.647" filterUnits="userSpaceOnUse" color-interpolation-filters="sRGB">
<feFlood flood-opacity="0" result="BackgroundImageFix"/>
<feColorMatrix in="SourceAlpha" type="matrix" values="0 0 0 0 0 0 0 0 0 0 0 0 0 0 0 0 0 0 127 0" result="hardAlpha"/>
<feOffset dx="4.54045" dy="9.989"/>
<feGaussianBlur stdDeviation="18.1618"/>
<feComposite in2="hardAlpha" operator="out"/>
<feColorMatrix type="matrix" values="0 0 0 0 0.130044 0 0 0 0 0.396943 0 0 0 0 0.687863 0 0 0 0.07 0"/>
<feBlend mode="normal" in2="BackgroundImageFix" result="effect1_dropShadow_200_247"/>
<feBlend mode="normal" in="SourceGraphic" in2="effect1_dropShadow_200_247" result="shape"/>
</filter>
<clipPath id="clip0_200_247">
<rect width="42.8062" height="42.8062" fill="white" transform="translate(48.75 40.75)"/>
</clipPath>
</defs>
</svg>
