<svg width="69" height="69" viewBox="0 0 69 69" fill="none" xmlns="http://www.w3.org/2000/svg">
<g clip-path="url(#clip0_15_13872)">
<path d="M9.84173 50.694H1.67202C1.30268 50.694 1.00317 50.9935 1.00317 51.3628V65.5427C1.00317 65.912 1.30268 66.2115 1.67202 66.2115H12.2367C12.6061 66.2115 12.9056 65.912 12.9056 65.5427V53.7578C12.9056 53.5804 12.8351 53.4103 12.7097 53.2848L10.3147 50.8898C10.1893 50.7643 10.0191 50.694 9.84173 50.694Z" fill="#FFC333"/>
<path d="M12.7097 53.2848L10.3146 50.8898C10.1892 50.7643 10.0191 50.694 9.84163 50.694H5.6311C5.80848 50.694 5.97864 50.7645 6.10398 50.8898L8.49899 53.2848C8.62446 53.4103 8.69483 53.5803 8.69483 53.7578V65.5427C8.69483 65.912 8.39532 66.2115 8.02598 66.2115H12.2366C12.606 66.2115 12.9055 65.912 12.9055 65.5427V53.7578C12.9056 53.5804 12.8351 53.4103 12.7097 53.2848Z" fill="#E8A400"/>
<path d="M64.4228 50.694H56.2531C55.8837 50.694 55.5842 50.9935 55.5842 51.3628V65.5427C55.5842 65.912 55.8837 66.2115 56.2531 66.2115H66.8178C67.1871 66.2115 67.4866 65.912 67.4866 65.5427V53.7578C67.4866 53.5804 67.4161 53.4103 67.2908 53.2848L64.8958 50.8898C64.7703 50.7643 64.6002 50.694 64.4228 50.694Z" fill="#FFC333"/>
<path d="M67.2909 53.2848L64.8958 50.8898C64.7704 50.7643 64.6003 50.694 64.423 50.694H60.2092C60.3866 50.694 60.5568 50.7645 60.6821 50.8898L63.0771 53.2848C63.2026 53.4103 63.273 53.5803 63.273 53.7578V65.5427C63.273 65.912 62.9734 66.2115 62.6041 66.2115H66.8178C67.1872 66.2115 67.4867 65.912 67.4867 65.5427V53.7578C67.4867 53.5804 67.4162 53.4103 67.2909 53.2848Z" fill="#E8A400"/>
<path d="M64.4228 2.2785H56.2531C55.8837 2.2785 55.5842 2.57801 55.5842 2.94735V17.1272C55.5842 17.4965 55.8837 17.796 56.2531 17.796H66.8178C67.1871 17.796 67.4866 17.4965 67.4866 17.1272V5.34236C67.4866 5.16498 67.4161 4.99483 67.2908 4.86935L64.8958 2.47434C64.7703 2.349 64.6002 2.2785 64.4228 2.2785Z" fill="#FFC333"/>
<path d="M67.2909 4.86947L64.8958 2.47446C64.7704 2.34899 64.6003 2.27863 64.423 2.27863H60.2092C60.3866 2.27863 60.5568 2.34912 60.6821 2.47446L63.0771 4.86947C63.2026 4.99495 63.273 5.16497 63.273 5.34248V17.1273C63.273 17.4966 62.9734 17.7962 62.6041 17.7962H66.8178C67.1872 17.7962 67.4867 17.4966 67.4867 17.1273V5.34235C67.4867 5.16497 67.4162 4.99482 67.2909 4.86947Z" fill="#FFC333"/>
<path d="M9.84173 2.2785H1.67202C1.30268 2.2785 1.00317 2.57801 1.00317 2.94735V17.1272C1.00317 17.4965 1.30268 17.796 1.67202 17.796H12.2367C12.6061 17.796 12.9056 17.4965 12.9056 17.1272V5.34236C12.9056 5.16498 12.8351 4.99483 12.7097 4.86935L10.3146 2.47448C10.1893 2.349 10.0191 2.2785 9.84173 2.2785Z" fill="#FFC333"/>
<path d="M12.7097 4.86947L10.3146 2.47446C10.1892 2.34899 10.0191 2.27863 9.84163 2.27863H5.6311C5.80848 2.27863 5.97864 2.34912 6.10398 2.47446L8.49899 4.86947C8.62446 4.99482 8.69496 5.16497 8.69496 5.34235V17.1272C8.69496 17.4965 8.39545 17.796 8.02611 17.796H12.2368C12.6061 17.796 12.9056 17.4965 12.9056 17.1272V5.34235C12.9056 5.16497 12.8351 4.99482 12.7097 4.86947Z" fill="#E8A400"/>
<path d="M20.1992 26.7997V46.17C20.1992 46.9088 20.7981 47.5077 21.5369 47.5077H46.9531C47.6919 47.5077 48.2908 46.9088 48.2908 46.17V26.7997H20.1992Z" fill="#F9F3F1"/>
<path d="M44.2776 26.7997V46.17C44.2776 46.9088 43.6788 47.5077 42.9399 47.5077H46.953C47.6918 47.5077 48.2907 46.9088 48.2907 46.17V26.7997H44.2776Z" fill="#F3EAE6"/>
<path d="M48.2908 26.9335H20.1992V22.3201C20.1992 21.5812 20.7981 20.9824 21.5369 20.9824H46.9531C47.6919 20.9824 48.2908 21.5812 48.2908 22.3201V26.9335Z" fill="#33B8F1"/>
<path d="M46.953 20.9822H42.9399C43.6788 20.9822 44.2776 21.5811 44.2776 22.3199V26.9334H48.2907V22.3199C48.2907 21.5811 47.6918 20.9822 46.953 20.9822Z" fill="#0593FC"/>
<path d="M66.818 30.6743H61.5243C61.155 30.6743 60.8555 30.3748 60.8555 30.0054V24.7118C60.8555 24.3424 61.155 24.0429 61.5243 24.0429H66.818C67.1873 24.0429 67.4868 24.3424 67.4868 24.7118V30.0054C67.4868 30.3748 67.1873 30.6743 66.818 30.6743Z" fill="#FFC333"/>
<path d="M66.8179 24.0429H64.0186C64.3879 24.0429 64.6874 24.3424 64.6874 24.7118V30.0054C64.6874 30.3748 64.3879 30.6743 64.0186 30.6743H66.8179C67.1873 30.6743 67.4868 30.3748 67.4868 30.0054V24.7118C67.4868 24.3424 67.1873 24.0429 66.8179 24.0429Z" fill="#E8A400"/>
<path d="M66.818 44.447H61.5243C61.155 44.447 60.8555 44.1475 60.8555 43.7782V38.4845C60.8555 38.1152 61.155 37.8157 61.5243 37.8157H66.818C67.1873 37.8157 67.4868 38.1152 67.4868 38.4845V43.7782C67.4868 44.1475 67.1873 44.447 66.818 44.447Z" fill="#FFC333"/>
<path d="M66.8179 37.8157H64.0186C64.3879 37.8157 64.6874 38.1152 64.6874 38.4845V43.7782C64.6874 44.1475 64.3879 44.447 64.0186 44.447H66.8179C67.1873 44.447 67.4868 44.1475 67.4868 43.7782V38.4845C67.4868 38.1152 67.1873 37.8157 66.8179 37.8157Z" fill="#E8A400"/>
<path d="M6.96568 30.6743H1.67202C1.30268 30.6743 1.00317 30.3748 1.00317 30.0054V24.7118C1.00317 24.3424 1.30268 24.0429 1.67202 24.0429H6.96568C7.33502 24.0429 7.63453 24.3424 7.63453 24.7118V30.0054C7.63453 30.3748 7.33502 30.6743 6.96568 30.6743Z" fill="#FFC333"/>
<path d="M6.96566 24.0429H4.22339C4.59273 24.0429 4.89224 24.3424 4.89224 24.7118V30.0054C4.89224 30.3748 4.59273 30.6743 4.22339 30.6743H6.96566C7.335 30.6743 7.63451 30.3748 7.63451 30.0054V24.7118C7.63451 24.3424 7.335 24.0429 6.96566 24.0429Z" fill="#E8A400"/>
<path d="M6.96568 44.447H1.67202C1.30268 44.447 1.00317 44.1475 1.00317 43.7782V38.4845C1.00317 38.1152 1.30268 37.8157 1.67202 37.8157H6.96568C7.33502 37.8157 7.63453 38.1152 7.63453 38.4845V43.7782C7.63453 44.1475 7.33502 44.447 6.96568 44.447Z" fill="#FFC333"/>
<path d="M6.96566 37.8157H4.22339C4.59273 37.8157 4.89224 38.1152 4.89224 38.4845V43.7782C4.89224 44.1475 4.59273 44.447 4.22339 44.447H6.96566C7.335 44.447 7.63451 44.1475 7.63451 43.7782V38.4845C7.63451 38.1152 7.335 37.8157 6.96566 37.8157Z" fill="#E8A400"/>
<path d="M4.81211 54.258C4.2579 54.258 3.80884 54.7072 3.80884 55.2613C3.80884 55.8153 4.2579 56.2645 4.81211 56.2645H9.09688C9.65109 56.2645 10.1002 55.8153 10.1002 55.2613C10.1002 54.7072 9.65109 54.258 9.09688 54.258H4.81211Z" fill="black"/>
<path d="M9.09688 57.7339H4.81211C4.2579 57.7339 3.80884 58.1831 3.80884 58.7372C3.80884 59.2913 4.2579 59.7405 4.81211 59.7405H9.09688C9.65109 59.7405 10.1002 59.2913 10.1002 58.7372C10.1002 58.1831 9.65095 57.7339 9.09688 57.7339Z" fill="black"/>
<path d="M6.86226 61.21H4.81211C4.2579 61.21 3.80884 61.6592 3.80884 62.2132C3.80884 62.7673 4.2579 63.2165 4.81211 63.2165H6.86226C7.41647 63.2165 7.86553 62.7673 7.86553 62.2132C7.86553 61.6592 7.41633 61.21 6.86226 61.21Z" fill="black"/>
<path d="M63.6779 54.258H59.3932C58.839 54.258 58.3899 54.7072 58.3899 55.2613C58.3899 55.8153 58.839 56.2645 59.3932 56.2645H63.6779C64.2321 56.2645 64.6812 55.8153 64.6812 55.2613C64.6812 54.7072 64.2321 54.258 63.6779 54.258Z" fill="black"/>
<path d="M63.6779 57.7339H59.3932C58.839 57.7339 58.3899 58.1831 58.3899 58.7372C58.3899 59.2913 58.839 59.7405 59.3932 59.7405H63.6779C64.2321 59.7405 64.6812 59.2913 64.6812 58.7372C64.6812 58.1831 64.2321 57.7339 63.6779 57.7339Z" fill="black"/>
<path d="M61.4432 61.21H59.3932C58.839 61.21 58.3899 61.6592 58.3899 62.2132C58.3899 62.7673 58.839 63.2165 59.3932 63.2165H61.4432C61.9974 63.2165 62.4465 62.7673 62.4465 62.2132C62.4465 61.6592 61.9974 61.21 61.4432 61.21Z" fill="black"/>
<path d="M59.3932 7.84919H63.6779C64.2321 7.84919 64.6812 7.4 64.6812 6.84592C64.6812 6.29185 64.2321 5.84265 63.6779 5.84265H59.3932C58.839 5.84265 58.3899 6.29185 58.3899 6.84592C58.3899 7.4 58.8391 7.84919 59.3932 7.84919Z" fill="black"/>
<path d="M59.3932 11.325H63.6779C64.2321 11.325 64.6812 10.8758 64.6812 10.3218C64.6812 9.76768 64.2321 9.31848 63.6779 9.31848H59.3932C58.839 9.31848 58.3899 9.76768 58.3899 10.3218C58.3899 10.8758 58.8391 11.325 59.3932 11.325Z" fill="black"/>
<path d="M59.3932 14.801H61.4432C61.9974 14.801 62.4465 14.3518 62.4465 13.7978C62.4465 13.2437 61.9974 12.7945 61.4432 12.7945H59.3932C58.839 12.7945 58.3899 13.2437 58.3899 13.7978C58.3899 14.3518 58.8391 14.801 59.3932 14.801Z" fill="black"/>
<path d="M9.09688 5.84265H4.81211C4.2579 5.84265 3.80884 6.29185 3.80884 6.84592C3.80884 7.4 4.2579 7.84919 4.81211 7.84919H9.09688C9.65109 7.84919 10.1002 7.4 10.1002 6.84592C10.1002 6.29185 9.65095 5.84265 9.09688 5.84265Z" fill="black"/>
<path d="M9.09688 9.31848H4.81211C4.2579 9.31848 3.80884 9.76768 3.80884 10.3218C3.80884 10.8758 4.2579 11.325 4.81211 11.325H9.09688C9.65109 11.325 10.1002 10.8758 10.1002 10.3218C10.1002 9.76768 9.65095 9.31848 9.09688 9.31848Z" fill="black"/>
<path d="M6.86226 12.7945H4.81211C4.2579 12.7945 3.80884 13.2437 3.80884 13.7978C3.80884 14.3518 4.2579 14.801 4.81211 14.801H6.86226C7.41647 14.801 7.86553 14.3518 7.86553 13.7978C7.86553 13.2437 7.41633 12.7945 6.86226 12.7945Z" fill="black"/>
<path d="M24.3397 43.8909H36.9203C37.4745 43.8909 37.9236 43.4417 37.9236 42.8877C37.9236 42.3336 37.4745 41.8844 36.9203 41.8844H24.3397C23.7855 41.8844 23.3364 42.3336 23.3364 42.8877C23.3364 43.4417 23.7856 43.8909 24.3397 43.8909Z" fill="black"/>
<path d="M44.3486 41.8844H40.3983C39.8441 41.8844 39.395 42.3336 39.395 42.8877C39.395 43.4417 39.8441 43.8909 40.3983 43.8909H44.3486C44.9028 43.8909 45.3519 43.4417 45.3519 42.8877C45.3519 42.3336 44.9028 41.8844 44.3486 41.8844Z" fill="black"/>
<path d="M26.9523 32.2862C26.3981 32.2862 25.9491 32.7354 25.9491 33.2895V38.1387H24.3397C23.7855 38.1387 23.3364 38.5879 23.3364 39.142C23.3364 39.6961 23.7855 40.1453 24.3397 40.1453H44.3487C44.9029 40.1453 45.3519 39.6961 45.3519 39.142C45.3519 38.5879 44.9029 38.1387 44.3487 38.1387H42.7393V35.6782C42.7393 35.1241 42.2902 34.6749 41.736 34.6749C41.1818 34.6749 40.7328 35.1241 40.7328 35.6782V38.1387H37.8114V30.9007C37.8114 30.3467 37.3623 29.8975 36.8081 29.8975C36.2539 29.8975 35.8048 30.3467 35.8048 30.9007V38.1389H32.8836V34.484C32.8836 33.9299 32.4345 33.4807 31.8803 33.4807C31.3261 33.4807 30.877 33.9299 30.877 34.484V38.1389H27.9556V33.2896C27.9556 32.7354 27.5066 32.2862 26.9523 32.2862Z" fill="black"/>
<path d="M68.0003 4.16007L65.6053 1.76506C65.2894 1.44923 64.8695 1.27533 64.4229 1.27533H56.2533C55.3312 1.27533 54.5812 2.02538 54.5812 2.94745V8.92695H41.0125C39.353 8.92695 38.0027 10.2771 38.0027 11.9368V19.9791H30.4873V11.9366C30.4873 10.2769 29.137 8.92681 27.4775 8.92681H22.072C21.5178 8.92681 21.0687 9.37601 21.0687 9.93009C21.0687 10.4842 21.5178 10.9334 22.072 10.9334H27.4775C28.0307 10.9334 28.4807 11.3834 28.4807 11.9366V19.979H21.5369C20.2462 19.979 19.1959 21.0292 19.1959 22.32V26.9335V46.17C19.1959 47.4607 20.2462 48.511 21.5369 48.511H28.4807V56.5534C28.4807 57.1067 28.0307 57.5567 27.4775 57.5567H13.909V53.7579C13.909 53.3114 13.7351 52.8915 13.4192 52.5755L11.0245 50.1808C10.7088 49.8648 10.2887 49.6908 9.84196 49.6908H1.67212C0.750046 49.6908 0 50.4408 0 51.3629V65.5428C0 66.4648 0.750046 67.2149 1.67212 67.2149H12.2368C13.1589 67.2149 13.909 66.4648 13.909 65.5428V59.5633H27.4776C29.1371 59.5633 30.4874 58.2131 30.4874 56.5534V48.511H31.904C32.4582 48.511 32.9073 48.0618 32.9073 47.5077C32.9073 46.9536 32.4582 46.5044 31.904 46.5044H21.5369C21.3524 46.5044 21.2025 46.3543 21.2025 46.17V27.9368H47.2875V46.17C47.2875 46.3543 47.1376 46.5044 46.9531 46.5044H36.586C36.0318 46.5044 35.5827 46.9536 35.5827 47.5077C35.5827 48.0618 36.0318 48.511 36.586 48.511H38.0027V56.5534C38.0027 58.2131 39.353 59.5633 41.0125 59.5633H54.5812V65.5428C54.5812 66.4648 55.3312 67.2149 56.2533 67.2149H66.8179C67.74 67.2149 68.49 66.4648 68.49 65.5428V53.7579C68.49 53.3111 68.316 52.8912 68.0003 52.5755L65.6051 50.1804C65.2893 49.8647 64.8694 49.6908 64.4229 49.6908H56.2533C55.3312 49.6908 54.5812 50.4408 54.5812 51.3629V57.5567H41.0125C40.4593 57.5567 40.0093 57.1067 40.0093 56.5534V48.511H46.9531C48.2438 48.511 49.2941 47.4607 49.2941 46.17V26.9335V22.32C49.2941 21.0292 48.2438 19.979 46.9531 19.979H40.0093V11.9366C40.0093 11.3834 40.4593 10.9334 41.0125 10.9334H54.5812V11.3704C54.5812 11.9245 55.0302 12.3737 55.5844 12.3737C56.1387 12.3737 56.5877 11.9245 56.5877 11.3704V3.28174H64.2843L66.4835 5.48091V16.7927H56.5876V16.0523C56.5876 15.4982 56.1385 15.049 55.5843 15.049C55.0301 15.049 54.581 15.4982 54.581 16.0523V17.1272C54.581 18.0492 55.3311 18.7993 56.2532 18.7993H66.8179C67.74 18.7993 68.49 18.0492 68.49 17.1272V5.34246C68.49 4.8958 68.316 4.4759 68.0003 4.16007ZM11.9024 65.2082H2.00654V51.6972H9.70324L11.9023 53.8961L11.9024 65.2082ZM56.5876 51.6972H64.2843L66.4835 53.8962V65.2081H56.5876V51.6972ZM24.948 25.9303H21.2025V22.32C21.2025 22.1356 21.3524 21.9855 21.5369 21.9855H24.948V25.9303ZM46.9531 21.9855C47.1376 21.9855 47.2875 22.1356 47.2875 22.32V25.9303H26.9546V21.9855H46.9531Z" fill="black"/>
<path d="M66.8178 23.0397H61.5242C60.6021 23.0397 59.8521 23.7897 59.8521 24.7118V30.0055C59.8521 30.9275 60.6021 31.6776 61.5242 31.6776H66.8178C67.7399 31.6776 68.49 30.9275 68.49 30.0055V24.7118C68.49 23.7897 67.7399 23.0397 66.8178 23.0397ZM66.4834 29.671H61.8586V25.0462H66.4834V29.671Z" fill="black"/>
<path d="M66.8178 36.8124H61.5242C60.6021 36.8124 59.8521 37.5625 59.8521 38.4846V43.7782C59.8521 44.7003 60.6021 45.4503 61.5242 45.4503H66.8178C67.7399 45.4503 68.49 44.7003 68.49 43.7782V38.4846C68.49 37.5625 67.7399 36.8124 66.8178 36.8124ZM66.4834 43.4438H61.8586V38.819H66.4834V43.4438Z" fill="black"/>
<path d="M1.67212 18.7993H12.2368C13.1589 18.7993 13.909 18.0492 13.909 17.1272V10.9334H17.39C17.9442 10.9334 18.3933 10.4842 18.3933 9.9301C18.3933 9.37602 17.9442 8.92682 17.39 8.92682H13.909V5.34247C13.909 4.89581 13.7351 4.47578 13.4194 4.16008L11.0242 1.76494C10.7084 1.44911 10.2885 1.27521 9.84183 1.27521H1.67212C0.750046 1.27521 0 2.02525 0 2.94733V17.1272C0 18.0492 0.750046 18.7993 1.67212 18.7993ZM2.00654 3.28175H9.70324L11.9023 5.48079V16.7927H2.00654V3.28175Z" fill="black"/>
<path d="M1.67212 31.6776H6.96578C7.88785 31.6776 8.6379 30.9275 8.6379 30.0055V24.7118C8.6379 23.7897 7.88785 23.0397 6.96578 23.0397H1.67212C0.750046 23.0397 0 23.7897 0 24.7118V30.0055C0 30.9275 0.750046 31.6776 1.67212 31.6776ZM2.00654 25.0462H6.63136V29.671H2.00654V25.0462Z" fill="black"/>
<path d="M1.67212 45.4503H6.96578C7.88785 45.4503 8.6379 44.7003 8.6379 43.7782V38.4846C8.6379 37.5625 7.88785 36.8124 6.96578 36.8124H1.67212C0.750046 36.8124 0 37.5625 0 38.4846V43.7782C0 44.7003 0.750046 45.4503 1.67212 45.4503ZM2.00654 38.819H6.63136V43.4438H2.00654V38.819Z" fill="black"/>
</g>
<defs>
<clipPath id="clip0_15_13872">
<rect width="68.49" height="68.49" fill="white"/>
</clipPath>
</defs>
</svg>
