<svg width="151" height="123" viewBox="0 0 151 123" fill="none" xmlns="http://www.w3.org/2000/svg">
<g filter="url(#filter0_d_200_520)">
<circle cx="70" cy="62" r="40" fill="white"/>
<circle cx="70" cy="62" r="39.546" stroke="#D6DCE5" stroke-width="0.908091"/>
</g>
<g clip-path="url(#clip0_200_520)">
<path fill-rule="evenodd" clip-rule="evenodd" d="M70.1563 46.084C71.4397 46.084 72.4889 45.0348 72.4889 43.7514C72.4889 42.4656 71.4397 41.4188 70.1563 41.4188C68.8705 41.4188 67.8237 42.4656 67.8237 43.7514C67.8237 45.0348 68.8705 46.084 70.1563 46.084Z" fill="#E84663"/>
<path fill-rule="evenodd" clip-rule="evenodd" d="M54.2169 55.2815C55.5027 55.2815 56.5495 54.2348 56.5495 52.9489C56.5495 51.6656 55.5027 50.6163 54.2169 50.6163C52.9335 50.6163 51.8843 51.6656 51.8843 52.9489C51.8843 54.2348 52.9335 55.2815 54.2169 55.2815Z" fill="#E84663"/>
<path fill-rule="evenodd" clip-rule="evenodd" d="M54.2144 73.6832C55.5003 73.6832 56.547 72.6365 56.547 71.3506C56.547 70.0673 55.5003 69.018 54.2144 69.018C52.9311 69.018 51.8818 70.0673 51.8818 71.3506C51.8818 72.6365 52.9311 73.6832 54.2144 73.6832Z" fill="#E84663"/>
<path fill-rule="evenodd" clip-rule="evenodd" d="M70.1515 82.8874C71.4348 82.8874 72.4841 81.8381 72.4841 80.5548C72.4841 79.2689 71.4348 78.2222 70.1515 78.2222C68.8656 78.2222 67.8188 79.2689 67.8188 80.5548C67.8188 81.8381 68.8656 82.8874 70.1515 82.8874Z" fill="#E84663"/>
<path fill-rule="evenodd" clip-rule="evenodd" d="M86.0885 73.6874C87.3718 73.6874 88.4211 72.6406 88.4211 71.3548C88.4211 70.0714 87.3718 69.0222 86.0885 69.0222C84.8026 69.0222 83.7559 70.0714 83.7559 71.3548C83.7559 72.6398 84.8026 73.6874 86.0885 73.6874Z" fill="#E84663"/>
<path fill-rule="evenodd" clip-rule="evenodd" d="M86.0909 55.2857C87.3743 55.2857 88.4235 54.239 88.4235 52.9531C88.4235 51.6697 87.3743 50.6205 86.0909 50.6205C84.805 50.6205 83.7583 51.6697 83.7583 52.9531C83.7583 54.239 84.805 55.2857 86.0909 55.2857Z" fill="#E84663"/>
<path fill-rule="evenodd" clip-rule="evenodd" d="M76.6415 66.7046C76.6415 68.4177 73.7345 69.8039 70.1529 69.803C66.5687 69.8022 63.665 68.4152 63.665 66.7029L63.6659 57.5999L76.6424 57.6016L76.6415 66.7046Z" fill="#FFC333"/>
<path fill-rule="evenodd" clip-rule="evenodd" d="M65.1365 68.6685C64.216 68.1334 63.665 67.4495 63.665 66.7029L63.6659 57.5999H65.1373L65.1365 68.6685Z" fill="#E8A400"/>
<path fill-rule="evenodd" clip-rule="evenodd" d="M76.6425 62.1723C76.6425 63.8854 73.7355 65.2716 70.1538 65.2708C66.5697 65.2699 63.666 63.8829 63.666 62.1707L63.6669 57.5999L76.6433 57.6016L76.6425 62.1723Z" fill="#E8A400"/>
<path fill-rule="evenodd" clip-rule="evenodd" d="M65.1375 64.1387C64.217 63.6037 63.666 62.9198 63.666 62.1707L63.6669 57.5999H65.1383L65.1375 64.1387Z" fill="#FFC333"/>
<path fill-rule="evenodd" clip-rule="evenodd" d="M70.1548 60.7C73.7273 60.7008 76.6435 59.3096 76.6435 57.6016C76.6435 55.896 73.7281 54.504 70.1557 54.504C66.5807 54.5031 63.667 55.8943 63.667 57.6007C63.6662 59.308 66.5798 60.6992 70.1548 60.7Z" fill="#FFC333"/>
<path fill-rule="evenodd" clip-rule="evenodd" d="M70.1558 54.5032C70.3581 54.5032 70.5579 54.5082 70.7569 54.5174C67.4553 54.662 64.8702 55.9863 64.8702 57.5999C64.8702 59.216 67.4553 60.5412 70.7569 60.6867C70.5571 60.6959 70.3573 60.7 70.1558 60.7C66.5716 60.6992 63.668 59.3122 63.668 57.5999C63.6671 55.8894 66.5716 54.5023 70.1558 54.5032Z" fill="#E8A400"/>
<path d="M86.7591 68.4278V55.8785C88.0926 55.5734 89.0909 54.3778 89.0909 52.9532C89.0909 51.2969 87.7448 49.9492 86.0894 49.9492C85.2224 49.9492 84.4407 50.3196 83.8922 50.9098L78.457 47.7704L73.0235 44.6335C73.1096 44.3543 73.1564 44.0575 73.1564 43.7498C73.1564 42.0944 71.8103 40.7484 70.1549 40.7484C68.4987 40.7484 67.151 42.0944 67.151 43.7498C67.151 44.0575 67.1978 44.3534 67.2839 44.6335L61.8504 47.7704L56.416 50.909C55.8675 50.3187 55.085 49.9492 54.2171 49.9492C52.5617 49.9492 51.2157 51.2969 51.2157 52.9532C51.2157 54.3778 52.2139 55.5734 53.5475 55.8785V68.4278C52.2131 68.7329 51.2148 69.9285 51.2148 71.3531C51.2148 73.0085 52.5609 74.3546 54.2163 74.3546C55.0841 74.3546 55.8667 73.9842 56.4151 73.3948L61.8495 76.5334L67.2831 79.6703C67.197 79.9495 67.1501 80.2463 67.1501 80.5531C67.1501 82.2094 68.4979 83.5571 70.1541 83.5571C71.8095 83.5571 73.1556 82.2094 73.1556 80.5531C73.1556 80.2455 73.1087 79.9495 73.0226 79.6694L78.457 76.5334L83.8922 73.3948C84.4407 73.9851 85.2232 74.3554 86.0902 74.3554C87.7456 74.3554 89.0917 73.0094 89.0917 71.354C89.0917 69.9285 88.0934 68.7329 86.7591 68.4278ZM83.8922 69.3123L77.3058 65.5091V62.1749V62.174V62.1732V58.7964L83.8914 54.9948C84.2944 55.4287 84.8236 55.7431 85.4197 55.8794V68.4286C84.8236 68.5641 84.2944 68.8784 83.8922 69.3123ZM70.1541 69.1292C66.8257 69.1292 64.3393 67.8475 64.3393 66.7013V64.413C64.6144 64.6128 64.9279 64.7984 65.2807 64.9665C66.5933 65.5935 68.324 65.9388 70.1541 65.9388C71.9842 65.9388 73.714 65.5935 75.0267 64.9665C75.3786 64.7984 75.6922 64.6128 75.9664 64.4139V66.7013C75.9664 67.8475 73.4808 69.1292 70.1541 69.1292ZM56.416 69.3115C56.013 68.8784 55.4829 68.5641 54.886 68.4278V55.8785C55.4829 55.7422 56.0122 55.4279 56.416 54.9948L63.0008 58.7955V62.1724V62.1732V62.174V65.5083L56.416 69.3115ZM70.1541 55.1771C73.4808 55.1771 75.9664 56.4587 75.9664 57.605C75.9664 58.7504 73.4808 60.0304 70.1541 60.0304C66.8257 60.0304 64.3393 58.7496 64.3393 57.605C64.3401 56.4587 66.8266 55.1771 70.1541 55.1771ZM64.3401 59.8414C64.6152 60.0413 64.9312 60.2269 65.2849 60.3958C66.6 61.0236 68.3298 61.3698 70.1549 61.3698C71.9792 61.3698 73.7074 61.0236 75.0225 60.3958C75.3761 60.2269 75.6913 60.0413 75.9672 59.8414V62.1724C75.9672 63.3186 73.4816 64.6003 70.1549 64.6003C66.8266 64.6003 64.3401 63.3186 64.3401 62.1724V59.8414ZM86.0902 51.2886C87.0065 51.2886 87.7532 52.0352 87.7532 52.9532C87.7532 53.8695 87.0074 54.6152 86.0902 54.6152C85.1731 54.6152 84.4273 53.8695 84.4273 52.9532C84.4273 52.0352 85.1731 51.2886 86.0902 51.2886ZM77.7873 48.93L83.2209 52.0686C83.1348 52.3487 83.0879 52.6455 83.0879 52.9532C83.0879 53.26 83.1348 53.5559 83.22 53.8352L77.2782 57.2647C77.1277 56.3032 76.3401 55.4421 75.0216 54.8125C73.8687 54.2616 72.3981 53.928 70.8229 53.8544V46.6785C71.4191 46.5422 71.9491 46.2271 72.3513 45.7931L77.7873 48.93ZM70.1541 42.0877C71.0704 42.0877 71.817 42.8335 71.817 43.7498C71.817 44.6678 71.0713 45.4144 70.1541 45.4144C69.2361 45.4144 68.4895 44.6678 68.4895 43.7498C68.4895 42.8335 69.2361 42.0877 70.1541 42.0877ZM62.5192 48.9309L67.9544 45.7931C68.3582 46.2271 68.8875 46.5422 69.4853 46.6785V53.8544C67.9101 53.928 66.4378 54.2624 65.2849 54.8125C63.9664 55.4421 63.1789 56.3041 63.0284 57.2647L57.0882 53.836C57.1743 53.5568 57.2211 53.26 57.2211 52.9532C57.2211 52.6446 57.1743 52.3478 57.0873 52.0678L62.5192 48.9309ZM52.5542 52.9532C52.5542 52.0352 53.3 51.2886 54.2171 51.2886C55.1351 51.2886 55.8817 52.0352 55.8817 52.9532C55.8817 53.8695 55.1351 54.6152 54.2171 54.6152C53.3 54.6152 52.5542 53.8695 52.5542 52.9532ZM54.2163 73.0161C53.3 73.0161 52.5534 72.2703 52.5534 71.354C52.5534 70.4377 53.2991 69.6919 54.2163 69.6919C55.1343 69.6919 55.8809 70.4377 55.8809 71.354C55.8809 72.2703 55.1343 73.0161 54.2163 73.0161ZM62.5192 75.3738L57.0873 72.2369C57.1734 71.9576 57.2203 71.6608 57.2203 71.3531C57.2203 71.0455 57.1734 70.7495 57.0873 70.4694L63.0284 67.0382C63.1772 68.0022 63.9622 68.865 65.2807 69.4954C66.432 70.0456 67.9051 70.3783 69.4844 70.4519V77.6278C68.8875 77.764 68.3582 78.0784 67.9544 78.5115L62.5192 75.3738ZM70.1541 82.2186C69.2361 82.2186 68.4895 81.472 68.4895 80.554C68.4895 79.6377 69.2361 78.8919 70.1541 78.8919C71.0704 78.8919 71.817 79.6377 71.817 80.554C71.817 81.4711 71.0713 82.2186 70.1541 82.2186ZM77.7873 75.3738L72.3513 78.5115C71.9483 78.0784 71.4199 77.764 70.8238 77.6278V70.4519C72.4031 70.3783 73.8754 70.0447 75.0267 69.4954C76.3443 68.8659 77.1285 68.0031 77.2773 67.0391L83.22 70.4711C83.1339 70.7503 83.0871 71.0463 83.0871 71.3531C83.0871 71.66 83.1339 71.9559 83.22 72.2352L77.7873 75.3738ZM86.0902 73.0161C85.1739 73.0161 84.4273 72.2703 84.4273 71.354C84.4273 70.4377 85.1731 69.6919 86.0902 69.6919C87.0074 69.6919 87.7532 70.4377 87.7532 71.354C87.7532 72.2703 87.0065 73.0161 86.0902 73.0161Z" fill="black"/>
</g>
<defs>
<filter id="filter0_d_200_520" x="-1.78318" y="-4.33464" width="152.647" height="152.647" filterUnits="userSpaceOnUse" color-interpolation-filters="sRGB">
<feFlood flood-opacity="0" result="BackgroundImageFix"/>
<feColorMatrix in="SourceAlpha" type="matrix" values="0 0 0 0 0 0 0 0 0 0 0 0 0 0 0 0 0 0 127 0" result="hardAlpha"/>
<feOffset dx="4.54045" dy="9.989"/>
<feGaussianBlur stdDeviation="18.1618"/>
<feComposite in2="hardAlpha" operator="out"/>
<feColorMatrix type="matrix" values="0 0 0 0 0.130044 0 0 0 0 0.396943 0 0 0 0 0.687863 0 0 0 0.07 0"/>
<feBlend mode="normal" in2="BackgroundImageFix" result="effect1_dropShadow_200_520"/>
<feBlend mode="normal" in="SourceGraphic" in2="effect1_dropShadow_200_520" result="shape"/>
</filter>
<clipPath id="clip0_200_520">
<rect width="42.8062" height="42.8062" fill="white" transform="translate(48.75 40.75)"/>
</clipPath>
</defs>
</svg>
