<svg width="69" height="69" viewBox="0 0 69 69" fill="none" xmlns="http://www.w3.org/2000/svg">
<g clip-path="url(#clip0_15_13947)">
<path fill-rule="evenodd" clip-rule="evenodd" d="M34.2502 8.53447C36.3036 8.53447 37.9824 6.85566 37.9824 4.8023C37.9824 2.74492 36.3036 1.07013 34.2502 1.07013C32.1929 1.07013 30.5181 2.74492 30.5181 4.8023C30.5181 6.85566 32.1929 8.53447 34.2502 8.53447Z" fill="#E84663"/>
<path fill-rule="evenodd" clip-rule="evenodd" d="M8.74706 23.2505C10.8044 23.2505 12.4792 21.5757 12.4792 19.5183C12.4792 17.4649 10.8044 15.7861 8.74706 15.7861C6.6937 15.7861 5.01489 17.4649 5.01489 19.5183C5.01489 21.5757 6.6937 23.2505 8.74706 23.2505Z" fill="#E84663"/>
<path fill-rule="evenodd" clip-rule="evenodd" d="M8.74316 52.6931C10.8005 52.6931 12.4753 51.0183 12.4753 48.9609C12.4753 46.9076 10.8005 45.2288 8.74316 45.2288C6.68979 45.2288 5.01099 46.9076 5.01099 48.9609C5.01099 51.0183 6.68979 52.6931 8.74316 52.6931Z" fill="#E84663"/>
<path fill-rule="evenodd" clip-rule="evenodd" d="M34.2424 67.4198C36.2958 67.4198 37.9746 65.741 37.9746 63.6877C37.9746 61.6303 36.2958 59.9555 34.2424 59.9555C32.185 59.9555 30.5103 61.6303 30.5103 63.6877C30.5103 65.741 32.185 67.4198 34.2424 67.4198Z" fill="#E84663"/>
<path fill-rule="evenodd" clip-rule="evenodd" d="M59.7414 52.6998C61.7948 52.6998 63.4736 51.025 63.4736 48.9676C63.4736 46.9143 61.7948 45.2355 59.7414 45.2355C57.6841 45.2355 56.0093 46.9143 56.0093 48.9676C56.0093 51.0237 57.6841 52.6998 59.7414 52.6998Z" fill="#E84663"/>
<path fill-rule="evenodd" clip-rule="evenodd" d="M59.7454 23.2571C61.7987 23.2571 63.4775 21.5823 63.4775 19.525C63.4775 17.4716 61.7987 15.7928 59.7454 15.7928C57.688 15.7928 56.0132 17.4716 56.0132 19.525C56.0132 21.5823 57.688 23.2571 59.7454 23.2571Z" fill="#E84663"/>
<path fill-rule="evenodd" clip-rule="evenodd" d="M44.6269 41.5274C44.6269 44.2683 39.9757 46.4862 34.245 46.4849C28.5103 46.4836 23.8645 44.2643 23.8645 41.5247L23.8658 26.9599L44.6282 26.9626L44.6269 41.5274Z" fill="#FFC333"/>
<path fill-rule="evenodd" clip-rule="evenodd" d="M26.2188 44.6696C24.746 43.8135 23.8645 42.7193 23.8645 41.5247L23.8658 26.9599H26.2202L26.2188 44.6696Z" fill="#E8A400"/>
<path fill-rule="evenodd" clip-rule="evenodd" d="M44.6281 34.2758C44.6281 37.0167 39.9769 39.2346 34.2462 39.2333C28.5115 39.2319 23.8657 37.0127 23.8657 34.2731L23.8671 26.9599L44.6294 26.9626L44.6281 34.2758Z" fill="#E8A400"/>
<path fill-rule="evenodd" clip-rule="evenodd" d="M26.2201 37.422C24.7473 36.5659 23.8657 35.4717 23.8657 34.2731L23.8671 26.9599H26.2214L26.2201 37.422Z" fill="#FFC333"/>
<path fill-rule="evenodd" clip-rule="evenodd" d="M34.2477 31.9201C39.9637 31.9214 44.6296 29.6955 44.6296 26.9626C44.6296 24.2337 39.965 22.0064 34.249 22.0064C28.5291 22.0051 23.8672 24.231 23.8672 26.9612C23.8659 29.6928 28.5277 31.9187 34.2477 31.9201Z" fill="#FFC333"/>
<path fill-rule="evenodd" clip-rule="evenodd" d="M34.2489 22.0051C34.5726 22.0051 34.8924 22.0131 35.2107 22.0278C29.9282 22.2592 25.792 24.3781 25.792 26.9599C25.792 29.5457 29.9282 31.6659 35.2107 31.8987C34.891 31.9134 34.5713 31.9201 34.2489 31.9201C28.5142 31.9187 23.8684 29.6995 23.8684 26.9599C23.8671 24.223 28.5142 22.0037 34.2489 22.0051Z" fill="#E8A400"/>
<path d="M60.8144 44.2844V24.2056C62.948 23.7173 64.5452 21.8044 64.5452 19.525C64.5452 16.875 62.3915 14.7186 59.7429 14.7186C58.3557 14.7186 57.1049 15.3112 56.2274 16.2557L47.5311 11.2326L38.8374 6.21358C38.9752 5.76679 39.0501 5.29191 39.0501 4.79964C39.0501 2.151 36.8964 -0.00268555 34.2478 -0.00268555C31.5978 -0.00268555 29.4414 2.151 29.4414 4.79964C29.4414 5.29191 29.5163 5.76546 29.6541 6.21358L20.9604 11.2326L12.2654 16.2543C11.3879 15.3099 10.1358 14.7186 8.74727 14.7186C6.09863 14.7186 3.94494 16.875 3.94494 19.525C3.94494 21.8044 5.54215 23.7173 7.67577 24.2056V44.2844C5.54081 44.7726 3.9436 46.6856 3.9436 48.965C3.9436 51.6136 6.09729 53.7673 8.74593 53.7673C10.1345 53.7673 11.3865 53.1747 12.2641 52.2316L20.9591 57.2533L29.6528 62.2724C29.515 62.7192 29.4401 63.194 29.4401 63.685C29.4401 66.335 31.5964 68.4913 34.2464 68.4913C36.8951 68.4913 39.0487 66.335 39.0487 63.685C39.0487 63.1927 38.9738 62.7192 38.836 62.271L47.5311 57.2533L56.2274 52.2316C57.1049 53.176 58.357 53.7687 59.7442 53.7687C62.3929 53.7687 64.5465 51.615 64.5465 48.9663C64.5465 46.6856 62.9493 44.7726 60.8144 44.2844ZM56.2274 45.6997L45.6891 39.6145V34.2798V34.2784V34.2771V28.8741L56.2261 22.7916C56.8709 23.4859 57.7176 23.9889 58.6714 24.2069V44.2857C57.7176 44.5024 56.8709 45.0054 56.2274 45.6997ZM34.2464 45.4067C28.9211 45.4067 24.9427 43.356 24.9427 41.522V37.8608C25.3828 38.1805 25.8845 38.4775 26.449 38.7463C28.5492 39.7496 31.3182 40.3021 34.2464 40.3021C37.1746 40.3021 39.9423 39.7496 42.0425 38.7463C42.6057 38.4775 43.1073 38.1805 43.5461 37.8621V41.522C43.5461 43.356 39.5691 45.4067 34.2464 45.4067ZM12.2654 45.6983C11.6206 45.0054 10.7725 44.5024 9.81742 44.2844V24.2056C10.7725 23.9875 11.6193 23.4846 12.2654 22.7916L22.8011 28.8728V34.2758V34.2771V34.2784V39.6132L12.2654 45.6983ZM34.2464 23.0833C39.5691 23.0833 43.5461 25.1339 43.5461 26.9679C43.5461 28.8006 39.5691 30.8486 34.2464 30.8486C28.9211 30.8486 24.9427 28.7992 24.9427 26.9679C24.9441 25.1339 28.9224 23.0833 34.2464 23.0833ZM24.9441 30.5463C25.3842 30.866 25.8898 31.1629 26.4557 31.4332C28.5599 32.4378 31.3276 32.9916 34.2478 32.9916C37.1666 32.9916 39.9316 32.4378 42.0358 31.4332C42.6017 31.1629 43.106 30.866 43.5474 30.5463V34.2758C43.5474 36.1097 39.5704 38.1604 34.2478 38.1604C28.9224 38.1604 24.9441 36.1097 24.9441 34.2758V30.5463ZM59.7442 16.8616C61.2103 16.8616 62.4049 18.0562 62.4049 19.525C62.4049 20.9911 61.2117 22.1843 59.7442 22.1843C58.2768 22.1843 57.0835 20.9911 57.0835 19.525C57.0835 18.0562 58.2768 16.8616 59.7442 16.8616ZM46.4596 13.088L55.1533 18.1097C55.0155 18.5578 54.9406 19.0327 54.9406 19.525C54.9406 20.0159 55.0155 20.4895 55.1519 20.9363L45.6449 26.4235C45.4041 24.8851 44.144 23.5073 42.0345 22.5C40.1898 21.6185 37.8368 21.0847 35.3166 20.967V9.48559C36.2703 9.26754 37.1184 8.76323 37.7619 8.06897L46.4596 13.088ZM34.2464 2.1403C35.7125 2.1403 36.9071 3.33353 36.9071 4.79964C36.9071 6.26843 35.7139 7.46299 34.2464 7.46299C32.7776 7.46299 31.5831 6.26843 31.5831 4.79964C31.5831 3.33353 32.7776 2.1403 34.2464 2.1403ZM22.0306 13.0893L30.7269 8.06897C31.373 8.76323 32.2198 9.26754 33.1763 9.48559V20.967C30.656 21.0847 28.3004 21.6198 26.4557 22.5C24.3461 23.5073 23.086 24.8865 22.8452 26.4235L13.3409 20.9376C13.4787 20.4908 13.5536 20.0159 13.5536 19.525C13.5536 19.0314 13.4787 18.5565 13.3396 18.1084L22.0306 13.0893ZM6.08659 19.525C6.08659 18.0562 7.27982 16.8616 8.74727 16.8616C10.2161 16.8616 11.4106 18.0562 11.4106 19.525C11.4106 20.9911 10.2161 22.1843 8.74727 22.1843C7.27982 22.1843 6.08659 20.9911 6.08659 19.525ZM8.74593 51.6257C7.27982 51.6257 6.08525 50.4324 6.08525 48.9663C6.08525 47.5002 7.27848 46.307 8.74593 46.307C10.2147 46.307 11.4093 47.5002 11.4093 48.9663C11.4093 50.4324 10.2147 51.6257 8.74593 51.6257ZM22.0306 55.398L13.3396 50.3789C13.4774 49.9321 13.5523 49.4573 13.5523 48.965C13.5523 48.4727 13.4774 47.9992 13.3396 47.551L22.8452 42.0611C23.0833 43.6035 24.3394 44.984 26.449 45.9926C28.291 46.8728 30.648 47.4052 33.1749 47.523V59.0044C32.2198 59.2224 31.373 59.7254 30.7269 60.4183L22.0306 55.398ZM34.2464 66.3497C32.7776 66.3497 31.5831 65.1551 31.5831 63.6863C31.5831 62.2202 32.7776 61.027 34.2464 61.027C35.7125 61.027 36.9071 62.2202 36.9071 63.6863C36.9071 65.1538 35.7139 66.3497 34.2464 66.3497ZM46.4596 55.398L37.7619 60.4183C37.1171 59.7254 36.2717 59.2224 35.3179 59.0044V47.523C37.8448 47.4052 40.2005 46.8715 42.0425 45.9926C44.1507 44.9853 45.4055 43.6048 45.6436 42.0625L55.1519 47.5537C55.0141 48.0005 54.9392 48.4741 54.9392 48.965C54.9392 49.4559 55.0141 49.9295 55.1519 50.3763L46.4596 55.398ZM59.7442 51.6257C58.2781 51.6257 57.0835 50.4324 57.0835 48.9663C57.0835 47.5002 58.2768 46.307 59.7442 46.307C61.2117 46.307 62.4049 47.5002 62.4049 48.9663C62.4049 50.4324 61.2103 51.6257 59.7442 51.6257Z" fill="black"/>
</g>
<defs>
<clipPath id="clip0_15_13947">
<rect width="68.49" height="68.49" fill="white"/>
</clipPath>
</defs>
</svg>
