<svg width="20" height="20" viewBox="0 0 20 20" fill="none" xmlns="http://www.w3.org/2000/svg">
<path d="M14.1652 17.5486C14.0736 17.5486 13.9819 17.5378 13.8901 17.5162C13.7983 17.4946 13.7123 17.4568 13.632 17.4028L10.9236 15.8194C10.7605 15.7258 10.6352 15.5999 10.5478 15.4418C10.4604 15.2837 10.4167 15.111 10.4167 14.9236V11.7639C10.4167 11.5765 10.4604 11.4038 10.5478 11.2457C10.6352 11.0876 10.7605 10.9617 10.9236 10.8681L13.632 9.28473C13.7126 9.23072 13.7989 9.1929 13.891 9.17129C13.9832 9.1497 14.0753 9.1389 14.1674 9.1389C14.2595 9.1389 14.3482 9.1524 14.4334 9.1794C14.5186 9.2064 14.601 9.24151 14.6806 9.28473L17.3889 10.8681C17.5531 10.9617 17.6821 11.0876 17.776 11.2457C17.8698 11.4038 17.9167 11.5765 17.9167 11.7639V14.9236C17.9167 15.111 17.8698 15.2837 17.776 15.4418C17.6821 15.5999 17.5531 15.7258 17.3889 15.8194L14.6806 17.4028C14.6004 17.446 14.5174 17.4811 14.4315 17.5081C14.3456 17.5351 14.2568 17.5486 14.1652 17.5486ZM8.33335 9.93056C7.41669 9.93056 6.65511 9.62732 6.04862 9.02083C5.44215 8.41435 5.13892 7.65277 5.13892 6.73611C5.13892 5.81944 5.44215 5.05787 6.04862 4.4514C6.65511 3.84491 7.41669 3.54167 8.33335 3.54167C9.25002 3.54167 10.0116 3.84491 10.6181 4.4514C11.2246 5.05787 11.5278 5.81944 11.5278 6.73611C11.5278 7.65277 11.2246 8.41435 10.6181 9.02083C10.0116 9.62732 9.25002 9.93056 8.33335 9.93056ZM1.66669 16.6111V14.5278C1.66669 14.0509 1.78706 13.6157 2.02779 13.2222C2.26854 12.8287 2.61114 12.5278 3.05558 12.3195C3.95836 11.9028 4.84262 11.588 5.70835 11.375C6.5741 11.162 7.4491 11.0556 8.33335 11.0556H8.59029C8.67826 11.0556 8.75928 11.0602 8.83335 11.0695C8.74076 11.2824 8.66784 11.4965 8.6146 11.7118C8.56137 11.9271 8.51854 12.1713 8.48612 12.4444H8.33335C7.46762 12.4444 6.64702 12.544 5.87156 12.743C5.09609 12.9421 4.35187 13.2176 3.63892 13.5694C3.4491 13.6667 3.30442 13.8032 3.20487 13.9792C3.10533 14.1551 3.05556 14.338 3.05556 14.5278V15.2222H8.54169C8.61576 15.4861 8.70835 15.7326 8.81946 15.9618C8.93057 16.191 9.0602 16.4074 9.20835 16.6111H1.66669ZM8.33335 8.54167C8.84724 8.54167 9.27664 8.36922 9.62154 8.02431C9.96646 7.67941 10.1389 7.25001 10.1389 6.73611C10.1389 6.22222 9.96646 5.79282 9.62154 5.44792C9.27664 5.10302 8.84724 4.93056 8.33335 4.93056C7.81947 4.93056 7.39007 5.10302 7.04517 5.44792C6.70025 5.79282 6.52779 6.22222 6.52779 6.73611C6.52779 7.25001 6.70025 7.67941 7.04517 8.02431C7.39007 8.36922 7.81947 8.54167 8.33335 8.54167ZM12.0972 11.4583L14.1667 12.6736L16.2361 11.4583L14.1667 10.2639L12.0972 11.4583ZM14.7222 16.0695L16.8056 14.8791V12.3611L14.7222 13.5903V16.0695ZM11.5278 14.875L13.6111 16.1042V13.6091L11.5278 12.3958V14.875Z" fill="#90A4B7"/>
</svg>
