<svg width="63" height="63" viewBox="0 0 63 63" fill="none" xmlns="http://www.w3.org/2000/svg">
<circle cx="31.498" cy="31.2714" r="31.2714" fill="#8AD6F7"/>
<g clip-path="url(#clip0_1008_9381)">
<path d="M46.6204 14.8658H15.1724C13.9634 14.8658 12.9834 15.8457 12.9834 17.0548V37.4266C12.9834 38.6356 13.9633 39.6156 15.1724 39.6156H46.6203C47.8294 39.6156 48.8093 38.6357 48.8093 37.4266V17.0548C48.8093 15.8457 47.8294 14.8658 46.6204 14.8658ZM45.4821 35.226C45.4821 35.7404 45.0655 36.157 44.551 36.157H17.2417C16.7273 36.157 16.3107 35.7404 16.3107 35.226V19.2554C16.3107 18.741 16.7273 18.3244 17.2417 18.3244H44.551C45.0655 18.3244 45.4821 18.741 45.4821 19.2554V35.226Z" fill="#CCF5FC"/>
<path d="M16.311 35.228V19.2534C16.311 18.7404 16.7269 18.3246 17.2398 18.3246H44.5531C45.0661 18.3246 45.4819 18.7404 45.4819 19.2534V35.228C45.4819 35.741 45.0661 36.1568 44.5531 36.1568H17.2398C16.7269 36.1567 16.311 35.7409 16.311 35.228Z" fill="#FFFBDF"/>
<path d="M35.3611 46.4747H26.432C25.6276 46.4747 24.9756 45.8226 24.9756 45.0182V45.0125C24.9756 44.2081 25.6276 43.5561 26.432 43.5561H35.3612C36.1656 43.5561 36.8176 44.2081 36.8176 45.0125V45.0182C36.8176 45.8225 36.1655 46.4747 35.3611 46.4747Z" fill="#66E0F7"/>
<path d="M27.8188 39.6156L26.6802 43.556H35.113L33.9744 39.6156H27.8188Z" fill="#66E0F7"/>
<path d="M24.8474 25.7037H20.9185C20.3152 25.7037 19.8262 25.2146 19.8262 24.6114V22.1872C19.8262 21.584 20.3152 21.0949 20.9185 21.0949H24.8474C25.4507 21.0949 25.9398 21.584 25.9398 22.1872V24.6114C25.9398 25.2146 25.4508 25.7037 24.8474 25.7037Z" fill="#FF9EB1"/>
<path d="M36.1724 26.6846L37.6076 32.041L38.5363 31.1123L40.9994 33.5755L43.0632 31.5117L40.6001 29.0485L41.5288 28.1199L36.1724 26.6846Z" fill="#ECF3F3"/>
<path d="M22.883 32.8726C24.1557 32.8726 25.1874 31.8409 25.1874 30.5682C25.1874 29.2956 24.1557 28.2638 22.883 28.2638C21.6103 28.2638 20.5786 29.2956 20.5786 30.5682C20.5786 31.8409 21.6103 32.8726 22.883 32.8726Z" fill="#D1AEE4"/>
<path d="M30.8967 37.0166C31.2989 37.0166 31.6249 36.6906 31.6249 36.2884C31.6249 35.8862 31.2989 35.5602 30.8967 35.5602C30.4945 35.5602 30.1685 35.8862 30.1685 36.2884C30.1685 36.6906 30.4945 37.0166 30.8967 37.0166Z" fill="black"/>
<path d="M46.6205 14.1358H15.1725C13.5632 14.1358 12.2539 15.4451 12.2539 17.0544V37.427C12.2539 39.0363 13.5632 40.3455 15.1725 40.3455H26.8854L26.0686 42.8576C25.0354 43.0323 24.2457 43.9331 24.2457 45.0153C24.2457 46.2223 25.2277 47.2043 26.4347 47.2043H35.3581C36.5651 47.2043 37.5471 46.2223 37.5471 45.0153C37.5471 43.9331 36.7575 43.0323 35.7242 42.8576L34.9074 40.3455H46.6203C48.2297 40.3455 49.5389 39.0363 49.5389 37.427V17.0544C49.5391 15.4451 48.2298 14.1358 46.6205 14.1358ZM36.0879 45.0154C36.0879 45.4177 35.7605 45.7451 35.3582 45.7451H26.4348C26.0325 45.7451 25.7051 45.4177 25.7051 45.0154C25.7051 44.613 26.0325 44.2857 26.4348 44.2857H35.3582C35.7605 44.2857 36.0879 44.613 36.0879 45.0154ZM34.1796 42.8264H27.6134L28.4199 40.3455H33.373L34.1796 42.8264ZM48.0798 37.427C48.0798 38.2316 47.4252 38.8863 46.6205 38.8863H15.1725C14.3678 38.8863 13.7132 38.2316 13.7132 37.427V17.0544C13.7132 16.2498 14.3678 15.5951 15.1725 15.5951H46.6204C47.4251 15.5951 48.0797 16.2498 48.0797 17.0544V37.427H48.0798Z" fill="black"/>
<path d="M44.3875 17.4634H17.4057C16.3999 17.4634 15.5815 18.2817 15.5815 19.2875V35.1939C15.5815 36.1998 16.3999 37.0181 17.4057 37.0181H27.6259C28.0288 37.0181 28.3556 36.6914 28.3556 36.2884C28.3556 35.8854 28.0289 35.5587 27.6259 35.5587H17.4057C17.2045 35.5587 17.0408 35.395 17.0408 35.1939V19.2875C17.0408 19.0864 17.2045 18.9227 17.4057 18.9227H44.3875C44.5887 18.9227 44.7524 19.0864 44.7524 19.2875V35.1939C44.7524 35.3951 44.5887 35.5588 44.3875 35.5588H34.1673C33.7643 35.5588 33.4376 35.8855 33.4376 36.2885C33.4376 36.6915 33.7643 37.0181 34.1673 37.0181H44.3875C45.3933 37.0181 46.2116 36.1998 46.2116 35.194V19.2875C46.2116 18.2817 45.3933 17.4634 44.3875 17.4634Z" fill="black"/>
<path d="M26.6696 24.6092V22.1894C26.6696 21.1836 25.8513 20.3653 24.8454 20.3653H20.9208C19.915 20.3653 19.0967 21.1836 19.0967 22.1894V24.6092C19.0967 25.6151 19.915 26.4334 20.9208 26.4334H24.8454C25.8513 26.4333 26.6696 25.6151 26.6696 24.6092ZM25.2103 24.6092C25.2103 24.8104 25.0466 24.9741 24.8454 24.9741H20.9208C20.7197 24.9741 20.556 24.8104 20.556 24.6092V22.1894C20.556 21.9883 20.7197 21.8246 20.9208 21.8246H24.8454C25.0466 21.8246 25.2103 21.9883 25.2103 22.1894V24.6092Z" fill="black"/>
<path d="M42.2337 27.931C42.1662 27.6792 41.9696 27.4825 41.7178 27.415L36.3614 25.9798C36.1094 25.9122 35.8409 25.9844 35.6566 26.1687C35.4723 26.353 35.4003 26.6217 35.4678 26.8735L36.903 32.2299C36.9705 32.4817 37.1671 32.6784 37.4189 32.7459C37.6709 32.8134 37.9394 32.7413 38.1237 32.557L38.5364 32.1443L40.4836 34.0915C40.6205 34.2283 40.8061 34.3051 40.9996 34.3051C41.1931 34.3051 41.3786 34.2282 41.5155 34.0914L43.5793 32.0276C43.8643 31.7427 43.8643 31.2807 43.5793 30.9957L41.6321 29.0486L42.0448 28.6358C42.2292 28.4514 42.3012 28.1828 42.2337 27.931ZM42.0315 31.5117L40.9997 32.5436L39.0525 30.5964C38.9099 30.4539 38.7232 30.3827 38.5365 30.3827C38.3498 30.3827 38.1631 30.4539 38.0206 30.5964L37.9855 30.6315L37.2044 27.7165L40.1194 28.4976L40.0844 28.5326C39.7994 28.8176 39.7994 29.2796 40.0844 29.5645L42.0315 31.5117Z" fill="black"/>
<path d="M28.4299 22.6696H32.9305C33.3334 22.6696 33.6601 22.3429 33.6601 21.9399C33.6601 21.5369 33.3335 21.2102 32.9305 21.2102H28.4299C28.027 21.2102 27.7002 21.5369 27.7002 21.9399C27.7002 22.3429 28.027 22.6696 28.4299 22.6696Z" fill="black"/>
<path d="M28.4299 25.5882H32.9305C33.3334 25.5882 33.6601 25.2615 33.6601 24.8585C33.6601 24.4555 33.3335 24.1288 32.9305 24.1288H28.4299C28.027 24.1288 27.7002 24.4555 27.7002 24.8585C27.7002 25.2615 28.027 25.5882 28.4299 25.5882Z" fill="black"/>
<path d="M28.4299 29.7666H32.9305C33.3334 29.7666 33.6601 29.4399 33.6601 29.0369C33.6601 28.6339 33.3335 28.3072 32.9305 28.3072H28.4299C28.027 28.3072 27.7002 28.6339 27.7002 29.0369C27.7003 29.4399 28.027 29.7666 28.4299 29.7666Z" fill="black"/>
<path d="M33.6601 31.9556C33.6601 31.5526 33.3335 31.2259 32.9305 31.2259H28.4299C28.027 31.2259 27.7002 31.5526 27.7002 31.9556C27.7002 32.3586 28.0269 32.6853 28.4299 32.6853H32.9305C33.3335 32.6852 33.6601 32.3585 33.6601 31.9556Z" fill="black"/>
<path d="M19.8491 30.5682C19.8491 32.2412 21.2102 33.6023 22.8831 33.6023C24.5561 33.6023 25.9171 32.2412 25.9171 30.5682C25.9171 28.8952 24.5561 27.5342 22.8831 27.5342C21.2102 27.5342 19.8491 28.8953 19.8491 30.5682ZM24.4578 30.5682C24.4578 31.4366 23.7514 32.143 22.8831 32.143C22.0149 32.143 21.3084 31.4365 21.3084 30.5682C21.3084 29.6999 22.0149 28.9935 22.8831 28.9935C23.7514 28.9935 24.4578 29.6999 24.4578 30.5682Z" fill="black"/>
</g>
<defs>
<clipPath id="clip0_1008_9381">
<rect width="37.2852" height="37.2852" fill="white" transform="translate(12.2539 12.0275)"/>
</clipPath>
</defs>
</svg>
