<svg width="20" height="20" viewBox="0 0 20 20" fill="none" xmlns="http://www.w3.org/2000/svg">
<path d="M2.66665 16.6667V15.2778H5.13888L4.83333 14.9861C4.03703 14.2176 3.46758 13.412 3.12498 12.5694C2.78238 11.7269 2.61108 10.8935 2.61108 10.0694C2.61108 8.54631 3.05438 7.18636 3.94096 5.98959C4.82753 4.79283 5.99072 3.97686 7.43054 3.54168V4.98611C6.3935 5.38427 5.56248 6.04746 4.93748 6.9757C4.31248 7.90395 3.99998 8.9352 3.99998 10.0694C3.99998 10.7593 4.12035 11.4178 4.36108 12.0452C4.60182 12.6725 4.99997 13.2454 5.55554 13.7639L6.04165 14.2084V11.9028H7.43054V16.6667H2.66665ZM17.3541 9.5278H15.9583C15.9166 8.89354 15.7743 8.30094 15.5312 7.75001C15.2882 7.19908 14.9259 6.69445 14.4444 6.23611L13.9583 5.79166V8.09722H12.5694V3.33334H17.3333V4.72222H14.8472L15.1666 5.01389C15.8935 5.71759 16.4282 6.45602 16.7708 7.22918C17.1134 8.00233 17.3079 8.76854 17.3541 9.5278ZM14.3889 19.1667L14.2361 18.0833C13.9954 18.0046 13.7535 17.8993 13.5104 17.7674C13.2673 17.6354 13.0602 17.4861 12.8889 17.3194L11.9028 17.7222L11.1389 16.5L11.9861 15.8056C11.9305 15.5278 11.9028 15.2755 11.9028 15.0486C11.9028 14.8218 11.9305 14.5695 11.9861 14.2917L11.1389 13.5972L11.9028 12.3611L12.8889 12.7639C13.0602 12.6158 13.2673 12.4734 13.5104 12.3368C13.7535 12.2002 13.9954 12.0926 14.2361 12.0139L14.3889 10.9167H15.7778L15.9444 12.0139C16.1852 12.0926 16.4271 12.2014 16.6701 12.3403C16.9132 12.4792 17.1204 12.625 17.2916 12.7778L18.2778 12.3611L19.0416 13.6111L18.1944 14.3056C18.25 14.5741 18.2778 14.8241 18.2778 15.0556C18.2778 15.287 18.25 15.537 18.1944 15.8056L19.0416 16.5L18.2778 17.7222L17.2916 17.3194C17.1204 17.4861 16.9132 17.6354 16.6701 17.7674C16.4271 17.8993 16.1852 18.0046 15.9444 18.0833L15.7778 19.1667H14.3889ZM15.0833 17.0139C15.6435 17.0139 16.1123 16.8252 16.4896 16.4479C16.8669 16.0706 17.0555 15.6019 17.0555 15.0417C17.0555 14.4815 16.8669 14.0127 16.4896 13.6354C16.1123 13.2581 15.6435 13.0694 15.0833 13.0694C14.5231 13.0694 14.0544 13.2581 13.6771 13.6354C13.2997 14.0127 13.1111 14.4815 13.1111 15.0417C13.1111 15.6019 13.2997 16.0706 13.6771 16.4479C14.0544 16.8252 14.5231 17.0139 15.0833 17.0139Z" fill="#90A4B7"/>
</svg>
