<svg width="63" height="63" viewBox="0 0 63 63" fill="none" xmlns="http://www.w3.org/2000/svg">
<circle cx="31.27" cy="31.27" r="31.27" fill="#99C633"/>
<g clip-path="url(#clip0_978_15110)">
<path fill-rule="evenodd" clip-rule="evenodd" d="M11.5845 25.9345L22.3787 13.4522C22.4064 13.4213 22.445 13.4023 22.4864 13.3994C22.5278 13.3965 22.5687 13.4098 22.6005 13.4366L38.5877 27.2632C38.6034 27.2766 38.6164 27.2931 38.6257 27.3116C38.635 27.33 38.6406 27.3502 38.6421 27.3709C38.6435 27.3915 38.6408 27.4123 38.6342 27.4319C38.6275 27.4515 38.617 27.4696 38.6033 27.4851L27.809 39.9673C27.7817 39.9982 27.7435 40.0172 27.7024 40.0201C27.6613 40.023 27.6207 40.0097 27.5894 39.983L11.6 26.1562C11.5691 26.1285 11.5502 26.0899 11.5473 26.0485C11.5444 26.0071 11.5577 25.9661 11.5844 25.9344L11.5845 25.9345Z" fill="#006694"/>
<path fill-rule="evenodd" clip-rule="evenodd" d="M18.7476 20.0583L26.283 16.6221L38.5877 27.2632C38.6035 27.2766 38.6164 27.2931 38.6258 27.3116C38.6351 27.33 38.6406 27.3502 38.6421 27.3709C38.6436 27.3915 38.6409 27.4123 38.6342 27.4319C38.6276 27.4515 38.6171 27.4696 38.6033 27.4851L27.8092 39.9673C27.782 39.9982 27.7437 40.0172 27.7026 40.0201C27.6615 40.023 27.6209 40.0097 27.5896 39.983L26.8221 39.3198L18.43 20.9123C18.3589 20.7569 18.3525 20.5798 18.4119 20.4196C18.4714 20.2595 18.592 20.1296 18.7472 20.0583H18.7476Z" fill="#005C85"/>
<path fill-rule="evenodd" clip-rule="evenodd" d="M18.9515 20.5019L33.9648 13.6562C34.0028 13.6392 34.046 13.6378 34.085 13.6523C34.124 13.6669 34.1557 13.6961 34.1733 13.7338L42.9422 32.9664C42.9588 33.0044 42.96 33.0475 42.9455 33.0864C42.931 33.1253 42.902 33.157 42.8645 33.1749L27.8489 40.0205C27.8112 40.0374 27.7684 40.0386 27.7298 40.0241C27.6912 40.0096 27.6599 39.9804 27.6426 39.9429L18.8738 20.7104C18.8651 20.6916 18.8603 20.6713 18.8595 20.6506C18.8587 20.63 18.862 20.6094 18.8692 20.59C18.8765 20.5706 18.8874 20.5528 18.9015 20.5377C18.9157 20.5226 18.9326 20.5104 18.9515 20.5019Z" fill="#60B7FF"/>
<path fill-rule="evenodd" clip-rule="evenodd" d="M27.8644 18.1461H36.1852L42.942 32.9664C42.9587 33.0044 42.9598 33.0475 42.9454 33.0864C42.9309 33.1253 42.9018 33.157 42.8644 33.1749L27.8488 40.0205C27.8111 40.0374 27.7683 40.0386 27.7297 40.0241C27.6911 40.0096 27.6597 39.9804 27.6425 39.9429L27.2188 39.0156V18.7916C27.2186 18.7068 27.2353 18.6228 27.2677 18.5445C27.3001 18.4661 27.3476 18.3949 27.4076 18.3349C27.4676 18.275 27.5388 18.2274 27.6171 18.195C27.6955 18.1626 27.7796 18.146 27.8644 18.1461Z" fill="#56A5E6"/>
<path fill-rule="evenodd" clip-rule="evenodd" d="M27.8645 18.6341H40.1516L44.5216 23.0041V39.9274C44.5217 39.948 44.5178 39.9683 44.5101 39.9873C44.5024 40.0064 44.491 40.0237 44.4766 40.0383C44.4622 40.0529 44.445 40.0646 44.4261 40.0725C44.4072 40.0805 44.3869 40.0847 44.3663 40.0848H27.8645C27.8228 40.0847 27.7829 40.0681 27.7533 40.0386C27.7238 40.0091 27.7072 39.9691 27.707 39.9274V18.7916C27.7072 18.7499 27.7238 18.71 27.7533 18.6805C27.7828 18.651 27.8228 18.6343 27.8645 18.6341Z" fill="#EAF6FF"/>
<path fill-rule="evenodd" clip-rule="evenodd" d="M40.1514 18.6341V22.0234C40.1522 22.2832 40.2558 22.5321 40.4395 22.7158C40.6232 22.8995 40.8721 23.0031 41.1319 23.0039H44.5214L40.1514 18.6341Z" fill="#BEC7CF"/>
<path fill-rule="evenodd" clip-rule="evenodd" d="M31.6421 33.5365H44.5391C45.1926 33.5389 45.8186 33.7995 46.2807 34.2616C46.7428 34.7237 47.0034 35.3498 47.0058 36.0033V46.1341C47.0038 46.7877 46.7433 47.414 46.2811 47.8762C45.8189 48.3383 45.1927 48.5989 44.5391 48.6009H21.6776C21.0239 48.5992 20.3974 48.3388 19.9352 47.8766C19.4729 47.4143 19.2125 46.7878 19.2109 46.1341V31.0698C19.2119 30.5329 19.4256 30.0183 19.8052 29.6387C20.1848 29.2591 20.6994 29.0455 21.2363 29.0445H25.5441C26.2562 29.0445 26.742 29.4837 27.2522 29.9806L29.9341 32.6004C30.4443 33.0973 30.9302 33.5365 31.6422 33.5365H31.6421Z" fill="#FFBA57"/>
<path fill-rule="evenodd" clip-rule="evenodd" d="M44.5214 33.9513C44.8605 34.1757 45.1388 34.4805 45.3316 34.8385C45.5243 35.1965 45.6255 35.5967 45.6262 36.0033V46.1341C45.6242 46.7877 45.3636 47.414 44.9015 47.8762C44.4393 48.3383 43.8131 48.5989 43.1595 48.6009H44.5391C45.1927 48.5989 45.8189 48.3383 46.2811 47.8762C46.7433 47.414 47.0038 46.7877 47.0058 46.1341V36.0033C47.0047 35.3494 46.7445 34.7226 46.2821 34.2602C45.8198 33.7978 45.193 33.5376 44.5391 33.5365H43.1595C43.6446 33.5361 44.1188 33.6806 44.5214 33.9513ZM29.9341 32.6004L27.7069 30.4265L27.2521 29.9806C26.742 29.4837 26.2561 29.0445 25.5441 29.0445H24.1641C24.8761 29.0445 25.362 29.4837 25.8721 29.9806L27.7066 31.773L28.5547 32.6004C29.0648 33.0973 29.5506 33.5365 30.2627 33.5365H31.6425C30.9305 33.5365 30.4446 33.0973 29.9345 32.6004H29.9341Z" fill="#E6A74E"/>
<path fill-rule="evenodd" clip-rule="evenodd" d="M45.7838 40.8191C46.7073 40.8191 47.6101 40.5453 48.378 40.0322C49.146 39.5191 49.7445 38.7898 50.0979 37.9365C50.4513 37.0833 50.5438 36.1444 50.3636 35.2386C50.1834 34.3328 49.7387 33.5008 49.0856 32.8477C48.4326 32.1947 47.6005 31.75 46.6947 31.5698C45.7889 31.3896 44.85 31.4821 43.9968 31.8355C43.1435 32.189 42.4143 32.7875 41.9012 33.5554C41.3881 34.3233 41.1142 35.2261 41.1143 36.1497C41.1166 37.3874 41.6093 38.5738 42.4845 39.449C43.3597 40.3242 44.5461 40.8168 45.7838 40.8191Z" fill="#25C73B"/>
<path fill-rule="evenodd" clip-rule="evenodd" d="M45.3887 31.4957C46.5343 31.5929 47.6038 32.1092 48.3925 32.9459C49.1811 33.7825 49.6335 34.8807 49.6628 36.0301C49.6922 37.1794 49.2966 38.2993 48.5518 39.1751C47.8069 40.051 46.7652 40.6213 45.626 40.7769C45.5462 40.788 45.4685 40.7969 45.3887 40.8036C45.4662 40.8102 45.5462 40.8147 45.626 40.8169C45.677 40.8191 45.7302 40.8191 45.7835 40.8191C47.0186 40.8141 48.2014 40.3199 49.073 39.4447C49.9446 38.5696 50.4339 37.3848 50.4339 36.1496C50.4339 34.9145 49.9446 33.7297 49.073 32.8545C48.2014 31.9794 47.0186 31.4852 45.7835 31.4801C45.6507 31.4801 45.5173 31.4846 45.3887 31.4958V31.4957Z" fill="#21B335"/>
<path fill-rule="evenodd" clip-rule="evenodd" d="M43.5234 23.0041V32.0613C43.8391 31.8869 44.1741 31.7499 44.5216 31.6532V23.0041H43.5234Z" fill="#D3DDE6"/>
<path d="M29.8805 22.4432C29.8805 22.2982 29.9382 22.1591 30.0407 22.0565C30.1433 21.9539 30.2824 21.8963 30.4274 21.8963H37.6599C37.805 21.8963 37.944 21.9539 38.0466 22.0565C38.1492 22.1591 38.2068 22.2982 38.2068 22.4432C38.2068 22.5882 38.1492 22.7273 38.0466 22.8299C37.944 22.9325 37.805 22.9901 37.6599 22.9901H30.4276C30.3557 22.9901 30.2846 22.976 30.2182 22.9485C30.1519 22.921 30.0916 22.8807 30.0408 22.83C29.99 22.7792 29.9497 22.7189 29.9222 22.6525C29.8947 22.5862 29.8805 22.515 29.8805 22.4432ZM30.4274 25.652H41.8498C41.9949 25.652 42.134 25.5944 42.2365 25.4919C42.3391 25.3893 42.3967 25.2502 42.3967 25.1052C42.3967 24.9601 42.3391 24.821 42.2365 24.7185C42.134 24.6159 41.9949 24.5583 41.8498 24.5583H30.4276C30.2825 24.5583 30.1434 24.6159 30.0409 24.7185C29.9383 24.821 29.8807 24.9601 29.8807 25.1052C29.8807 25.2502 29.9383 25.3893 30.0409 25.4919C30.1434 25.5944 30.2825 25.652 30.4276 25.652H30.4274ZM41.8497 27.2176H30.4276C30.2825 27.2176 30.1434 27.2752 30.0409 27.3778C29.9383 27.4803 29.8807 27.6194 29.8807 27.7645C29.8807 27.9095 29.9383 28.0486 30.0409 28.1511C30.1434 28.2537 30.2825 28.3113 30.4276 28.3113H41.8498C41.9949 28.3113 42.134 28.2537 42.2365 28.1511C42.3391 28.0486 42.3967 27.9095 42.3967 27.7645C42.3967 27.6194 42.3391 27.4803 42.2365 27.3778C42.134 27.2752 41.9949 27.2176 41.8498 27.2176H41.8497ZM41.8497 29.8771H30.4276C30.2825 29.8771 30.1434 29.9347 30.0409 30.0373C29.9383 30.1398 29.8807 30.2789 29.8807 30.424C29.8807 30.569 29.9383 30.7081 30.0409 30.8107C30.1434 30.9132 30.2825 30.9709 30.4276 30.9709H41.8498C41.9949 30.9709 42.134 30.9132 42.2365 30.8107C42.3391 30.7081 42.3967 30.569 42.3967 30.424C42.3967 30.2789 42.3391 30.1398 42.2365 30.0373C42.134 29.9347 41.9949 29.8771 41.8498 29.8771H41.8497ZM47.5564 41.073V46.1406C47.5554 46.9384 47.2379 47.7033 46.6738 48.2673C46.1096 48.8314 45.3447 49.1488 44.5469 49.1497H21.7248C20.9269 49.1488 20.1621 48.8315 19.5979 48.2674C19.0337 47.7033 18.7163 46.9384 18.7152 46.1406V33.0172L11.1892 26.5086C11.1349 26.4616 11.0903 26.4044 11.0581 26.3402C11.0259 26.276 11.0066 26.206 11.0014 26.1344C10.9962 26.0627 11.0052 25.9908 11.0279 25.9226C11.0505 25.8544 11.0863 25.7914 11.1333 25.737L22.1149 13.0391C22.1619 12.9847 22.2191 12.9402 22.2833 12.9079C22.3475 12.8757 22.4175 12.8565 22.4891 12.8513C22.5608 12.8461 22.6327 12.8551 22.7009 12.8777C22.7691 12.9003 22.8322 12.9362 22.8865 12.9832L26.8208 16.3866L33.9077 13.1562C33.9731 13.1264 34.0437 13.1098 34.1155 13.1073C34.1872 13.1047 34.2588 13.1164 34.3261 13.1415C34.3934 13.1667 34.4551 13.2048 34.5076 13.2538C34.5602 13.3028 34.6025 13.3617 34.6323 13.427L36.7808 18.1405H40.1692C40.3143 18.1405 40.4534 18.1981 40.556 18.3006L44.9185 22.6632C44.9693 22.714 45.0096 22.7743 45.0371 22.8407C45.0646 22.907 45.0787 22.9782 45.0787 23.05V31.0145C46.3541 30.838 47.6496 31.1403 48.7152 31.8629C49.7808 32.5855 50.541 33.6773 50.849 34.9274C51.1569 36.1776 50.9909 37.4975 50.3829 38.6324C49.7749 39.7673 48.7681 40.6368 47.5567 41.073H47.5564ZM43.9844 31.2881V23.597H41.1477C40.7432 23.5965 40.3554 23.4356 40.0693 23.1496C39.7833 22.8635 39.6224 22.4757 39.6219 22.0712V19.2344H28.2929V30.2281L30.3494 32.2385C30.8155 32.6945 31.1831 33.0172 31.6721 33.0172H41.6517C42.2506 32.2323 43.0593 31.6328 43.9844 31.2881ZM40.716 22.0712C40.7161 22.1857 40.7617 22.2954 40.8426 22.3764C40.9236 22.4573 41.0333 22.5028 41.1478 22.503H43.211L40.716 20.0078V22.0712ZM33.8637 14.3786L26.9848 17.5144C26.9642 17.5254 26.9428 17.5351 26.9209 17.5434L19.586 20.8872L23.0704 28.533H25.5842C26.2643 28.533 26.7851 28.8427 27.1985 29.1862V18.6875C27.1985 18.5425 27.2561 18.4034 27.3587 18.3008C27.4612 18.1982 27.6003 18.1406 27.7454 18.1406H35.5782L33.8637 14.3786ZM18.7152 31.5709V31.1021C18.7163 30.4208 18.9876 29.7677 19.4696 29.2861C19.9516 28.8045 20.605 28.5338 21.2863 28.5334H21.8686L18.3637 20.8435C18.3339 20.7782 18.3173 20.7076 18.3148 20.6358C18.3123 20.564 18.3239 20.4924 18.3491 20.4251C18.3742 20.3579 18.4124 20.2962 18.4614 20.2437C18.5104 20.1911 18.5692 20.1488 18.6346 20.119L25.7258 16.8864L22.5844 14.1686L12.3186 26.0391L18.7152 31.5709ZM46.4626 41.3365C45.7279 41.4333 44.9811 41.3721 44.272 41.1568C43.563 40.9415 42.9082 40.5771 42.3515 40.0881C41.7947 39.5991 41.3489 38.9968 41.0439 38.3214C40.739 37.6461 40.5818 36.9134 40.5831 36.1724C40.5826 35.4633 40.7277 34.7615 41.0095 34.1108H31.6719C30.699 34.1108 30.0548 33.4805 29.5844 33.0203L27.3776 30.8633C27.3676 30.8541 27.358 30.8448 27.3487 30.8349L26.9095 30.4052C26.4269 29.9351 26.0736 29.6266 25.5846 29.6266H21.2863C20.895 29.6267 20.5197 29.7821 20.2427 30.0586C19.9658 30.3351 19.8099 30.7102 19.8092 31.1016V46.1406C19.8098 46.6485 20.0118 47.1354 20.3709 47.4944C20.73 47.8535 21.2169 48.0555 21.7248 48.0561H44.5469C45.0548 48.0556 45.5417 47.8536 45.9008 47.4945C46.26 47.1354 46.462 46.6485 46.4626 46.1406V41.3365ZM49.9063 36.1729C49.9063 35.3591 49.665 34.5636 49.2129 33.887C48.7608 33.2104 48.1182 32.6831 47.3664 32.3716C46.6146 32.0602 45.7873 31.9787 44.9892 32.1375C44.1911 32.2962 43.458 32.6881 42.8825 33.2635C42.3071 33.8389 41.9152 34.572 41.7565 35.3701C41.5977 36.1683 41.6792 36.9955 41.9906 37.7474C42.302 38.4992 42.8293 39.1418 43.5059 39.5939C44.1825 40.046 44.978 40.2873 45.7918 40.2873C46.8826 40.2861 47.9284 39.8522 48.6998 39.0809C49.4712 38.3095 49.9051 37.2637 49.9063 36.1729ZM48.5766 34.1053C48.5258 34.0545 48.4656 34.0142 48.3992 33.9867C48.3329 33.9593 48.2617 33.9451 48.1899 33.9451C48.1181 33.9451 48.047 33.9593 47.9806 33.9867C47.9143 34.0142 47.854 34.0545 47.8032 34.1053L44.8282 37.0802L43.7799 36.0319C43.7291 35.9812 43.6688 35.9409 43.6025 35.9134C43.5361 35.8859 43.465 35.8718 43.3932 35.8718C43.3214 35.8718 43.2503 35.8859 43.1839 35.9134C43.1175 35.9409 43.0573 35.9812 43.0065 36.0319C42.9557 36.0827 42.9154 36.143 42.8879 36.2094C42.8604 36.2757 42.8463 36.3468 42.8463 36.4187C42.8463 36.4905 42.8604 36.5616 42.8879 36.628C42.9154 36.6943 42.9557 36.7546 43.0065 36.8054L44.4416 38.2403C44.4923 38.2911 44.5526 38.3314 44.619 38.3589C44.6853 38.3864 44.7565 38.4005 44.8283 38.4005C44.9001 38.4005 44.9712 38.3864 45.0376 38.3589C45.1039 38.3314 45.1642 38.2911 45.215 38.2403L48.5766 34.8789C48.6274 34.8281 48.6677 34.7678 48.6952 34.7015C48.7227 34.6351 48.7369 34.5639 48.7369 34.4921C48.7369 34.4203 48.7227 34.3491 48.6952 34.2828C48.6677 34.2164 48.6274 34.1561 48.5766 34.1053ZM43.5351 44.641H22.7367C22.5917 44.641 22.4526 44.6986 22.35 44.8012C22.2474 44.9037 22.1898 45.0428 22.1898 45.1879C22.1898 45.3329 22.2474 45.472 22.35 45.5746C22.4526 45.6771 22.5917 45.7348 22.7367 45.7348H43.5351C43.6801 45.7348 43.8192 45.6771 43.9218 45.5746C44.0243 45.472 44.0819 45.3329 44.0819 45.1879C44.0819 45.0428 44.0243 44.9037 43.9218 44.8012C43.8192 44.6986 43.6801 44.641 43.5351 44.641ZM22.7367 41.9992H28.0714C28.2164 41.9992 28.3555 41.9416 28.4581 41.839C28.5607 41.7365 28.6183 41.5974 28.6183 41.4523C28.6183 41.3073 28.5607 41.1682 28.4581 41.0656C28.3555 40.9631 28.2164 40.9055 28.0714 40.9055H22.7367C22.5917 40.9055 22.4526 40.9631 22.35 41.0656C22.2474 41.1682 22.1898 41.3073 22.1898 41.4523C22.1898 41.5974 22.2474 41.7365 22.35 41.839C22.4526 41.9416 22.5917 41.9992 22.7367 41.9992Z" fill="black"/>
</g>
<defs>
<clipPath id="clip0_978_15110">
<rect width="40" height="40" fill="white" transform="translate(11 11)"/>
</clipPath>
</defs>
</svg>
