<svg width="363" height="363" viewBox="0 0 363 363" fill="none" xmlns="http://www.w3.org/2000/svg">
<g clip-path="url(#clip0_112_7724)">
<path d="M291.524 222.984H302.159V246.342H291.524V222.984Z" fill="#90A4B7"/>
<path d="M291.524 292.18H302.159V315.538H291.524V292.18Z" fill="#90A4B7"/>
<path d="M296.842 96.3928C293.904 96.3928 291.524 98.7736 291.524 101.71V110.218C291.524 113.155 293.904 115.535 296.842 115.535C299.779 115.535 302.159 113.155 302.159 110.218V101.71C302.159 98.7736 299.778 96.3928 296.842 96.3928Z" fill="#90A4B7"/>
<path d="M275.34 69.2415H264.799C264.947 71.1486 265.03 73.0657 265.03 74.9736C265.03 76.605 264.971 78.2434 264.862 79.8762H275.34C278.277 79.8762 280.657 77.4955 280.657 74.5588C280.657 71.6222 278.277 69.2415 275.34 69.2415Z" fill="#90A4B7"/>
<path d="M296.729 89.3086C296.974 89.3086 297.22 89.2916 297.469 89.2568C300.378 88.852 302.407 86.1664 302.003 83.2574C301.412 79.0134 299.21 75.2324 295.802 72.6106C293.473 70.8197 290.135 71.2557 288.345 73.5833C286.555 75.9109 286.99 79.2495 289.317 81.0404C290.501 81.9508 291.265 83.2588 291.469 84.7236C291.84 87.3837 294.118 89.3086 296.729 89.3086Z" fill="#90A4B7"/>
<path d="M296.842 148.858C293.904 148.858 291.524 151.238 291.524 154.175V162.683C291.524 165.619 293.904 168 296.842 168C299.779 168 302.159 165.619 302.159 162.683V154.175C302.159 151.238 299.778 148.858 296.842 148.858Z" fill="#90A4B7"/>
<path d="M296.842 122.625C293.904 122.625 291.524 125.006 291.524 127.943V136.45C291.524 139.387 293.904 141.768 296.842 141.768C299.779 141.768 302.159 139.387 302.159 136.45V127.943C302.159 125.006 299.778 122.625 296.842 122.625Z" fill="#90A4B7"/>
<path d="M130.68 333.14H122.172C119.236 333.14 116.855 335.52 116.855 338.457C116.855 341.394 119.236 343.774 122.172 343.774H130.68C133.617 343.774 135.998 341.394 135.998 338.457C135.998 335.52 133.617 333.14 130.68 333.14Z" fill="#90A4B7"/>
<path d="M104.448 333.14H104.109C102.686 333.14 101.329 332.609 100.285 331.646C98.1284 329.654 94.7635 329.788 92.7713 331.946C90.779 334.103 90.9137 337.467 93.0712 339.46C96.0851 342.242 100.005 343.774 104.109 343.774H104.448C107.384 343.774 109.765 341.394 109.765 338.457C109.765 335.52 107.384 333.14 104.448 333.14Z" fill="#90A4B7"/>
<path d="M98.4702 318.824V310.316C98.4702 307.379 96.0895 304.999 93.1528 304.999C90.2162 304.999 87.8354 307.379 87.8354 310.316V318.824C87.8354 321.76 90.2162 324.141 93.1528 324.141C96.0895 324.141 98.4702 321.76 98.4702 318.824Z" fill="#90A4B7"/>
<path d="M93.1528 297.909C96.0895 297.909 98.4702 295.528 98.4702 292.591V284.083C98.4702 281.147 96.0895 278.766 93.1528 278.766C90.2162 278.766 87.8354 281.147 87.8354 284.083V292.591C87.8354 295.528 90.2162 297.909 93.1528 297.909Z" fill="#90A4B7"/>
<path d="M183.145 333.14H174.637C171.701 333.14 169.32 335.52 169.32 338.457C169.32 341.394 171.701 343.774 174.637 343.774H183.145C186.082 343.774 188.462 341.394 188.462 338.457C188.462 335.52 186.082 333.14 183.145 333.14Z" fill="#90A4B7"/>
<path d="M231.393 333.14H227.102C224.165 333.14 221.785 335.52 221.785 338.457C221.785 341.394 224.165 343.774 227.102 343.774H231.393V333.14Z" fill="#90A4B7"/>
<path d="M209.377 333.14H200.87C197.932 333.14 195.552 335.52 195.552 338.457C195.552 341.394 197.932 343.774 200.87 343.774H209.377C212.315 343.774 214.695 341.394 214.695 338.457C214.695 335.52 212.315 333.14 209.377 333.14Z" fill="#90A4B7"/>
<path d="M156.913 333.14H148.405C145.468 333.14 143.087 335.52 143.087 338.457C143.087 341.394 145.468 343.774 148.405 343.774H156.913C159.849 343.774 162.23 341.394 162.23 338.457C162.23 335.52 159.849 333.14 156.913 333.14Z" fill="#90A4B7"/>
<path d="M117.93 267.565C117.93 244.302 136.855 225.378 160.117 225.378C160.165 225.378 160.211 225.382 160.257 225.382V123.32L151.115 132.462C150.45 133.127 149.567 133.493 148.628 133.493C147.851 133.493 147.118 133.242 146.51 132.766C141.813 129.088 137.566 124.842 133.889 120.144C132.812 118.769 132.943 116.789 134.192 115.54L144.839 104.893C146.366 103.366 146.709 101.039 145.691 99.1017C144.239 96.336 143.031 93.4178 142.102 90.4302C141.452 88.3422 139.565 86.9398 137.405 86.9398H122.342C120.576 86.9398 119.084 85.6332 118.873 83.9004C118.514 80.9517 118.332 77.9485 118.332 74.9736C118.332 74.8353 118.337 74.6971 118.338 74.5588H35.5527C33.6158 74.5588 31.7582 75.3281 30.3885 76.6978L2.13901 104.947C0.769248 106.317 0 108.175 0 110.112V267.974C0 272.008 3.26984 275.278 7.30396 275.278H118.65C118.185 272.775 117.93 270.2 117.93 267.565Z" fill="#FFE8B0"/>
<path d="M30.3112 267.974V110.112C30.3112 108.175 31.0805 106.316 32.4502 104.947L60.6997 76.6971C62.0695 75.3274 63.927 74.5581 65.8639 74.5581H35.5527C33.6158 74.5581 31.7582 75.3274 30.3885 76.6971L2.13901 104.947C0.769248 106.317 0 108.175 0 110.112V267.974C0 272.008 3.26984 275.278 7.30396 275.278H37.6152C33.581 275.278 30.3112 272.008 30.3112 267.974Z" fill="#FFDD8A"/>
<path d="M118.115 131.123H42.1426C39.206 131.123 36.8252 128.742 36.8252 125.806C36.8252 122.869 39.206 120.488 42.1426 120.488H118.115C121.052 120.488 123.433 122.869 123.433 125.806C123.433 128.742 121.052 131.123 118.115 131.123Z" fill="#E8A400"/>
<path d="M118.115 157.662H42.1426C39.206 157.662 36.8252 155.282 36.8252 152.345C36.8252 149.408 39.206 147.028 42.1426 147.028H118.115C121.052 147.028 123.433 149.408 123.433 152.345C123.433 155.282 121.052 157.662 118.115 157.662Z" fill="#E8A400"/>
<path d="M118.115 184.084H42.1426C39.206 184.084 36.8252 181.703 36.8252 178.767C36.8252 175.83 39.206 173.449 42.1426 173.449H118.115C121.052 173.449 123.433 175.83 123.433 178.767C123.433 181.703 121.052 184.084 118.115 184.084Z" fill="#E8A400"/>
<path d="M118.115 210.743H42.1426C39.206 210.743 36.8252 208.362 36.8252 205.425C36.8252 202.489 39.206 200.108 42.1426 200.108H118.115C121.052 200.108 123.433 202.489 123.433 205.425C123.433 208.362 121.052 210.743 118.115 210.743Z" fill="#E8A400"/>
<path d="M76.1993 237.283H42.1426C39.206 237.283 36.8252 234.902 36.8252 231.965C36.8252 229.029 39.206 226.648 42.1426 226.648H76.1993C79.136 226.648 81.5167 229.029 81.5167 231.965C81.5167 234.902 79.136 237.283 76.1993 237.283Z" fill="#E8A400"/>
<path d="M160.117 310.461C183.807 310.461 203.013 291.256 203.013 267.565C203.013 243.874 183.807 224.669 160.117 224.669C136.426 224.669 117.221 243.874 117.221 267.565C117.221 291.256 136.426 310.461 160.117 310.461Z" fill="#7FB800"/>
<path d="M141.722 267.565C141.722 248.133 154.648 231.727 172.367 226.455C168.484 225.299 164.375 224.669 160.117 224.669C136.426 224.669 117.221 243.874 117.221 267.565C117.221 291.256 136.426 310.461 160.117 310.461C164.375 310.461 168.484 309.831 172.367 308.676C154.648 303.403 141.722 286.998 141.722 267.565Z" fill="#99C633"/>
<path d="M157.392 285.012C156.032 285.012 154.671 284.493 153.633 283.454L136.97 266.792C134.893 264.715 134.893 261.348 136.97 259.272C139.047 257.195 142.414 257.195 144.49 259.272L157.392 272.175L175.745 253.822C177.822 251.746 181.188 251.745 183.265 253.822C185.341 255.899 185.341 259.266 183.265 261.342L161.152 283.455C160.113 284.493 158.753 285.012 157.392 285.012Z" fill="white"/>
<path d="M239.024 45.5565L249.671 34.9097C251.166 33.4151 251.334 31.0308 250.031 29.3668C246.316 24.6209 242.035 20.3393 237.289 16.6243C235.625 15.3219 233.24 15.4899 231.746 16.9844L221.099 27.6313C219.787 28.9429 217.782 29.2194 216.139 28.3573C213.347 26.8911 210.408 25.6695 207.348 24.718C205.578 24.1679 204.356 22.5528 204.356 20.6995V5.63502C204.356 3.52224 202.792 1.71717 200.695 1.46193C197.74 1.10248 194.733 0.916016 191.682 0.916016C188.631 0.916016 185.623 1.10248 182.669 1.46193C180.572 1.71717 179.007 3.52224 179.007 5.63502V20.6988C179.007 22.5528 177.785 24.1672 176.015 24.7173C172.956 25.6688 170.015 26.8904 167.224 28.3565C165.581 29.2194 163.576 28.9429 162.264 27.6305L151.617 16.9837C150.123 15.4892 147.738 15.3212 146.074 16.6236C141.328 20.3386 137.047 24.6195 133.332 29.3661C132.029 31.0301 132.197 33.4144 133.692 34.909L144.339 45.5558C145.65 46.8674 145.927 48.8731 145.065 50.5159C143.599 53.3078 142.377 56.2473 141.426 59.3065C140.875 61.0769 139.26 62.2985 137.407 62.2985H122.343C120.23 62.2985 118.425 63.8632 118.169 65.9604C117.81 68.9147 117.624 71.9222 117.624 74.973C117.624 78.0244 117.81 81.032 118.169 83.9856C118.425 86.0828 120.23 87.6475 122.343 87.6475H137.406C139.26 87.6475 140.875 88.8691 141.425 90.6394C142.376 93.6987 143.598 96.6388 145.064 99.4301C145.927 101.073 145.65 103.079 144.338 104.39L133.691 115.037C132.197 116.532 132.029 118.916 133.331 120.58C137.046 125.326 141.327 129.607 146.074 133.322C147.738 134.625 150.122 134.457 151.617 132.962L162.263 122.315C163.575 121.004 165.581 120.727 167.223 121.589C170.015 123.056 172.955 124.277 176.014 125.229C177.784 125.779 179.006 127.394 179.006 129.247V144.311C179.006 146.424 180.571 148.229 182.669 148.484C185.623 148.843 188.63 149.03 191.681 149.03C194.732 149.03 197.74 148.843 200.694 148.484C202.791 148.229 204.356 146.424 204.356 144.311V129.247C204.356 127.393 205.577 125.779 207.348 125.229C210.407 124.277 213.347 123.056 216.138 121.589C217.781 120.727 219.787 121.003 221.098 122.315L231.745 132.962C233.24 134.457 235.624 134.625 237.288 133.322C242.034 129.607 246.316 125.326 250.031 120.58C251.333 118.916 251.165 116.532 249.67 115.037L239.024 104.39C237.712 103.079 237.436 101.073 238.298 99.4301C239.764 96.6381 240.985 93.6987 241.937 90.6394C242.487 88.8691 244.102 87.6475 245.955 87.6475H261.019C263.132 87.6475 264.937 86.0828 265.192 83.9856C265.552 81.0312 265.738 78.0237 265.738 74.973C265.738 71.9215 265.552 68.914 265.192 65.9604C264.937 63.8632 263.132 62.2985 261.019 62.2985H245.955C244.101 62.2985 242.487 61.0769 241.937 59.3065C240.985 56.2473 239.764 53.3071 238.298 50.5159C237.436 48.8738 237.713 46.8681 239.024 45.5565Z" fill="#5D7B96"/>
<path d="M179.677 111.571C164.297 106.514 153.159 92.024 153.159 74.9737C153.159 57.9233 164.297 43.4338 179.677 38.3759C186.208 30.7458 194.742 24.8804 204.466 21.5943C204.401 21.3036 204.356 21.0065 204.356 20.6988V5.63502C204.356 3.52224 202.792 1.71717 200.695 1.46193C197.74 1.10248 194.733 0.916016 191.682 0.916016C188.631 0.916016 185.623 1.10248 182.669 1.46193C180.572 1.71717 179.007 3.52224 179.007 5.63502V20.6988C179.007 22.5528 177.785 24.1672 176.015 24.7173C172.956 25.6688 170.015 26.8904 167.224 28.3565C165.581 29.2194 163.576 28.9429 162.264 27.6305L151.617 16.9837C150.123 15.4892 147.738 15.3212 146.074 16.6236C141.328 20.3386 137.047 24.6195 133.332 29.3661C132.029 31.0301 132.197 33.4144 133.692 34.909L144.339 45.5558C145.65 46.8674 145.927 48.8731 145.065 50.5159C143.599 53.3078 142.377 56.2473 141.426 59.3065C140.875 61.0769 139.26 62.2985 137.407 62.2985H122.343C120.23 62.2985 118.425 63.8632 118.169 65.9604C117.81 68.9147 117.624 71.9222 117.624 74.973C117.624 78.0237 117.81 81.032 118.169 83.9856C118.425 86.0828 120.23 87.6475 122.343 87.6475H137.406C139.26 87.6475 140.875 88.8691 141.425 90.6394C142.376 93.6987 143.598 96.6388 145.064 99.4301C145.927 101.073 145.65 103.079 144.338 104.39L133.691 115.037C132.197 116.532 132.029 118.916 133.331 120.58C137.046 125.326 141.327 129.607 146.074 133.322C147.738 134.625 150.122 134.457 151.617 132.962L162.263 122.315C163.575 121.004 165.581 120.727 167.223 121.589C170.015 123.056 172.955 124.277 176.014 125.229C177.784 125.779 179.006 127.394 179.006 129.247V144.311C179.006 146.424 180.571 148.229 182.669 148.484C185.623 148.843 188.63 149.03 191.681 149.03C194.732 149.03 197.74 148.843 200.694 148.484C202.791 148.229 204.356 146.424 204.356 144.311V129.247C204.356 128.939 204.401 128.642 204.465 128.352C194.743 125.067 186.208 119.202 179.677 111.571Z" fill="#5D7B96"/>
<path d="M191.681 108.179C210.02 108.179 224.887 93.3124 224.887 74.9736C224.887 56.6348 210.02 41.7683 191.681 41.7683C173.343 41.7683 158.476 56.6348 158.476 74.9736C158.476 93.3124 173.343 108.179 191.681 108.179Z" fill="#092946"/>
<path d="M177.118 74.9736C177.118 59.8722 187.203 47.1339 201.002 43.104C198.044 42.2405 194.919 41.7683 191.681 41.7683C173.342 41.7683 158.476 56.635 158.476 74.9736C158.476 93.3122 173.343 108.179 191.681 108.179C194.919 108.179 198.044 107.707 201.002 106.843C187.203 102.814 177.118 90.075 177.118 74.9736Z" fill="#0C355A"/>
<path d="M191.681 113.496C170.44 113.496 153.159 96.2148 153.159 74.9736C153.159 53.7324 170.44 36.4509 191.681 36.4509C212.923 36.4509 230.204 53.7324 230.204 74.9736C230.204 96.2148 212.923 113.496 191.681 113.496ZM191.681 47.0857C176.304 47.0857 163.793 59.5964 163.793 74.9736C163.793 90.3508 176.304 102.861 191.681 102.861C207.059 102.861 219.569 90.3508 219.569 74.9736C219.569 59.5964 207.059 47.0857 191.681 47.0857Z" fill="#90A4B7"/>
<path d="M191.681 86.5024C198.048 86.5024 203.21 81.3408 203.21 74.9736C203.21 68.6064 198.048 63.4448 191.681 63.4448C185.314 63.4448 180.152 68.6064 180.152 74.9736C180.152 81.3408 185.314 86.5024 191.681 86.5024Z" fill="#ECEFF3"/>
<path d="M359.348 223.692H234.336C232.319 223.692 230.684 222.057 230.684 220.04V180.089C230.684 178.072 232.319 176.437 234.336 176.437H359.348C361.365 176.437 363 178.072 363 180.089V220.041C363 222.057 361.365 223.692 359.348 223.692Z" fill="#33B8F1"/>
<path d="M255.268 220.041V180.089C255.268 178.072 256.903 176.437 258.92 176.437H234.336C232.319 176.437 230.684 178.072 230.684 180.089V220.041C230.684 222.058 232.319 223.693 234.336 223.693H258.92C256.903 223.693 255.268 222.057 255.268 220.041Z" fill="#54C3F3"/>
<path d="M337.009 205.382H256.674C253.737 205.382 251.357 203.001 251.357 200.065C251.357 197.128 253.737 194.747 256.674 194.747H337.009C339.947 194.747 342.327 197.128 342.327 200.065C342.327 203.001 339.946 205.382 337.009 205.382Z" fill="#8AD6F7"/>
<path d="M359.348 292.888H234.336C232.319 292.888 230.684 291.254 230.684 289.237V249.285C230.684 247.267 232.319 245.633 234.336 245.633H359.348C361.365 245.633 363 247.267 363 249.285V289.237C363 291.254 361.365 292.888 359.348 292.888Z" fill="#FFC333"/>
<path d="M255.268 289.237V249.285C255.268 247.267 256.903 245.633 258.92 245.633H234.336C232.319 245.633 230.684 247.267 230.684 249.285V289.237C230.684 291.254 232.319 292.888 234.336 292.888H258.92C256.903 292.888 255.268 291.254 255.268 289.237Z" fill="#FFCD54"/>
<path d="M337.009 274.578H256.674C253.737 274.578 251.357 272.198 251.357 269.261C251.357 266.324 253.737 263.944 256.674 263.944H337.009C339.947 263.944 342.327 266.324 342.327 269.261C342.327 272.198 339.946 274.578 337.009 274.578Z" fill="#E8A400"/>
<path d="M359.348 362.085H234.336C232.319 362.085 230.684 360.45 230.684 358.433V318.481C230.684 316.464 232.319 314.829 234.336 314.829H359.348C361.365 314.829 363 316.464 363 318.481V358.433C363 360.45 361.365 362.085 359.348 362.085Z" fill="#E84663"/>
<path d="M255.268 358.433V318.481C255.268 316.464 256.903 314.829 258.92 314.829H234.336C232.319 314.829 230.684 316.464 230.684 318.481V358.433C230.684 360.45 232.319 362.085 234.336 362.085H258.92C256.903 362.085 255.268 360.45 255.268 358.433Z" fill="#E84663"/>
<path d="M337.009 343.774H256.674C253.737 343.774 251.357 341.394 251.357 338.457C251.357 335.52 253.737 333.14 256.674 333.14H337.009C339.947 333.14 342.327 335.52 342.327 338.457C342.327 341.394 339.946 343.774 337.009 343.774Z" fill="#FF718A"/>
</g>
<defs>
<clipPath id="clip0_112_7724">
<rect width="363" height="363" fill="white"/>
</clipPath>
</defs>
</svg>
