<svg width="54" height="56" viewBox="0 0 54 56" fill="none" xmlns="http://www.w3.org/2000/svg">
<g clip-path="url(#clip0_1374_1797)">
<path d="M45.1082 3.2647L42.746 5.62672L42.7441 17.8916C42.7428 27.2175 42.7402 30.1941 42.7345 30.3124C42.7097 30.8277 42.6944 31.0726 42.6696 31.3716C42.5252 33.0879 42.1849 34.7699 41.6466 36.4302C41.6256 36.4945 41.6097 36.5466 41.6104 36.5466C41.618 36.5466 42.0576 36.0727 42.2268 35.8819C44.2881 33.5631 45.8131 30.8003 46.6649 27.841C47.1198 26.262 47.3794 24.6666 47.4538 22.9967C47.4729 22.5603 47.4735 22.1564 47.4716 11.5823L47.4697 0.903325L45.1082 3.2647Z" fill="#7FB800"/>
<path d="M49.271 11.826C49.2697 20.1194 49.2672 22.7893 49.2614 22.9077C49.2341 23.4726 49.222 23.6717 49.1934 24.0146C48.8753 27.8034 47.5965 31.4486 45.4748 34.6191C44.644 35.8602 43.717 36.9875 42.6501 38.0543C41.7995 38.9055 40.9292 39.6504 39.9559 40.3603C39.9037 40.3985 39.8363 40.4513 39.8064 40.4774C39.7465 40.5296 39.6804 40.5754 39.6301 40.6014C39.6117 40.6104 39.5525 40.6485 39.4997 40.6854C38.5085 41.3737 37.3996 42.0124 36.2755 42.5436C33.6022 43.8057 30.7145 44.5233 27.741 44.6639C27.0755 44.695 26.2618 44.6963 25.6034 44.6671C23.7985 44.5856 22.0388 44.2968 20.3007 43.7955C20.0335 43.7186 19.4418 43.5347 19.3547 43.5016C19.328 43.4915 19.7682 43.898 20.0621 44.155C21.8619 45.7288 23.9493 46.9896 26.1626 47.8408C28.1411 48.6023 30.21 49.0463 32.3247 49.1646C32.7402 49.1875 32.8598 49.1901 33.5271 49.1901C34.1945 49.1901 34.3141 49.1875 34.7295 49.1646C38.5842 48.949 42.2773 47.6506 45.4239 45.4031C46.6664 44.5157 47.8186 43.4806 48.8346 42.3381C50.9467 39.964 52.4698 37.1523 53.2962 34.1007C53.6741 32.7037 53.9025 31.2514 53.9744 29.7844C53.9782 29.7093 53.9845 29.5757 53.9883 29.4886C53.9941 29.369 53.9966 26.367 53.9979 17.4781L53.9998 5.62673L51.6363 3.26344L49.2729 0.900155L49.271 11.826Z" fill="#00A6ED"/>
<path d="M0.00190858 18.7504C0.00318096 27.194 0.00572573 30.1133 0.0114515 30.2297C0.0337182 30.7055 0.0483506 30.9441 0.0731621 31.2399C0.327003 34.2501 1.25775 37.186 2.79034 39.8107C3.18478 40.4869 3.62312 41.1472 4.0869 41.7662C4.48261 42.2942 4.90186 42.8025 5.33066 43.2739C5.78172 43.7688 6.37465 44.3585 6.81871 44.7523L6.86452 44.7924L6.84607 44.7523C6.83589 44.73 6.8028 44.6569 6.77227 44.5907C6.20669 43.3591 5.74354 42.0455 5.41082 40.7299C5.00047 39.1046 4.77908 37.4862 4.73327 35.7673C4.72945 35.6236 4.72691 31.1947 4.72691 23.846V12.1536L2.36345 9.79029L0 7.427L0.00190858 18.7504Z" fill="#FF4D6D"/>
<path d="M8.88953 9.79152L6.52734 12.1535V23.7632C6.52734 31.1101 6.52989 35.4734 6.53371 35.6464C6.54261 36.0529 6.55788 36.378 6.5846 36.7438C6.81045 39.8285 7.7202 42.8114 9.25216 45.4908C10.0321 46.8553 10.9641 48.1283 12.0298 49.2854C12.4039 49.6906 12.8447 50.1315 13.2494 50.5036C16.5366 53.5298 20.6934 55.4153 25.1042 55.8823C26.4268 56.0216 27.8201 56.0368 29.1472 55.9262C32.2492 55.6679 35.2743 54.7047 37.9692 53.1169C39.7315 52.0794 41.3296 50.7899 42.7203 49.2854C42.8705 49.1226 43.109 48.8547 43.1065 48.8516C43.1052 48.8503 43.062 48.8694 43.0111 48.8942C42.6669 49.0583 42.1808 49.2689 41.7533 49.4387C38.7518 50.6302 35.567 51.1423 32.2613 50.9648C31.1893 50.907 30.1091 50.7689 29.0511 50.5545C26.6177 50.0609 24.2816 49.1563 22.1363 47.8776C19.6297 46.3833 17.4177 44.3884 15.6694 42.0461C15.5937 41.9443 15.5066 41.826 15.4748 41.7827C15.4436 41.7394 15.4022 41.686 15.3825 41.6637C15.3322 41.609 15.3017 41.5664 15.2597 41.4933C15.2394 41.4589 15.1923 41.3857 15.1547 41.331C14.7781 40.7859 14.3818 40.1472 14.0459 39.5428C12.5184 36.7979 11.5972 33.7832 11.3344 30.6686C11.3051 30.3276 11.2905 30.0821 11.2657 29.5553C11.26 29.4319 11.2574 26.7633 11.2549 18.4113L11.2511 7.43014L8.88953 9.79152Z" fill="#FFB400"/>
</g>
<defs>
<clipPath id="clip0_1374_1797">
<rect width="54" height="56" fill="white"/>
</clipPath>
</defs>
</svg>
