<svg width="24" height="24" viewBox="0 0 24 24" fill="none" xmlns="http://www.w3.org/2000/svg">
<path fill-rule="evenodd" clip-rule="evenodd" d="M7.99886 0L6 3.99802L4.00114 8H0L1.99886 3.99802L4.00114 0H7.99886Z" fill="#FF4D6D"/>
<path fill-rule="evenodd" clip-rule="evenodd" d="M12 0H16.0011L14.0023 3.99802L12 8L10.0011 11.998L7.99886 16L6 19.998L4.00114 24H0L1.99886 19.998L4.00114 16L6 11.998L7.99886 8L10.0011 3.99802L12 0Z" fill="#FFB400"/>
<path fill-rule="evenodd" clip-rule="evenodd" d="M20.0023 0H24L22.0011 3.99802L20.0023 8L18 11.998L16.0011 16L14.0023 19.998L12 24H7.99886L10.0011 19.998L12 16L14.0023 11.998L16.0011 8L18 3.99802L20.0023 0Z" fill="#00A6ED"/>
<path fill-rule="evenodd" clip-rule="evenodd" d="M20.0023 15.9999H24L22.0011 19.998L20.0023 23.9999H16.0011L18 19.998L20.0023 15.9999Z" fill="#7FB800"/>
</svg>
