<svg width="64" height="56" viewBox="0 0 64 56" fill="none" xmlns="http://www.w3.org/2000/svg">
<path fill-rule="evenodd" clip-rule="evenodd" d="M21.3303 0L16 9.25593L10.6697 18.521H0L5.33028 9.25593L10.6697 0H21.3303Z" fill="#FF4D6D"/>
<path fill-rule="evenodd" clip-rule="evenodd" d="M32 0H42.6697L37.3394 9.25593L32 18.521L26.6697 27.777L21.3303 37.042L16 46.298L10.6697 55.5631H0L5.33029 46.298L10.6697 37.042L16 27.777L21.3303 18.521L26.6697 9.25593L32 0Z" fill="#FFB400"/>
<path fill-rule="evenodd" clip-rule="evenodd" d="M53.3394 0H64L58.6697 9.25593L53.3394 18.521L48 27.777L42.6697 37.042L37.3394 46.298L32 55.5631H21.3303L26.6697 46.298L32 37.042L37.3394 27.777L42.6697 18.521L48 9.25593L53.3394 0Z" fill="#00A6ED"/>
<path fill-rule="evenodd" clip-rule="evenodd" d="M53.3394 37.0421H64L58.6697 46.298L53.3394 55.5631H42.6697L48 46.298L53.3394 37.0421Z" fill="#7FB800"/>
</svg>
