<svg width="20" height="20" viewBox="10.5 10.5 19 19" fill="none" xmlns="http://www.w3.org/2000/svg">
<path d="M18.3661 23.3325C19.7398 23.3325 20.9101 22.8506 21.8767 21.8867C22.8432 20.9227 23.3265 19.7521 23.3265 18.375C23.3265 16.996 22.8432 15.825 21.8767 14.8619C20.9101 13.899 19.7398 13.4175 18.3661 13.4175C16.9922 13.4175 15.8257 13.899 14.8665 14.8619C13.9072 15.825 13.4276 16.9953 13.4276 18.373C13.4276 19.7507 13.9072 20.9218 14.8665 21.8861C15.8257 22.8504 16.9922 23.3325 18.3661 23.3325ZM17.7921 20.6315V15.3823H18.958V20.6315H17.7921ZM14.9901 20.6315V16.9817H16.1559V20.6315H14.9901ZM20.6046 20.6315V17.7821H21.7705V20.6315H20.6046ZM26.9388 27.7484L22.2778 23.0769C21.7435 23.5198 21.1443 23.8648 20.4803 24.1117C19.8161 24.3588 19.1111 24.4823 18.3653 24.4823C16.6675 24.4823 15.2257 23.8901 14.0401 22.7057C12.8545 21.5211 12.2617 20.0754 12.2617 18.3686C12.2617 16.6619 12.8541 15.2157 14.0388 14.03C15.2237 12.8445 16.667 12.2517 18.3688 12.2517C20.0706 12.2517 21.5166 12.844 22.7069 14.0286C23.8972 15.2132 24.4923 16.6589 24.4923 18.3657C24.4923 19.109 24.3682 19.8116 24.1198 20.4736C23.8714 21.1354 23.5271 21.7307 23.0869 22.2596L27.748 26.9271L26.9388 27.7484Z" fill="#90A4B7"/>
</svg>
