<svg width="20" height="20" viewBox="0 0 20 20" fill="none" xmlns="http://www.w3.org/2000/svg">
    <path d="M8.33333 2.5C5.11167 2.5 2.5 5.11167 2.5 8.33333C2.5 11.555 5.11167 14.1667 8.33333 14.1667C9.625 14.1667 10.8083 13.7417 11.7667 13.0167L16.0417 17.2917C16.2667 17.5167 16.6333 17.5167 16.8583 17.2917C17.0833 17.0667 17.0833 16.7 16.8583 16.475L12.5833 12.2C13.3083 11.2417 13.7333 10.0583 13.7333 8.76667C13.7333 5.545 11.1217 2.93333 7.9 2.93333M8.33333 4.16667C10.5917 4.16667 12.5 6.075 12.5 8.33333C12.5 10.5917 10.5917 12.5 8.33333 12.5C6.075 12.5 4.16667 10.5917 4.16667 8.33333C4.16667 6.075 6.075 4.16667 8.33333 4.16667Z" fill="#90A4B7"/>
    <rect x="6" y="7" width="1.5" height="3" rx="0.3" fill="#90A4B7"/>
    <rect x="8" y="7" width="1.5" height="3" rx="0.3" fill="#90A4B7"/>
    <rect x="10" y="7" width="1.5" height="3" rx="0.3" fill="#90A4B7"/>
</svg>
