<svg width="17" height="17" viewBox="0 0 17 17" fill="none" xmlns="http://www.w3.org/2000/svg">
<path d="M10.1474 16.6859C9.82693 16.6859 9.5545 16.5737 9.33015 16.3493C9.10579 16.125 8.99361 15.8525 8.99361 15.532V10.1474C8.99361 9.82692 9.10579 9.55449 9.33015 9.33014C9.5545 9.10578 9.82693 8.9936 10.1474 8.9936H15.532C15.8525 8.9936 16.125 9.10578 16.3493 9.33014C16.5737 9.55449 16.6859 9.82692 16.6859 10.1474V15.532C16.6859 15.8525 16.5737 16.125 16.3493 16.3493C16.125 16.5737 15.8525 16.6859 15.532 16.6859H10.1474ZM10.1474 15.532H15.532V14.9134C15.2115 14.5149 14.82 14.1979 14.3574 13.9623C13.8947 13.7267 13.3889 13.609 12.8397 13.609C12.2906 13.609 11.7847 13.7267 11.3221 13.9623C10.8595 14.1979 10.468 14.5149 10.1474 14.9134V15.532ZM12.8397 12.8397C13.1602 12.8397 13.4327 12.7275 13.657 12.5032C13.8814 12.2788 13.9936 12.0064 13.9936 11.6859C13.9936 11.3654 13.8814 11.0929 13.657 10.8686C13.4327 10.6442 13.1602 10.5321 12.8397 10.5321C12.5192 10.5321 12.2468 10.6442 12.0224 10.8686C11.7981 11.0929 11.6859 11.3654 11.6859 11.6859C11.6859 12.0064 11.7981 12.2788 12.0224 12.5032C12.2468 12.7275 12.5192 12.8397 12.8397 12.8397ZM8.00961 5.50002C7.31625 5.50002 6.72625 5.74334 6.23961 6.22998C5.75297 6.71663 5.50965 7.30664 5.50965 8C5.50965 8.55447 5.66109 9.04164 5.96396 9.46152C6.26685 9.88138 6.66776 10.1805 7.16667 10.3589V8.94873C7.04488 8.83762 6.94659 8.69258 6.8718 8.51362C6.79701 8.33466 6.75961 8.16346 6.75961 8C6.75961 7.65278 6.88114 7.35764 7.12419 7.11458C7.36725 6.87153 7.66239 6.75 8.00961 6.75C8.20405 6.75 8.37901 6.78819 8.53446 6.86458C8.68991 6.94097 8.82319 7.04166 8.9343 7.16666H10.3525C10.1827 6.67308 9.887 6.27191 9.46553 5.96316C9.04405 5.6544 8.55875 5.50002 8.00961 5.50002ZM6.07696 15.9166L5.75965 13.3782C5.53636 13.3034 5.30746 13.1987 5.07294 13.0641C4.83843 12.9295 4.62876 12.7852 4.44392 12.6314L2.09296 13.625L0.169922 10.2917L2.20357 8.75481C2.18433 8.63088 2.17071 8.50641 2.16269 8.38141C2.15468 8.25641 2.15067 8.13195 2.15067 8.00802C2.15067 7.88942 2.15468 7.76896 2.16269 7.64662C2.17071 7.52429 2.18433 7.39048 2.20357 7.24518L0.169922 5.70833L2.09296 2.39106L4.4359 3.37664C4.63676 3.21745 4.85124 3.07188 5.07934 2.93994C5.30745 2.80798 5.53155 2.70193 5.75163 2.62181L6.07696 0.0833511H9.92305L10.2404 2.62983C10.4904 2.72064 10.7166 2.82667 10.9191 2.94793C11.1215 3.0692 11.3259 3.2121 11.532 3.37664L13.907 2.39106L15.8301 5.70833L13.9952 7.10256C14.0005 7.11324 14.0032 7.12392 14.0032 7.1346C14.0032 7.1453 14.0058 7.15598 14.0112 7.16666H12.4679C12.4541 7.09722 12.4415 7.02831 12.4303 6.95994C12.4191 6.89156 12.3996 6.82265 12.3718 6.75321L14.1955 5.375L13.375 3.95833L11.2804 4.84135C11.0016 4.54327 10.6675 4.27991 10.278 4.05129C9.88862 3.82265 9.49465 3.66079 9.09615 3.56571L8.83334 1.33333H7.17948L6.90386 3.55768C6.47864 3.65812 6.08601 3.81196 5.72596 4.01923C5.36592 4.22649 5.02244 4.49359 4.69553 4.82052L2.62501 3.95833L1.80448 5.375L3.60417 6.71635C3.53473 6.91399 3.48612 7.11965 3.45834 7.33333C3.43056 7.54701 3.41667 7.77191 3.41667 8.00802C3.41667 8.22489 3.43056 8.4375 3.45834 8.64583C3.48612 8.85416 3.53205 9.05982 3.59615 9.26281L1.80448 10.625L2.62501 12.0417L4.68751 11.1667C5.02084 11.5085 5.39717 11.7935 5.8165 12.0216C6.23585 12.2497 6.68591 12.4065 7.16667 12.492V15.9166H6.07696Z" fill="#90A4B7"/>
</svg>
