<svg width="144" height="122" viewBox="0 0 144 122" fill="none" xmlns="http://www.w3.org/2000/svg">
<g filter="url(#filter0_d_1250_988)">
<circle cx="67.5" cy="61.5" r="35.5" fill="white"/>
<circle cx="67.5" cy="61.5" r="35.046" stroke="#D6DCE5" stroke-width="0.908091"/>
</g>
<g clip-path="url(#clip0_1250_988)">
<path d="M82.4375 43.2812L83.4514 45.4416L85.7188 45.7881L84.0781 47.4694L84.4653 49.8438L82.4375 48.7229L80.4097 49.8438L80.7969 47.4694L79.1562 45.7881L81.4236 45.4416L82.4375 43.2812Z" fill="#FF4D6D"/>
<path d="M50.2812 72.8125H56.1875V78.7188H50.2812V72.8125Z" fill="#FD4C6D"/>
<path d="M53.5625 43.2812L50.2812 48.5312H56.8438L53.5625 43.2812Z" fill="#FF4D6D"/>
<path d="M82.4375 78.7188C84.2497 78.7188 85.7188 77.2497 85.7188 75.4375C85.7188 73.6253 84.2497 72.1562 82.4375 72.1562C80.6253 72.1562 79.1562 73.6253 79.1562 75.4375C79.1562 77.2497 80.6253 78.7188 82.4375 78.7188Z" fill="#FD4C6D"/>
<path d="M68 69.5312C72.7117 69.5312 76.5312 65.7117 76.5312 61C76.5312 56.2883 72.7117 52.4688 68 52.4688C63.2883 52.4688 59.4688 56.2883 59.4688 61C59.4688 65.7117 63.2883 69.5312 68 69.5312Z" fill="white"/>
<path d="M74.5625 64.9375C74.5625 64.5894 74.4242 64.2556 74.1781 64.0094C73.9319 63.7633 73.5981 63.625 73.25 63.625H69.3125C68.9644 63.625 68.6306 63.7633 68.3844 64.0094C68.1383 64.2556 68 64.5894 68 64.9375V69.5312C69.2533 69.5323 70.4913 69.2567 71.6258 68.7239C72.7602 68.1912 73.763 67.4145 74.5625 66.4494V64.9375Z" fill="#FFB400"/>
<path d="M66.6875 63.625H62.75C62.4019 63.625 62.0681 63.7633 61.8219 64.0094C61.5758 64.2556 61.4375 64.5894 61.4375 64.9375V66.4494C62.237 67.4145 63.2398 68.1912 64.3742 68.7239C65.5087 69.2567 66.7467 69.5323 68 69.5312V64.9375C68 64.5894 67.8617 64.2556 67.6156 64.0094C67.3694 63.7633 67.0356 63.625 66.6875 63.625Z" fill="#FFB400"/>
<path d="M80.8764 58.4732H80.0241C79.7538 58.4686 79.4921 58.3776 79.2773 58.2134C79.0626 58.0492 78.906 57.8206 78.8307 57.561C78.6351 56.9461 78.3872 56.3492 78.0895 55.7768C77.9587 55.5396 77.9074 55.2668 77.9432 54.9983C77.9789 54.7299 78.0998 54.48 78.288 54.2853L78.8941 53.6792C77.9443 52.269 76.731 51.0557 75.3208 50.1059L74.7147 50.712C74.52 50.9002 74.2701 51.0211 74.0016 51.0568C73.7332 51.0925 73.4604 51.0412 73.2232 50.9104C72.6508 50.6128 72.0538 50.3649 71.439 50.1693C71.1794 50.0939 70.9507 49.9374 70.7865 49.7226C70.6224 49.5079 70.5313 49.2461 70.5267 48.9759V48.1236C68.8585 47.7921 67.1415 47.7921 65.4733 48.1236V48.9759C65.4687 49.2461 65.3776 49.5079 65.2135 49.7226C65.0493 49.9374 64.8206 50.0939 64.561 50.1693C63.9462 50.3649 63.3492 50.6128 62.7768 50.9104C62.5396 51.0412 62.2668 51.0925 61.9984 51.0568C61.7299 51.0211 61.48 50.9002 61.2853 50.712L60.6792 50.1059C59.269 51.0557 58.0557 52.269 57.1059 53.6792L57.712 54.2853C57.9002 54.48 58.0211 54.7299 58.0568 54.9983C58.0926 55.2668 58.0413 55.5396 57.9105 55.7768C57.6128 56.3492 57.3649 56.9461 57.1693 57.561C57.094 57.8206 56.9374 58.0492 56.7227 58.2134C56.5079 58.3776 56.2462 58.4686 55.9759 58.4732H55.1236C54.7921 60.1414 54.7921 61.8585 55.1236 63.5267H55.9759C56.2462 63.5313 56.5079 63.6224 56.7227 63.7865C56.9374 63.9507 57.094 64.1793 57.1693 64.4389C57.3649 65.0538 57.6128 65.6507 57.9105 66.2232C58.0413 66.4603 58.0926 66.7332 58.0568 67.0016C58.0211 67.2701 57.9002 67.52 57.712 67.7147L57.1059 68.3207C58.0556 69.7309 59.269 70.9443 60.6792 71.8941L61.2853 71.288C61.48 71.0998 61.7299 70.9789 61.9984 70.9432C62.2668 70.9074 62.5396 70.9587 62.7768 71.0895C63.3492 71.3871 63.9462 71.6351 64.561 71.8307C64.8206 71.906 65.0493 72.0625 65.2135 72.2773C65.3776 72.4921 65.4687 72.7538 65.4733 73.0241V73.8764C67.1415 74.2079 68.8585 74.2079 70.5267 73.8764V73.0241C70.5313 72.7538 70.6224 72.4921 70.7865 72.2773C70.9507 72.0625 71.1794 71.906 71.439 71.8307C72.0538 71.6351 72.6508 71.3871 73.2232 71.0895C73.4604 70.9587 73.7332 70.9074 74.0016 70.9432C74.2701 70.9789 74.52 71.0998 74.7147 71.288L75.3208 71.8941C76.731 70.9443 77.9444 69.7309 78.8941 68.3207L78.288 67.7147C78.0998 67.52 77.9789 67.2701 77.9432 67.0016C77.9074 66.7332 77.9587 66.4603 78.0895 66.2232C78.3872 65.6507 78.6351 65.0538 78.8307 64.4389C78.906 64.1793 79.0626 63.9507 79.2773 63.7865C79.4921 63.6224 79.7538 63.5313 80.0241 63.5267H80.8764C81.2079 61.8585 81.2079 60.1414 80.8764 58.4732ZM68 69.5312C66.3127 69.5312 64.6632 69.0309 63.2603 68.0935C61.8573 67.156 60.7639 65.8237 60.1182 64.2648C59.4724 62.7059 59.3035 60.9905 59.6327 59.3356C59.9619 57.6807 60.7744 56.1606 61.9675 54.9675C63.1606 53.7744 64.6807 52.9619 66.3356 52.6327C67.9905 52.3035 69.7059 52.4724 71.2648 53.1182C72.8237 53.7639 74.156 54.8573 75.0935 56.2603C76.0309 57.6632 76.5312 59.3127 76.5312 61C76.5312 63.2626 75.6324 65.4326 74.0325 67.0325C72.4326 68.6324 70.2626 69.5312 68 69.5312Z" fill="#00A6ED"/>
<path d="M64.7188 63.625C65.8061 63.625 66.6875 62.7436 66.6875 61.6562C66.6875 60.5689 65.8061 59.6875 64.7188 59.6875C63.6314 59.6875 62.75 60.5689 62.75 61.6562C62.75 62.7436 63.6314 63.625 64.7188 63.625Z" fill="#FFB400"/>
<path d="M71.2812 63.625C72.3686 63.625 73.25 62.7436 73.25 61.6562C73.25 60.5689 72.3686 59.6875 71.2812 59.6875C70.1939 59.6875 69.3125 60.5689 69.3125 61.6562C69.3125 62.7436 70.1939 63.625 71.2812 63.625Z" fill="#FFB400"/>
<path d="M68 59.0312C69.0873 59.0312 69.9688 58.1498 69.9688 57.0625C69.9688 55.9752 69.0873 55.0938 68 55.0938C66.9127 55.0938 66.0312 55.9752 66.0312 57.0625C66.0312 58.1498 66.9127 59.0312 68 59.0312Z" fill="#FFB400"/>
<path d="M68 70.1875C69.8171 70.1875 71.5934 69.6487 73.1043 68.6391C74.6152 67.6296 75.7928 66.1947 76.4881 64.5159C77.1835 62.8371 77.3655 60.9898 77.011 59.2076C76.6565 57.4254 75.7814 55.7884 74.4965 54.5035C73.2116 53.2186 71.5746 52.3435 69.7924 51.989C68.0102 51.6345 66.1629 51.8165 64.4841 52.5119C62.8053 53.2072 61.3704 54.3848 60.3609 55.8957C59.3513 57.4066 58.8125 59.1829 58.8125 61C58.8152 63.4358 59.7841 65.7711 61.5065 67.4935C63.2289 69.2159 65.5642 70.1848 68 70.1875ZM62.0938 66.1914V64.9375C62.094 64.7635 62.1632 64.5967 62.2862 64.4737C62.4092 64.3507 62.576 64.2815 62.75 64.2813H66.6875C66.8615 64.2815 67.0283 64.3507 67.1513 64.4737C67.2743 64.5967 67.3435 64.7635 67.3438 64.9375V68.8418C65.3165 68.6717 63.4344 67.7215 62.0938 66.1914ZM63.4062 61.6563C63.4062 61.3967 63.4832 61.1429 63.6274 60.9271C63.7717 60.7112 63.9766 60.543 64.2165 60.4437C64.4563 60.3443 64.7202 60.3183 64.9748 60.369C65.2294 60.4196 65.4633 60.5446 65.6468 60.7282C65.8304 60.9117 65.9554 61.1456 66.006 61.4002C66.0567 61.6548 66.0307 61.9187 65.9313 62.1585C65.832 62.3984 65.6638 62.6033 65.4479 62.7476C65.2321 62.8918 64.9783 62.9688 64.7188 62.9688C64.3708 62.9684 64.0371 62.83 63.7911 62.5839C63.545 62.3379 63.4066 62.0042 63.4062 61.6563ZM68.6562 68.8418V64.9375C68.6565 64.7635 68.7257 64.5967 68.8487 64.4737C68.9717 64.3507 69.1385 64.2815 69.3125 64.2813H73.25C73.424 64.2815 73.5908 64.3507 73.7138 64.4737C73.8368 64.5967 73.906 64.7635 73.9062 64.9375V66.1914C72.5656 67.7215 70.6835 68.6717 68.6562 68.8418ZM69.9688 61.6563C69.9688 61.3967 70.0457 61.1429 70.1899 60.9271C70.3342 60.7112 70.5392 60.543 70.779 60.4437C71.0188 60.3443 71.2827 60.3183 71.5373 60.369C71.7919 60.4196 72.0258 60.5446 72.2093 60.7282C72.3929 60.9117 72.5179 61.1456 72.5685 61.4002C72.6192 61.6548 72.5932 61.9187 72.4938 62.1585C72.3945 62.3984 72.2263 62.6033 72.0104 62.7476C71.7946 62.8918 71.5408 62.9688 71.2812 62.9688C70.9333 62.9684 70.5996 62.83 70.3536 62.5839C70.1075 62.3379 69.9691 62.0042 69.9688 61.6563ZM68 53.125C69.3267 53.1219 70.6327 53.4549 71.796 54.0928C72.9593 54.7307 73.9421 55.6529 74.6528 56.7732C75.3635 57.8936 75.7789 59.1757 75.8602 60.4999C75.9416 61.8242 75.6863 63.1475 75.1181 64.3464C75.0067 63.9944 74.7982 63.6809 74.5165 63.4421C74.2348 63.2033 73.8915 63.0489 73.5259 62.9966C73.7725 62.5928 73.904 62.1294 73.9062 61.6563C73.9062 60.9601 73.6297 60.2924 73.1374 59.8001C72.6451 59.3078 71.9774 59.0313 71.2812 59.0313C70.5851 59.0313 69.9174 59.3078 69.4251 59.8001C68.9328 60.2924 68.6562 60.9601 68.6562 61.6563C68.6585 62.1294 68.79 62.5928 69.0366 62.9966C68.6504 63.0509 68.2894 63.2195 68 63.4808C67.7106 63.2195 67.3496 63.0509 66.9634 62.9966C67.2099 62.5928 67.3415 62.1294 67.3438 61.6563C67.3438 60.9601 67.0672 60.2924 66.5749 59.8001C66.0826 59.3078 65.4149 59.0313 64.7188 59.0313C64.0226 59.0313 63.3549 59.3078 62.8626 59.8001C62.3703 60.2924 62.0938 60.9601 62.0938 61.6563C62.096 62.1294 62.2276 62.5928 62.4741 62.9966C62.1085 63.0489 61.7652 63.2033 61.4835 63.4421C61.2018 63.6809 60.9933 63.9944 60.8819 64.3464C60.3137 63.1475 60.0584 61.8242 60.1398 60.4999C60.2211 59.1757 60.6365 57.8936 61.3472 56.7732C62.0579 55.6529 63.0407 54.7307 64.204 54.0928C65.3673 53.4549 66.6733 53.1219 68 53.125Z" fill="black"/>
<path d="M60.3128 72.4385C60.4391 72.5235 60.5911 72.562 60.7426 72.5473C60.8942 72.5326 61.036 72.4657 61.1437 72.3581L61.7493 71.7521C61.8453 71.6623 61.9678 71.6059 62.0985 71.5914C62.2292 71.5769 62.3611 71.6051 62.4744 71.6717C63.0802 71.9865 63.7117 72.2489 64.3621 72.4561C64.489 72.4891 64.6019 72.5621 64.6839 72.6645C64.7659 72.7668 64.8126 72.8929 64.8171 73.0239V73.8763C64.8171 74.0285 64.87 74.176 64.9668 74.2936C65.0636 74.4111 65.1983 74.4912 65.3478 74.5203C67.0988 74.8681 68.9012 74.8681 70.6522 74.5203C70.8017 74.4912 70.9364 74.4111 71.0332 74.2936C71.13 74.176 71.1829 74.0285 71.1829 73.8763V73.0239C71.1874 72.8929 71.2341 72.7668 71.3161 72.6645C71.3981 72.5622 71.511 72.4891 71.6379 72.4561C72.2883 72.2489 72.9198 71.9865 73.5256 71.6717C73.6389 71.6051 73.7707 71.5769 73.9013 71.5913C74.0319 71.6057 74.1544 71.662 74.2504 71.7518L74.8563 72.3581C74.964 72.4657 75.1058 72.5326 75.2574 72.5473C75.4089 72.562 75.5609 72.5235 75.6872 72.4385C77.1688 71.4427 78.4428 70.1687 79.4386 68.6872C79.5236 68.5608 79.562 68.4089 79.5473 68.2573C79.5327 68.1057 79.4658 67.964 79.3581 67.8563L78.7522 67.2507C78.6623 67.1547 78.6059 67.0322 78.5914 66.9014C78.5769 66.7707 78.6051 66.6389 78.6718 66.5255C78.9865 65.9198 79.249 65.2883 79.4562 64.6378C79.4891 64.5109 79.5622 64.3981 79.6645 64.3161C79.7668 64.2341 79.8929 64.1873 80.024 64.1828H80.8763C81.0286 64.1829 81.1761 64.1299 81.2936 64.0331C81.4111 63.9363 81.4913 63.8016 81.5204 63.6522C81.8682 61.9011 81.8682 60.0988 81.5204 58.3477C81.4913 58.1983 81.4111 58.0636 81.2936 57.9668C81.1761 57.8699 81.0286 57.817 80.8763 57.8171H80.024C79.8929 57.8125 79.7669 57.7658 79.6645 57.6838C79.5622 57.6018 79.4891 57.489 79.4562 57.362C79.249 56.7116 78.9865 56.0801 78.6718 55.4744C78.6051 55.3611 78.5769 55.2293 78.5914 55.0986C78.6058 54.968 78.6621 54.8455 78.7519 54.7495L79.3581 54.1436C79.4658 54.0359 79.5327 53.8941 79.5473 53.7426C79.562 53.591 79.5236 53.4391 79.4386 53.3127C78.4428 51.8312 77.1688 50.5571 75.6872 49.5614C75.5609 49.4764 75.4089 49.4379 75.2574 49.4526C75.1058 49.4673 74.964 49.5341 74.8563 49.6418L74.2507 50.2478C74.1547 50.3376 74.0322 50.3939 73.9015 50.4084C73.7708 50.4229 73.6389 50.3948 73.5256 50.3282C72.9198 50.0134 72.2883 49.751 71.6379 49.5438C71.511 49.5108 71.3981 49.4377 71.3161 49.3354C71.2341 49.2331 71.1874 49.107 71.1829 48.976V48.1236C71.1829 47.9713 71.13 47.8238 71.0332 47.7063C70.9364 47.5888 70.8017 47.5086 70.6522 47.4795C68.901 47.1335 67.099 47.1335 65.3478 47.4795C65.1983 47.5086 65.0636 47.5888 64.9668 47.7063C64.87 47.8238 64.8171 47.9713 64.8171 48.1236V48.9759C64.8126 49.107 64.7659 49.2331 64.6839 49.3354C64.6019 49.4377 64.489 49.5108 64.3621 49.5438C63.7117 49.751 63.0802 50.0134 62.4744 50.3282C62.3611 50.3947 62.2293 50.4229 62.0987 50.4085C61.9681 50.394 61.8456 50.3378 61.7496 50.2481L61.1437 49.6418C61.036 49.5342 60.8942 49.4673 60.7426 49.4526C60.5911 49.4379 60.4391 49.4764 60.3128 49.5614C58.8312 50.5571 57.5572 51.8312 56.5614 53.3127C56.4764 53.4391 56.438 53.591 56.4527 53.7426C56.4673 53.8941 56.5342 54.0359 56.6419 54.1436L57.2478 54.7492C57.3377 54.8452 57.3941 54.9677 57.4086 55.0984C57.4231 55.2291 57.3949 55.361 57.3282 55.4744C57.0135 56.0801 56.751 56.7116 56.5438 57.362C56.5109 57.489 56.4378 57.6018 56.3355 57.6838C56.2332 57.7658 56.1071 57.8125 55.976 57.8171H55.1237C54.9714 57.817 54.8239 57.8699 54.7064 57.9668C54.5888 58.0636 54.5087 58.1983 54.4796 58.3477C54.1318 60.0988 54.1318 61.9011 54.4796 63.6522C54.5087 63.8016 54.5888 63.9363 54.7064 64.0331C54.8239 64.1299 54.9714 64.1829 55.1237 64.1828H55.976C56.1071 64.1873 56.2331 64.2341 56.3355 64.3161C56.4378 64.3981 56.5109 64.5109 56.5438 64.6378C56.751 65.2883 57.0135 65.9198 57.3282 66.5255C57.3949 66.6388 57.4231 66.7706 57.4086 66.9012C57.3942 67.0319 57.3379 67.1543 57.2481 67.2503L56.6419 67.8563C56.5342 67.964 56.4673 68.1057 56.4527 68.2573C56.438 68.4089 56.4764 68.5608 56.5614 68.6872C57.5572 70.1687 58.8312 71.4427 60.3128 72.4385ZM58.4927 65.9205C58.2126 65.3812 57.9791 64.819 57.7948 64.2399C57.677 63.8477 57.437 63.5033 57.1099 63.257C56.7828 63.0106 56.3855 62.8752 55.976 62.8703H55.6754C55.4832 61.6308 55.4832 60.3691 55.6754 59.1296H55.976C56.3855 59.1247 56.7828 58.9893 57.1099 58.7429C57.4371 58.4966 57.677 58.1522 57.7948 57.76C57.9791 57.181 58.2126 56.6187 58.4927 56.0794C58.6877 55.7184 58.7622 55.3045 58.7053 54.8982C58.6483 54.4919 58.4629 54.1144 58.1761 53.821L57.9605 53.6056C58.7039 52.5956 59.5957 51.7038 60.6057 50.9604L60.8213 51.1764C61.1148 51.463 61.4922 51.6483 61.8984 51.7052C62.3047 51.7621 62.7185 51.6876 63.0794 51.4927C63.6187 51.2126 64.181 50.9791 64.7601 50.7948C65.1523 50.677 65.4966 50.437 65.743 50.1099C65.9893 49.7827 66.1248 49.3855 66.1296 48.976V48.6754C67.3692 48.4838 68.6308 48.4838 69.8704 48.6754V48.976C69.8752 49.3855 70.0107 49.7827 70.257 50.1099C70.5033 50.437 70.8477 50.6769 71.2399 50.7947C71.819 50.9791 72.3813 51.2126 72.9206 51.4926C73.2815 51.688 73.6954 51.7627 74.1018 51.7057C74.5082 51.6487 74.8857 51.4631 75.179 51.1761L75.3943 50.9604C76.4043 51.7038 77.2961 52.5956 78.0395 53.6056L77.8235 53.8212C77.5369 54.1147 77.3515 54.4921 77.2947 54.8984C77.2378 55.3047 77.3123 55.7185 77.5073 56.0794C77.7874 56.6187 78.0209 57.181 78.2052 57.76C78.323 58.1522 78.563 58.4966 78.8901 58.7429C79.2172 58.9893 79.6145 59.1247 80.024 59.1296H80.3246C80.5168 60.3691 80.5168 61.6308 80.3246 62.8703H80.024C79.6145 62.8752 79.2172 63.0106 78.8901 63.2569C78.563 63.5033 78.323 63.8476 78.2052 64.2398C78.0209 64.8189 77.7874 65.3812 77.5073 65.9205C77.3123 66.2815 77.2378 66.6954 77.2947 67.1017C77.3517 67.508 77.5371 67.8855 77.8239 68.1789L78.0395 68.3943C77.2961 69.4042 76.4043 70.296 75.3943 71.0394L75.1787 70.8235C74.8853 70.5366 74.5079 70.3512 74.1016 70.2943C73.6953 70.2374 73.2815 70.312 72.9206 70.5072C72.3813 70.7873 71.819 71.0208 71.2399 71.2051C70.8477 71.3229 70.5034 71.5629 70.257 71.89C70.0107 72.2171 69.8752 72.6144 69.8704 73.0239V73.3245C68.6308 73.5161 67.3692 73.5161 66.1296 73.3245V73.0239C66.1248 72.6144 65.9893 72.2172 65.743 71.89C65.4967 71.5629 65.1523 71.3229 64.7601 71.2051C64.181 71.0208 63.6187 70.7873 63.0794 70.5072C62.7184 70.3125 62.3046 70.2381 61.8983 70.2951C61.492 70.352 61.1146 70.5373 60.821 70.8238L60.6057 71.0395C59.5957 70.2961 58.7039 69.4043 57.9605 68.3943L58.1765 68.1786C58.4631 67.8852 58.6484 67.5078 58.7053 67.1015C58.7622 66.6952 58.6877 66.2814 58.4927 65.9205Z" fill="black"/>
<path d="M68 59.6875C68.5192 59.6875 69.0267 59.5335 69.4584 59.2451C69.8901 58.9567 70.2265 58.5467 70.4252 58.067C70.6239 57.5874 70.6758 57.0596 70.5746 56.5504C70.4733 56.0412 70.2233 55.5735 69.8562 55.2063C69.489 54.8392 69.0213 54.5892 68.5121 54.4879C68.0029 54.3867 67.4751 54.4386 66.9955 54.6373C66.5158 54.836 66.1058 55.1725 65.8174 55.6041C65.529 56.0358 65.375 56.5433 65.375 57.0625C65.3758 57.7585 65.6526 58.4257 66.1447 58.9178C66.6368 59.4099 67.3041 59.6867 68 59.6875ZM68 55.75C68.2596 55.75 68.5133 55.827 68.7292 55.9712C68.945 56.1154 69.1133 56.3204 69.2126 56.5602C69.3119 56.8001 69.3379 57.064 69.2873 57.3186C69.2366 57.5732 69.1116 57.807 68.9281 57.9906C68.7445 58.1741 68.5107 58.2991 68.2561 58.3498C68.0015 58.4004 67.7376 58.3744 67.4977 58.2751C67.2579 58.1758 67.0529 58.0075 66.9087 57.7917C66.7645 57.5758 66.6875 57.3221 66.6875 57.0625C66.6878 56.7145 66.8262 56.3809 67.0723 56.1348C67.3184 55.8887 67.652 55.7503 68 55.75Z" fill="black"/>
<path d="M86.341 45.5797C86.3027 45.4653 86.2335 45.3636 86.1412 45.2859C86.0489 45.2082 85.937 45.1574 85.8177 45.1391L83.8967 44.8459L83.0315 43.0025C82.9786 42.8896 82.8946 42.7942 82.7894 42.7273C82.6842 42.6605 82.5621 42.625 82.4374 42.625C82.3128 42.625 82.1907 42.6605 82.0855 42.7273C81.9803 42.7942 81.8963 42.8896 81.8434 43.0025L80.9782 44.8459L79.0572 45.1391C78.9379 45.1573 78.826 45.2081 78.7337 45.2858C78.6414 45.3635 78.5723 45.4651 78.534 45.5795C78.4957 45.6939 78.4896 45.8167 78.5165 45.9343C78.5434 46.0519 78.6022 46.1598 78.6864 46.2462L80.0957 47.6904L79.7618 49.738C79.7419 49.8595 79.7567 49.9842 79.8044 50.0978C79.852 50.2114 79.9307 50.3093 80.0314 50.3802C80.1321 50.4512 80.2508 50.4923 80.3738 50.499C80.4968 50.5057 80.6192 50.4776 80.727 50.4179L82.4374 49.4727L84.1479 50.4179C84.2557 50.4776 84.3781 50.5057 84.5011 50.499C84.6241 50.4923 84.7427 50.4512 84.8434 50.3802C84.9441 50.3093 85.0228 50.2114 85.0705 50.0978C85.1182 49.9843 85.1329 49.8596 85.1131 49.738L84.7792 47.6904L86.1884 46.2462C86.2727 46.1599 86.3315 46.052 86.3584 45.9344C86.3854 45.8168 86.3793 45.6941 86.341 45.5797ZM83.6083 47.0111C83.5366 47.0846 83.4831 47.1739 83.4522 47.2719C83.4213 47.3698 83.4139 47.4737 83.4305 47.575L83.6003 48.6158L82.755 48.1486C82.6578 48.0948 82.5485 48.0666 82.4374 48.0666C82.3263 48.0666 82.2171 48.0948 82.1199 48.1486L81.2746 48.6158L81.4444 47.5751C81.461 47.4737 81.4536 47.3698 81.4227 47.2719C81.3918 47.1739 81.3383 47.0846 81.2666 47.0111L80.518 46.244L81.5226 46.0905C81.6292 46.0741 81.73 46.0318 81.8164 45.9672C81.9027 45.9027 81.9718 45.8179 82.0177 45.7203L82.4374 44.826L82.8572 45.7204C82.9031 45.8179 82.9722 45.9027 83.0585 45.9672C83.1449 46.0318 83.2457 46.0741 83.3523 46.0905L84.3568 46.244L83.6083 47.0111Z" fill="black"/>
<path d="M50.2812 72.1562C50.1072 72.1562 49.9403 72.2254 49.8172 72.3485C49.6941 72.4715 49.625 72.6385 49.625 72.8125V78.7188C49.625 78.8928 49.6941 79.0597 49.8172 79.1828C49.9403 79.3059 50.1072 79.375 50.2812 79.375H56.1875C56.3615 79.375 56.5285 79.3059 56.6515 79.1828C56.7746 79.0597 56.8438 78.8928 56.8438 78.7188V72.8125C56.8438 72.6385 56.7746 72.4715 56.6515 72.3485C56.5285 72.2254 56.3615 72.1562 56.1875 72.1562H50.2812ZM55.5312 78.0625H50.9375V73.4688H55.5312V78.0625Z" fill="black"/>
<path d="M50.2812 49.1876H56.8437C56.9608 49.1876 57.0758 49.1562 57.1767 49.0968C57.2777 49.0373 57.3608 48.9519 57.4176 48.8495C57.4744 48.7471 57.5028 48.6313 57.4997 48.5142C57.4967 48.3971 57.4623 48.283 57.4003 48.1837L54.1191 42.9337C54.0561 42.8447 53.9726 42.7721 53.8758 42.722C53.7789 42.6719 53.6715 42.6458 53.5625 42.6458C53.4534 42.6458 53.346 42.6719 53.2491 42.722C53.1523 42.7721 53.0689 42.8447 53.0059 42.9337L49.7246 48.1837C49.6626 48.283 49.6283 48.3971 49.6252 48.5142C49.6222 48.6313 49.6505 48.7471 49.7073 48.8495C49.7641 48.9519 49.8473 49.0373 49.9482 49.0968C50.0491 49.1562 50.1641 49.1876 50.2812 49.1876ZM53.5625 44.5195L55.6597 47.8751H51.4652L53.5625 44.5195Z" fill="black"/>
<path d="M86.375 75.4375C86.375 74.6587 86.1441 73.8975 85.7114 73.2499C85.2788 72.6024 84.6638 72.0977 83.9443 71.7997C83.2248 71.5017 82.4331 71.4237 81.6693 71.5757C80.9055 71.7276 80.2039 72.1026 79.6533 72.6533C79.1026 73.2039 78.7276 73.9055 78.5757 74.6693C78.4237 75.4331 78.5017 76.2248 78.7997 76.9443C79.0977 77.6638 79.6024 78.2788 80.2499 78.7114C80.8975 79.1441 81.6587 79.375 82.4375 79.375C83.4814 79.3739 84.4823 78.9587 85.2205 78.2205C85.9587 77.4823 86.3739 76.4814 86.375 75.4375ZM79.8125 75.4375C79.8125 74.9183 79.9665 74.4108 80.2549 73.9791C80.5433 73.5475 80.9533 73.211 81.433 73.0123C81.9126 72.8136 82.4404 72.7617 82.9496 72.8629C83.4588 72.9642 83.9265 73.2142 84.2937 73.5813C84.6608 73.9485 84.9108 74.4162 85.0121 74.9254C85.1133 75.4346 85.0614 75.9624 84.8627 76.442C84.664 76.9217 84.3276 77.3317 83.8959 77.6201C83.4642 77.9085 82.9567 78.0625 82.4375 78.0625C81.7416 78.0617 81.0743 77.7849 80.5822 77.2928C80.0901 76.8007 79.8133 76.1335 79.8125 75.4375Z" fill="black"/>
<path d="M51.5146 70.5149C49.7838 67.5124 48.9048 64.0945 48.9723 60.6294C49.0399 57.1644 50.0513 53.7834 51.8978 50.8505L50.7885 50.1494C48.814 53.2848 47.7324 56.8994 47.6601 60.6039C47.5879 64.3085 48.5277 67.9625 50.3784 71.1725L51.5146 70.5149Z" fill="black"/>
<path d="M78.1725 78.6216L77.5149 77.4854C74.6237 79.1517 71.3457 80.0296 68.0087 80.0312C64.6716 80.0328 61.3927 79.158 58.5 77.4943L57.8438 78.6312C60.9363 80.41 64.4418 81.3454 68.0094 81.3437C71.577 81.342 75.0816 80.4033 78.1725 78.6216Z" fill="black"/>
<path d="M84.8364 52.1192C86.3339 54.9632 87.0879 58.1399 87.028 61.3536C86.9682 64.5672 86.0965 67.7136 84.4941 70.4999L85.631 71.1562C87.3443 68.1775 88.2763 64.8138 88.3403 61.3781C88.4043 57.9424 87.5982 54.5463 85.997 51.5059L84.8364 52.1192Z" fill="black"/>
<path d="M77.5148 44.5146L78.1723 43.3784C74.8429 41.4586 71.0381 40.5203 67.1978 40.6721C63.3576 40.8239 59.6387 42.0596 56.4712 44.2361L57.2159 45.3166C60.1789 43.2811 63.6574 42.1255 67.2495 41.9836C70.8415 41.8417 74.4004 42.7191 77.5148 44.5146Z" fill="black"/>
</g>
<defs>
<filter id="filter0_d_1250_988" x="0.216816" y="-0.334638" width="143.647" height="143.647" filterUnits="userSpaceOnUse" color-interpolation-filters="sRGB">
<feFlood flood-opacity="0" result="BackgroundImageFix"/>
<feColorMatrix in="SourceAlpha" type="matrix" values="0 0 0 0 0 0 0 0 0 0 0 0 0 0 0 0 0 0 127 0" result="hardAlpha"/>
<feOffset dx="4.54045" dy="9.989"/>
<feGaussianBlur stdDeviation="18.1618"/>
<feComposite in2="hardAlpha" operator="out"/>
<feColorMatrix type="matrix" values="0 0 0 0 0.130044 0 0 0 0 0.396943 0 0 0 0 0.687863 0 0 0 0.07 0"/>
<feBlend mode="normal" in2="BackgroundImageFix" result="effect1_dropShadow_1250_988"/>
<feBlend mode="normal" in="SourceGraphic" in2="effect1_dropShadow_1250_988" result="shape"/>
</filter>
<clipPath id="clip0_1250_988">
<rect width="42" height="42" fill="white" transform="translate(47 40)"/>
</clipPath>
</defs>
</svg>
