<svg width="20" height="20" viewBox="0 0 20 20" fill="none" xmlns="http://www.w3.org/2000/svg">
<path d="M8.33335 9.93052C7.41669 9.93052 6.65511 9.62728 6.04862 9.02079C5.44215 8.41431 5.13892 7.65273 5.13892 6.73606C5.13892 5.8194 5.44215 5.05783 6.04862 4.45135C6.65511 3.84487 7.41669 3.54163 8.33335 3.54163C9.25002 3.54163 10.0116 3.84487 10.6181 4.45135C11.2246 5.05783 11.5278 5.8194 11.5278 6.73606C11.5278 7.65273 11.2246 8.41431 10.6181 9.02079C10.0116 9.62728 9.25002 9.93052 8.33335 9.93052ZM1.66669 16.6111V14.5278C1.66669 14.0509 1.78706 13.6157 2.02779 13.2222C2.26854 12.8287 2.61114 12.5278 3.05558 12.3194C3.95836 11.9027 4.84262 11.5879 5.70835 11.375C6.5741 11.162 7.4491 11.0555 8.33335 11.0555H8.59029C8.67826 11.0555 8.75928 11.0602 8.83335 11.0694C8.74076 11.2824 8.66784 11.4965 8.6146 11.7118C8.56137 11.927 8.51854 12.1713 8.48612 12.4444H8.33335C7.46762 12.4444 6.64702 12.5439 5.87156 12.743C5.09609 12.9421 4.35187 13.2176 3.63892 13.5694C3.4491 13.6666 3.30442 13.8032 3.20487 13.9791C3.10533 14.1551 3.05556 14.3379 3.05556 14.5278V15.2222H8.54169C8.61576 15.4861 8.70835 15.7326 8.81946 15.9618C8.93057 16.1909 9.0602 16.4074 9.20835 16.6111H1.66669ZM13.7084 17.5L13.4861 16.1666C13.2732 16.0972 13.0614 16.0057 12.8507 15.8923C12.6401 15.7789 12.4537 15.6481 12.2917 15.5L11.125 15.7916L10.5 14.7361L11.4722 13.8472C11.4445 13.699 11.4306 13.5231 11.4306 13.3194C11.4306 13.1157 11.4445 12.9398 11.4722 12.7916L10.5 11.9027L11.125 10.8472L12.2917 11.1389C12.4537 10.9907 12.6401 10.8599 12.8507 10.7465C13.0614 10.6331 13.2732 10.5416 13.4861 10.4722L13.7084 9.13885H15.0139L15.2361 10.4722C15.4491 10.5416 15.6609 10.6342 15.8716 10.75C16.0822 10.8657 16.2685 11 16.4306 11.1528L17.5972 10.8472L18.2222 11.9166L17.25 12.8055C17.2778 12.9444 17.2917 13.118 17.2917 13.3264C17.2917 13.5347 17.2778 13.7083 17.25 13.8472L18.2222 14.7361L17.5972 15.7916L16.4306 15.5C16.2685 15.6481 16.0822 15.7789 15.8716 15.8923C15.6609 16.0057 15.4491 16.0972 15.2361 16.1666L15.0139 17.5H13.7084ZM14.3611 14.9861C14.8473 14.9861 15.2466 14.8298 15.5591 14.5173C15.8716 14.2048 16.0278 13.8055 16.0278 13.3194C16.0278 12.8333 15.8716 12.434 15.5591 12.1215C15.2466 11.809 14.8473 11.6527 14.3611 11.6527C13.875 11.6527 13.4757 11.809 13.1632 12.1215C12.8507 12.434 12.6945 12.8333 12.6945 13.3194C12.6945 13.8055 12.8507 14.2048 13.1632 14.5173C13.4757 14.8298 13.875 14.9861 14.3611 14.9861ZM8.33335 8.54163C8.84724 8.54163 9.27664 8.36917 9.62154 8.02427C9.96646 7.67937 10.1389 7.24997 10.1389 6.73606C10.1389 6.22217 9.96646 5.79278 9.62154 5.44788C9.27664 5.10297 8.84724 4.93052 8.33335 4.93052C7.81947 4.93052 7.39007 5.10297 7.04517 5.44788C6.70025 5.79278 6.52779 6.22217 6.52779 6.73606C6.52779 7.24997 6.70025 7.67937 7.04517 8.02427C7.39007 8.36917 7.81947 8.54163 8.33335 8.54163Z" fill="#90A4B7"/>
</svg>
