<svg width="63" height="63" viewBox="0 0 63 63" fill="none" xmlns="http://www.w3.org/2000/svg">
<circle cx="31.27" cy="31.27" r="31.27" fill="#FF718A"/>
<g clip-path="url(#clip0_1008_9436)">
<path d="M16.7619 23.5591L11.6055 27.6999V46.8412C11.6055 48.6104 13.0396 50.0445 14.8087 50.0445H46.8412C48.6103 50.0445 50.0445 48.6104 50.0445 46.8412V27.6999L44.888 23.6843" fill="#72D8FF"/>
<path d="M44.5753 11.6055H17.0742V41.377H44.5753V11.6055Z" fill="#EDF2FA"/>
<path d="M36.0595 41.7309H25.1628L11.6055 27.6999V46.8413C11.6055 48.6104 13.0396 50.0445 14.8087 50.0445H46.8412C48.6103 50.0445 50.0445 48.6104 50.0445 46.8413V27.6999L36.0595 41.7309Z" fill="#FEDA9B"/>
<path d="M14.2661 49.4976L25.5936 39.2074C28.5605 36.5123 33.0895 36.5123 36.0564 39.2074L47.3838 49.4976H14.2661Z" fill="#FFB954"/>
<path d="M38.7712 20.9879C39.7629 19.9962 39.7629 18.3882 38.7712 17.3964C37.7794 16.4047 36.1714 16.4047 35.1797 17.3964L38.7712 20.9879Z" fill="#FF5D5D"/>
<path d="M30.4914 30.5373L27.5505 33.4782C26.2091 34.8195 24.0344 34.8195 22.693 33.4782C21.3517 32.1368 21.3517 29.9621 22.693 28.6207L25.6339 25.6798L30.4914 30.5373Z" fill="#FF5D5D"/>
<path d="M30.4924 30.5387L33.9344 33.9808L31.8441 36.0711L28.4009 32.6278L30.4924 30.5387Z" fill="#6A80FF"/>
<path d="M30.4927 30.5387L25.6343 25.6798L30.9586 13.1749L42.9931 25.2094L30.4927 30.5387Z" fill="#4DBAF6"/>
<path d="M39.7848 26.577L42.9928 25.2094L30.9583 13.1749L29.5918 16.3841L39.7848 26.577Z" fill="white"/>
<path d="M25.7411 15.4283C25.5958 15.5736 25.5122 15.7752 25.5122 15.9807C25.5122 16.1862 25.5958 16.3877 25.7411 16.533C25.8864 16.6784 26.088 16.762 26.2935 16.762C26.499 16.762 26.7005 16.6784 26.8459 16.533C26.9912 16.3877 27.0748 16.1862 27.0748 15.9807C27.0748 15.7752 26.9912 15.5736 26.8459 15.4283C26.7005 15.283 26.499 15.1994 26.2935 15.1994C26.088 15.1994 25.8864 15.2829 25.7411 15.4283Z" fill="black"/>
<path d="M20.2681 16.762H23.4067C23.8382 16.762 24.188 16.4121 24.188 15.9807C24.188 15.5493 23.8382 15.1994 23.4067 15.1994H20.2681C19.8366 15.1994 19.4868 15.5493 19.4868 15.9807C19.4868 16.4121 19.8366 16.762 20.2681 16.762Z" fill="black"/>
<path d="M20.2681 21.1371H24.0334C24.4649 21.1371 24.8147 20.7873 24.8147 20.3558C24.8147 19.9244 24.4649 19.5746 24.0334 19.5746H20.2681C19.8366 19.5746 19.4868 19.9244 19.4868 20.3558C19.4868 20.7873 19.8366 21.1371 20.2681 21.1371Z" fill="black"/>
<path d="M50.5242 27.0841C50.5243 27.0838 50.5244 27.0837 50.5245 27.0835L45.3681 23.0679C45.3644 23.0651 45.3605 23.0628 45.3568 23.06V22.2309C45.3568 21.7995 45.007 21.4496 44.5755 21.4496C44.144 21.4496 43.7942 21.7995 43.7942 22.2309V32.8303C43.7942 32.8351 43.7949 32.8397 43.7949 32.8445L37.3302 39.3092L36.5817 38.6292C35.4118 37.5664 33.9862 36.8578 32.4584 36.5618L34.4869 34.5333C34.792 34.2282 34.792 33.7335 34.4869 33.4283L31.8626 30.8039L43.2993 25.9281C43.538 25.8263 43.7106 25.6126 43.7599 25.3578C43.8092 25.1031 43.7288 24.8404 43.5453 24.6569L39.8109 20.9224C40.127 20.4065 40.2965 19.8124 40.2965 19.1921C40.2965 18.305 39.951 17.4711 39.3238 16.8438C38.6966 16.2166 37.8627 15.8712 36.9756 15.8712C36.3553 15.8712 35.7612 16.0407 35.2453 16.3568L31.5108 12.6223C31.3272 12.4387 31.0647 12.358 30.8097 12.4077C30.5548 12.4571 30.3412 12.6299 30.2395 12.8686L24.9744 25.2343L22.1405 28.0681C21.3442 28.8644 20.9056 29.9232 20.9056 31.0493C20.9056 32.1754 21.3442 33.2342 22.1405 34.0304C22.9368 34.8267 23.9956 35.2653 25.1217 35.2653C26.2479 35.2653 27.3066 34.8268 28.1029 34.0304L28.4008 33.7325L31.077 36.4087C30.9931 36.4062 30.9091 36.4045 30.8248 36.4045C28.6915 36.4045 26.6471 37.1945 25.068 38.629L24.3195 39.3089L17.8548 32.8442C17.8549 32.8395 17.8555 32.8348 17.8555 32.83V12.3868H26.6048C27.0363 12.3868 27.3861 12.0369 27.3861 11.6055C27.3861 11.1741 27.0363 10.8242 26.6048 10.8242H17.0745C16.643 10.8242 16.2932 11.1741 16.2932 11.6055V22.9352C16.2865 22.9402 16.2794 22.9446 16.2728 22.9499L11.1163 27.0907C11.1164 27.0909 11.1164 27.091 11.1165 27.0911C10.9384 27.2343 10.8242 27.4536 10.8242 27.6999V46.8413C10.8242 49.0383 12.6116 50.8258 14.8087 50.8258H46.8412C49.0383 50.8258 50.8258 49.0383 50.8258 46.8413V27.6999C50.8258 27.4494 50.7075 27.2271 50.5242 27.0841ZM29.8576 17.7547L38.4148 26.3119L30.672 29.6129L26.5596 25.5005L29.8576 17.7547ZM36.9757 17.4339C37.4453 17.4339 37.8869 17.6168 38.219 17.949C38.5511 18.281 38.734 18.7225 38.734 19.1922C38.734 19.386 38.7012 19.5743 38.6412 19.7529L36.4151 17.5266C36.5936 17.4667 36.7819 17.4339 36.9757 17.4339ZM31.2241 14.5454L34.6265 17.9479C34.6269 17.9482 34.6272 17.9486 34.6275 17.949C34.6278 17.9494 34.6282 17.9496 34.6286 17.9499L38.2189 21.5403L38.219 21.5404L38.2192 21.5405L41.6229 24.9442L39.9643 25.6514L30.5176 16.2047L31.2241 14.5454ZM25.1219 33.7029C24.4131 33.7029 23.7467 33.4269 23.2456 32.9257C22.7444 32.4246 22.4683 31.7582 22.4683 31.0495C22.4683 30.3407 22.7444 29.6743 23.2456 29.1731L25.634 26.7847L29.3864 30.5375L26.9981 32.9257C26.497 33.4269 25.8307 33.7029 25.1219 33.7029ZM30.4912 31.6425L32.8296 33.9808L31.8442 34.9661L29.5059 32.6277L30.4912 31.6425ZM45.3568 25.0395L48.8666 27.7728L45.3568 31.2826V25.0395ZM26.1189 39.7857C28.8019 37.3485 32.8482 37.3485 35.5311 39.7857L45.9639 49.2632H15.6861L18.2662 46.9194H24.0011C24.4326 46.9194 24.7823 46.5695 24.7823 46.1381C24.7823 45.7067 24.4326 45.3568 24.0011 45.3568H19.9863L26.1189 39.7857ZM16.2932 24.9375V31.2827L12.7741 27.7636L16.2932 24.9375ZM12.3868 46.8413V29.5861L23.1618 40.3611L13.7408 48.9194C13.7187 48.9395 13.6983 48.9608 13.679 48.9827C12.9113 48.576 12.3868 47.7689 12.3868 46.8413ZM47.971 48.9827C47.9517 48.9607 47.9313 48.9395 47.9092 48.9194L38.4883 40.3611L49.2632 29.5861V46.8413C49.2632 47.7689 48.7387 48.576 47.971 48.9827Z" fill="black"/>
<path d="M41.4502 15.5738C41.6501 15.5738 41.8501 15.4975 42.0027 15.345L45.1587 12.1889C45.4638 11.8838 45.4638 11.3891 45.1587 11.0839C44.8536 10.7789 44.3589 10.7789 44.0538 11.0839L40.8978 14.24C40.5927 14.5451 40.5927 15.0398 40.8978 15.345C41.0503 15.4975 41.2503 15.5738 41.4502 15.5738Z" fill="black"/>
<path d="M38.5137 13.9562C38.9452 13.9562 39.295 13.6063 39.295 13.1749V11.6055C39.295 11.1741 38.9452 10.8242 38.5137 10.8242C38.0822 10.8242 37.7324 11.1741 37.7324 11.6055V13.1749C37.7324 13.6063 38.0822 13.9562 38.5137 13.9562Z" fill="black"/>
<path d="M44.6292 16.8808H43.0074C42.5759 16.8808 42.2261 17.2307 42.2261 17.6621C42.2261 18.0935 42.5759 18.4434 43.0074 18.4434H44.6292C45.0607 18.4434 45.4105 18.0935 45.4105 17.6621C45.4105 17.2307 45.0607 16.8808 44.6292 16.8808Z" fill="black"/>
<path d="M27.2046 46.9194C27.4101 46.9194 27.6109 46.8358 27.757 46.6904C27.9023 46.5451 27.9859 46.3436 27.9859 46.1381C27.9859 45.9326 27.9023 45.731 27.757 45.5857C27.6109 45.4404 27.4101 45.3568 27.2046 45.3568C26.9984 45.3568 26.7976 45.4403 26.6515 45.5857C26.5062 45.731 26.4233 45.9326 26.4233 46.1381C26.4233 46.3436 26.5062 46.5451 26.6515 46.6904C26.7976 46.8358 26.9991 46.9194 27.2046 46.9194Z" fill="black"/>
</g>
<defs>
<clipPath id="clip0_1008_9436">
<rect width="40.0015" height="40.0015" fill="white" transform="translate(10.8242 10.8242)"/>
</clipPath>
</defs>
</svg>
