<svg width="63" height="63" viewBox="0 0 63 63" fill="none" xmlns="http://www.w3.org/2000/svg">
<circle cx="31.27" cy="31.27" r="31.27" fill="#FFCD54"/>
<g clip-path="url(#clip0_978_15110)">
<path d="M22.0326 32.281C16.3723 32.281 11.7842 36.8691 11.7842 42.5294L27.7467 45.5405L30.864 37.3271C29.1071 34.2091 25.8667 32.281 22.0326 32.281Z" fill="#67CCD1"/>
<path d="M20.8365 39.9673C19.0757 39.9673 15.8143 39.9673 14.3462 39.9673C13.6666 39.9673 13.0152 40.2369 12.5348 40.718C10.9275 42.3027 12.0846 45.1068 14.3463 45.0914L25.9607 44.9729C25.9606 42.1431 23.6663 39.9673 20.8365 39.9673Z" fill="#27A2CC"/>
<path d="M11.7842 45.0915H50.2156V50.2157H11.7842V45.0915Z" fill="#D46B5C"/>
<path d="M18.3318 32.9701C14.5007 34.4542 11.7842 38.1741 11.7842 42.5294L26.2447 45.2572C22.7055 41.8874 19.9642 37.6876 18.3318 32.9701Z" fill="#27A2CC"/>
<path d="M26.0726 45.0915H11.7842V50.2157H33.134C30.5396 48.8439 28.164 47.1137 26.0726 45.0915Z" fill="#B55348"/>
<path d="M47.6532 27.1569C49.0287 27.1837 50.2429 25.9711 50.2152 24.5947C50.2152 21.7515 50.2152 17.1896 50.2152 14.3464C50.2152 13.6668 49.9456 13.0155 49.4646 12.5351C48.9843 12.054 48.3328 11.7843 47.6532 11.7843C44.2443 11.7843 38.2516 11.7843 34.8428 11.7843C33.4672 11.7575 32.2531 12.9701 32.2807 14.3464V24.5947C32.2539 25.9704 33.4665 27.1844 34.8428 27.1569H38.6859L41.248 29.719L43.8101 27.1569H47.6532Z" fill="#FDCB50"/>
<path d="M41.2482 22.0327C38.4184 22.0327 36.124 24.3271 36.124 27.1569H38.6861L41.2483 29.719L43.8102 27.1569H46.3723C46.3723 24.3271 44.078 22.0327 41.2482 22.0327Z" fill="#DB4B86"/>
<path d="M41.2481 16.9085C42.6623 16.9085 43.8102 18.0563 43.8102 19.4706C43.6835 22.8653 38.8122 22.8644 38.686 19.4706C38.686 18.0563 39.8338 16.9085 41.2481 16.9085Z" fill="#DB4B86"/>
<path d="M22.0324 22.0327C24.8603 22.0327 27.1566 24.3289 27.1566 27.1569C26.9024 33.9461 17.1614 33.9442 16.9082 27.1568C16.9082 24.3289 19.2045 22.0327 22.0324 22.0327Z" fill="#67CCD1"/>
<path d="M32.2809 33.5621L28.0576 44.7846L46.3724 45.0915L50.2156 33.5621H32.2809Z" fill="#D2DCFD"/>
<path d="M50.0198 11.9808C49.3883 11.3483 48.5478 11 47.6534 11H34.843C33.9487 11 33.1083 11.3483 32.4774 11.98C31.8449 12.6116 31.4966 13.452 31.4966 14.3464V24.5947C31.4966 25.4891 31.8449 26.3295 32.4767 26.9604C33.1083 27.5929 33.9487 27.9412 34.843 27.9412H38.3613L40.6936 30.2736C40.8407 30.4206 41.0402 30.5033 41.2482 30.5033C41.4562 30.5033 41.6557 30.4207 41.8028 30.2736L44.1352 27.9412H47.6535C48.5479 27.9412 49.3883 27.5929 50.0192 26.9611C50.6516 26.3294 51 25.489 51 24.5947V14.3464C50.9999 13.4521 50.6516 12.6117 50.0198 11.9808ZM49.4312 24.5947C49.4507 25.5498 48.6093 26.3922 47.6534 26.3725H43.8103C43.6023 26.3725 43.4028 26.4551 43.2557 26.6023L41.2482 28.6098L39.2407 26.6023C39.0937 26.4552 38.8941 26.3725 38.6861 26.3725H34.843C33.8883 26.3918 33.0454 25.5507 33.0653 24.5947V14.3464C33.0459 13.3917 33.8871 12.5487 34.843 12.5686H47.6534C48.1284 12.5686 48.5746 12.7535 48.9106 13.09C49.2463 13.4253 49.4312 13.8715 49.4312 14.3464V24.5947Z" fill="black"/>
<path d="M38.6861 40.1111H39.9671C40.4003 40.1111 40.7514 39.76 40.7514 39.3268C40.7514 38.8936 40.4003 38.5425 39.9671 38.5425H38.6861C37.6472 38.5808 37.6468 40.0727 38.6861 40.1111Z" fill="black"/>
<path d="M50.2157 44.3072H47.4607L50.9598 33.8101C51.0395 33.5709 50.9994 33.308 50.8519 33.1035C50.7045 32.8989 50.4678 32.7777 50.2157 32.7777H32.281C31.9544 32.7777 31.662 32.9802 31.547 33.2858L30.6681 35.6213C29.3262 33.8945 27.502 32.6464 25.4107 32.0002C30.0944 28.7444 27.8136 21.2682 22.0326 21.2484C16.2353 21.2696 13.9674 28.778 18.6799 32.0182C14.2307 33.4406 11 37.6145 11 42.5294C11 43.1992 11.1986 43.8231 11.5388 44.347C11.226 44.45 11 44.7442 11 45.0915V50.2157C11 50.6489 11.3511 51 11.7843 51H50.2157C50.6489 51 51 50.6489 51 50.2157V45.0915C51 44.6584 50.6489 44.3072 50.2157 44.3072ZM32.8239 34.3464H49.1275L45.8073 44.3072H29.0754C29.8973 42.1231 32.0311 36.4532 32.8239 34.3464ZM17.6928 27.1569C17.6928 24.7638 19.6396 22.817 22.0326 22.817C27.7822 23.0352 27.7806 31.2795 22.0325 31.4968C19.6397 31.4967 17.6928 29.5499 17.6928 27.1569ZM22.0327 33.0653C25.3705 33.0653 28.3208 34.68 29.9977 37.4027L27.3994 44.3072H26.7064C26.4251 41.4002 23.7615 39.1305 20.8366 39.1831C20.8366 39.183 14.3464 39.183 14.3464 39.183C13.9092 39.183 13.4852 39.2667 13.0919 39.4256C14.3796 35.7271 17.9009 33.0653 22.0327 33.0653ZM14.3464 44.3072C13.3661 44.3072 12.5686 43.5097 12.5686 42.5294C12.5492 41.5744 13.3906 40.7319 14.3464 40.7516H20.8367C23.0368 40.7516 24.8056 42.2673 25.1248 44.3071H14.3464V44.3072ZM49.4314 49.4314H12.5686V45.8758H46.378H49.4314V49.4314Z" fill="black"/>
</g>
<defs>
<clipPath id="clip0_978_15110">
<rect width="40" height="40" fill="white" transform="translate(11 11)"/>
</clipPath>
</defs>
</svg>
