<svg width="20" height="20" viewBox="0 0 20 20" fill="none" xmlns="http://www.w3.org/2000/svg">
<path d="M13.3333 11.625C12.6296 11.625 12.0417 11.3889 11.5694 10.9167C11.0972 10.4444 10.8611 9.85647 10.8611 9.15277C10.8611 8.44907 11.0972 7.86111 11.5694 7.38889C12.0417 6.91667 12.6296 6.68056 13.3333 6.68056C14.037 6.68056 14.625 6.91667 15.0972 7.38889C15.5695 7.86111 15.8056 8.44907 15.8056 9.15277C15.8056 9.85647 15.5695 10.4444 15.0972 10.9167C14.625 11.3889 14.037 11.625 13.3333 11.625ZM8.33333 16.6667V15.2222C8.33333 14.9503 8.39815 14.6914 8.52777 14.4454C8.65741 14.1994 8.83334 14.0185 9.05556 13.9028C9.68056 13.4815 10.3576 13.1678 11.0868 12.9618C11.816 12.7558 12.5648 12.6528 13.3333 12.6528C14.1018 12.6528 14.8484 12.7627 15.5729 12.9826C16.2975 13.2025 16.9769 13.5093 17.6111 13.9028C17.8241 14.0463 17.9977 14.2338 18.1319 14.4653C18.2662 14.6968 18.3333 14.9491 18.3333 15.2222V16.6667H8.33333ZM9.69444 15.125V15.2778H16.9722V15.125C16.4491 14.7917 15.8611 14.5278 15.2083 14.3333C14.5556 14.1389 13.9306 14.0417 13.3333 14.0417C12.7361 14.0417 12.1088 14.1389 11.4514 14.3333C10.794 14.5278 10.2083 14.7917 9.69444 15.125ZM13.3333 10.2361C13.6528 10.2361 13.9132 10.1354 14.1146 9.93404C14.316 9.73263 14.4167 9.47221 14.4167 9.15277C14.4167 8.83332 14.316 8.57291 14.1146 8.37152C13.9132 8.17013 13.6528 8.06943 13.3333 8.06943C13.0139 8.06943 12.7535 8.17013 12.5521 8.37152C12.3507 8.57291 12.25 8.83332 12.25 9.15277C12.25 9.47221 12.3507 9.73263 12.5521 9.93404C12.7535 10.1354 13.0139 10.2361 13.3333 10.2361ZM2.5 11.5278V10.1389H8.97221V11.5278H2.5ZM2.5 4.7222V3.33333H12.4028V4.7222H2.5ZM9.59723 8.125H2.5V6.7361H10.2778C10.1111 6.93518 9.97234 7.15009 9.86144 7.38083C9.75054 7.61158 9.66247 7.85963 9.59723 8.125Z" fill="#90A4B7"/>
</svg>
