<svg width="17" height="17" viewBox="0 0 17 17" fill="none" xmlns="http://www.w3.org/2000/svg">
<path d="M11.6523 14.915L13.8734 12.6939V14.5144H14.6106V11.4375H11.5337V12.1747H13.3542L11.133 14.3958L11.6523 14.915ZM2.4231 15.0833C2.00751 15.0833 1.65254 14.9361 1.35821 14.6418C1.06386 14.3475 0.916687 13.9925 0.916687 13.5769V2.4231C0.916687 2.00751 1.06386 1.65254 1.35821 1.35821C1.65254 1.06386 2.00751 0.916687 2.4231 0.916687H13.5769C13.9925 0.916687 14.3475 1.06386 14.6418 1.35821C14.9361 1.65254 15.0833 2.00751 15.0833 2.4231V7.6939C14.8782 7.6063 14.6728 7.53206 14.4671 7.47117C14.2615 7.41026 14.0502 7.36165 13.8333 7.32533V2.4231C13.8333 2.35899 13.8066 2.30022 13.7532 2.24679C13.6998 2.19338 13.641 2.16667 13.5769 2.16667H2.4231C2.35899 2.16667 2.30022 2.19338 2.24679 2.24679C2.19337 2.30022 2.16667 2.35899 2.16667 2.4231V13.5769C2.16667 13.641 2.19337 13.6998 2.24679 13.7532C2.30022 13.8066 2.35899 13.8333 2.4231 13.8333H7.3045C7.33547 14.0641 7.38141 14.2823 7.44231 14.488C7.5032 14.6936 7.57745 14.8921 7.66506 15.0833H2.4231ZM2.16667 13V13.8333V2.16667V7.32533V7.26283V13ZM4.04169 11.8622H7.38944C7.42576 11.6453 7.47971 11.434 7.55129 11.2284C7.62288 11.0227 7.70087 10.8173 7.78527 10.6122H4.04169V11.8622ZM4.04169 8.62498H9.32535C9.68433 8.32051 10.0673 8.06544 10.4744 7.85977C10.8814 7.65412 11.3173 7.50802 11.782 7.42148V7.37502H4.04169V8.62498ZM4.04169 5.38781H11.9583V4.13783H4.04169V5.38781ZM13 16.798C11.9594 16.798 11.0743 16.4332 10.3446 15.7035C9.61487 14.9738 9.25002 14.0887 9.25002 13.0481C9.25002 12.0075 9.61487 11.1223 10.3446 10.3926C11.0743 9.66295 11.9594 9.2981 13 9.2981C14.0406 9.2981 14.9257 9.66295 15.6554 10.3926C16.3851 11.1223 16.75 12.0075 16.75 13.0481C16.75 14.0887 16.3851 14.9738 15.6554 15.7035C14.9257 16.4332 14.0406 16.798 13 16.798Z" fill="#90A4B7"/>
</svg>
