<svg width="125" height="101" viewBox="0 0 125 101" fill="none" xmlns="http://www.w3.org/2000/svg">
<path d="M124.7 81C124.7 91.88 115.88 100.7 105 100.7L20.0003 100.7C9.12034 100.7 0.300361 91.88 0.30036 81L0.300356 15.0429L124.7 15.0429L124.7 81Z" fill="white" stroke="#D2DBE2" stroke-width="0.6"/>
<path d="M21.556 72.734C21.0848 72.3503 20.482 72.1691 19.8786 72.2298C19.2752 72.2904 18.72 72.5881 18.3337 73.0581C18.1412 73.2934 17.9968 73.5646 17.9088 73.8562C17.8208 74.1478 17.7909 74.454 17.8208 74.7572C17.8508 75.0604 17.94 75.3547 18.0833 75.6232C18.2266 75.8917 18.4212 76.129 18.6559 76.3217L21.7862 78.8909L18.6559 81.4833C18.2167 81.8804 17.9461 82.4321 17.9001 83.0243C17.8541 83.6164 18.0363 84.2037 18.4088 84.6646C18.7814 85.1254 19.3158 85.4246 19.9016 85.5003C20.4874 85.576 21.0797 85.4223 21.556 85.071L26.8959 80.6964C27.1408 80.5031 27.3442 80.262 27.4938 79.9874C27.6434 79.7129 27.736 79.4107 27.7662 79.0992C27.7963 78.7876 27.7632 78.4731 27.669 78.1747C27.5748 77.8764 27.4214 77.6003 27.2181 77.3633C27.1225 77.244 27.0144 77.1354 26.8959 77.0392L21.556 72.734Z" fill="#EBF2F9"/>
<path d="M30.1116 84.0413C29.4925 84.0413 28.8988 84.2748 28.461 84.6906C28.0233 85.1063 27.7773 85.6701 27.7773 86.2581C27.7773 86.846 28.0233 87.4099 28.461 87.8256C28.8988 88.2413 29.4925 88.4749 30.1116 88.4749H36.8344C37.4535 88.4749 38.0472 88.2413 38.485 87.8256C38.9227 87.4099 39.1686 86.846 39.1686 86.2581C39.1686 85.6701 38.9227 85.1063 38.485 84.6906C38.0472 84.2748 37.4535 84.0413 36.8344 84.0413H30.1116Z" fill="#EBF2F9"/>
<path d="M18.3235 60.1761C17.7073 60.1761 17.1163 60.4302 16.6805 60.8825C16.2448 61.3347 16 61.9481 16 62.5877C16 63.2273 16.2448 63.8407 16.6805 64.2929C17.1163 64.7452 17.7073 64.9993 18.3235 64.9993H28.2449C28.8611 64.9993 29.4521 64.7452 29.8878 64.2929C30.3236 63.8407 30.5684 63.2273 30.5684 62.5877C30.5684 61.9481 30.3236 61.3347 29.8878 60.8825C29.4521 60.4302 28.8611 60.1761 28.2449 60.1761H18.3235Z" fill="#EBF2F9"/>
<path d="M39.7229 60.1761C39.1067 60.1761 38.5157 60.4302 38.08 60.8825C37.6442 61.3347 37.3994 61.9481 37.3994 62.5877C37.3994 63.2273 37.6442 63.8407 38.08 64.2929C38.5157 64.7452 39.1067 64.9993 39.7229 64.9993H59.7283C60.3445 64.9993 60.9355 64.7452 61.3713 64.2929C61.807 63.8407 62.0518 63.2273 62.0518 62.5877C62.0518 61.9481 61.807 61.3347 61.3713 60.8825C60.9355 60.4302 60.3445 60.1761 59.7283 60.1761H39.7229Z" fill="#EBF2F9"/>
<path d="M70.2542 60.1761C69.6379 60.1761 69.047 60.4302 68.6112 60.8825C68.1755 61.3347 67.9307 61.9481 67.9307 62.5877C67.9307 63.2273 68.1755 63.8407 68.6112 64.2929C69.047 64.7452 69.6379 64.9993 70.2542 64.9993H77.2247C77.8409 64.9993 78.4319 64.7452 78.8676 64.2929C79.3034 63.8407 79.5482 63.2273 79.5482 62.5877C79.5482 61.9481 79.3034 61.3347 78.8676 60.8825C78.4319 60.4302 77.8409 60.1761 77.2247 60.1761H70.2542Z" fill="#EBF2F9"/>
<path d="M88.7727 60.1761C88.1565 60.1761 87.5655 60.4302 87.1298 60.8825C86.694 61.3347 86.4492 61.9481 86.4492 62.5877C86.4492 63.2273 86.694 63.8407 87.1298 64.2929C87.5655 64.7452 88.1565 64.9993 88.7727 64.9993H106.617C107.233 64.9993 107.824 64.7452 108.26 64.2929C108.696 63.8407 108.941 63.2273 108.941 62.5877C108.941 61.9481 108.696 61.3347 108.26 60.8825C107.824 60.4302 107.233 60.1761 106.617 60.1761H88.7727Z" fill="#EBF2F9"/>
<path d="M47.5999 50.1682C46.9836 50.1682 46.3926 50.4223 45.9569 50.8745C45.5212 51.3268 45.2764 51.9402 45.2764 52.5798C45.2764 53.2194 45.5212 53.8327 45.9569 54.285C46.3926 54.7373 46.9836 54.9913 47.5999 54.9913H54.5704C55.1866 54.9913 55.7776 54.7373 56.2133 54.285C56.6491 53.8327 56.8939 53.2194 56.8939 52.5798C56.8939 51.9402 56.6491 51.3268 56.2133 50.8745C55.7776 50.4223 55.1866 50.1682 54.5704 50.1682H47.5999Z" fill="#EBF2F9"/>
<path d="M18.3235 50.1682C17.7073 50.1682 17.1163 50.4223 16.6805 50.8745C16.2448 51.3268 16 51.9402 16 52.5798C16 53.2194 16.2448 53.8327 16.6805 54.285C17.1163 54.7373 17.7073 54.9913 18.3235 54.9913H36.1215C36.7378 54.9913 37.3288 54.7373 37.7645 54.285C38.2003 53.8327 38.4451 53.2194 38.4451 52.5798C38.4451 51.9402 38.2003 51.3268 37.7645 50.8745C37.3288 50.4223 36.7378 50.1682 36.1215 50.1682H18.3235Z" fill="#EBF2F9"/>
<path d="M96.6487 50.1682C96.0325 50.1682 95.4415 50.4223 95.0057 50.8745C94.57 51.3268 94.3252 51.9402 94.3252 52.5798C94.3252 53.2194 94.57 53.8327 95.0057 54.285C95.4415 54.7373 96.0325 54.9913 96.6487 54.9913H106.617C107.233 54.9913 107.824 54.7373 108.26 54.285C108.695 53.8327 108.94 53.2194 108.94 52.5798C108.94 51.9402 108.695 51.3268 108.26 50.8745C107.824 50.4223 107.233 50.1682 106.617 50.1682H96.6487Z" fill="#EBF2F9"/>
<path d="M65.2122 50.1682C64.5959 50.1682 64.005 50.4223 63.5692 50.8745C63.1335 51.3268 62.8887 51.9402 62.8887 52.5798C62.8887 53.2194 63.1335 53.8327 63.5692 54.285C64.005 54.7373 64.5959 54.9913 65.2122 54.9913H85.2176C85.8338 54.9913 86.4248 54.7373 86.8605 54.285C87.2963 53.8327 87.5411 53.2194 87.5411 52.5798C87.5411 51.9402 87.2963 51.3268 86.8605 50.8745C86.4248 50.4223 85.8338 50.1682 85.2176 50.1682H65.2122Z" fill="#EBF2F9"/>
<path d="M18.3235 38.0079C17.7073 38.0079 17.1163 38.262 16.6805 38.7143C16.2448 39.1665 16 39.7799 16 40.4195C16 41.0591 16.2448 41.6725 16.6805 42.1247C17.1163 42.577 17.7073 42.8311 18.3235 42.8311H28.2449C28.8611 42.8311 29.4521 42.577 29.8878 42.1247C30.3236 41.6725 30.5684 41.0591 30.5684 40.4195C30.5684 39.7799 30.3236 39.1665 29.8878 38.7143C29.4521 38.262 28.8611 38.0079 28.2449 38.0079H18.3235Z" fill="#EBF2F9"/>
<path d="M39.7229 38.0079C39.1067 38.0079 38.5157 38.262 38.08 38.7143C37.6442 39.1665 37.3994 39.7799 37.3994 40.4195C37.3994 41.0591 37.6442 41.6725 38.08 42.1247C38.5157 42.577 39.1067 42.8311 39.7229 42.8311H59.7283C60.3445 42.8311 60.9355 42.577 61.3713 42.1247C61.807 41.6725 62.0518 41.0591 62.0518 40.4195C62.0518 39.7799 61.807 39.1665 61.3713 38.7143C60.9355 38.262 60.3445 38.0079 59.7283 38.0079H39.7229Z" fill="#EBF2F9"/>
<path d="M70.2542 38.0081C69.6379 38.0081 69.047 38.2621 68.6112 38.7144C68.1755 39.1666 67.9307 39.78 67.9307 40.4196C67.9307 41.0592 68.1755 41.6726 68.6112 42.1249C69.047 42.5771 69.6379 42.8312 70.2542 42.8312H77.2247C77.8409 42.8312 78.4319 42.5771 78.8676 42.1249C79.3034 41.6726 79.5482 41.0592 79.5482 40.4196C79.5482 39.78 79.3034 39.1666 78.8676 38.7144C78.4319 38.2621 77.8409 38.0081 77.2247 38.0081H70.2542Z" fill="#EBF2F9"/>
<path d="M88.7727 38.0079C88.1565 38.0079 87.5655 38.262 87.1298 38.7143C86.694 39.1665 86.4492 39.7799 86.4492 40.4195C86.4492 41.0591 86.694 41.6725 87.1298 42.1247C87.5655 42.577 88.1565 42.8311 88.7727 42.8311H106.617C107.233 42.8311 107.824 42.577 108.26 42.1247C108.696 41.6725 108.941 41.0591 108.941 40.4195C108.941 39.7799 108.696 39.1665 108.26 38.7143C107.824 38.262 107.233 38.0079 106.617 38.0079H88.7727Z" fill="#EBF2F9"/>
<path d="M47.5999 28C46.9836 28 46.3926 28.2541 45.9569 28.7063C45.5212 29.1586 45.2764 29.772 45.2764 30.4116C45.2764 31.0511 45.5212 31.6645 45.9569 32.1168C46.3926 32.569 46.9836 32.8231 47.5999 32.8231H54.5704C55.1866 32.8231 55.7776 32.569 56.2133 32.1168C56.6491 31.6645 56.8939 31.0511 56.8939 30.4116C56.8939 29.772 56.6491 29.1586 56.2133 28.7063C55.7776 28.2541 55.1866 28 54.5704 28H47.5999Z" fill="#EBF2F9"/>
<path d="M18.3235 28C17.7073 28 17.1163 28.2541 16.6805 28.7063C16.2448 29.1586 16 29.772 16 30.4116C16 31.0511 16.2448 31.6645 16.6805 32.1168C17.1163 32.569 17.7073 32.8231 18.3235 32.8231H36.1215C36.7378 32.8231 37.3288 32.569 37.7645 32.1168C38.2003 31.6645 38.4451 31.0511 38.4451 30.4116C38.4451 29.772 38.2003 29.1586 37.7645 28.7063C37.3288 28.2541 36.7378 28 36.1215 28H18.3235Z" fill="#EBF2F9"/>
<path d="M96.6487 28C96.0325 28 95.4415 28.2541 95.0057 28.7063C94.57 29.1586 94.3252 29.772 94.3252 30.4116C94.3252 31.0511 94.57 31.6645 95.0057 32.1168C95.4415 32.569 96.0325 32.8231 96.6487 32.8231H106.617C107.233 32.8231 107.824 32.569 108.26 32.1168C108.695 31.6645 108.94 31.0511 108.94 30.4116C108.94 29.772 108.695 29.1586 108.26 28.7063C107.824 28.2541 107.233 28 106.617 28H96.6487Z" fill="#EBF2F9"/>
<path d="M65.2122 28C64.5959 28 64.005 28.2541 63.5692 28.7063C63.1335 29.1586 62.8887 29.772 62.8887 30.4116C62.8887 31.0511 63.1335 31.6645 63.5692 32.1168C64.005 32.569 64.5959 32.8231 65.2122 32.8231H85.2176C85.8338 32.8231 86.4248 32.569 86.8605 32.1168C87.2963 31.6645 87.5411 31.0511 87.5411 30.4116C87.5411 29.772 87.2963 29.1586 86.8605 28.7063C86.4248 28.2541 85.8338 28 85.2176 28H65.2122Z" fill="#EBF2F9"/>
<path d="M0.302794 15.7818C0.462709 7.20421 7.46598 0.3 16.0818 0.3L108.918 0.3C117.534 0.3 124.537 7.20421 124.697 15.7818L0.302794 15.7818Z" fill="#EBF2F9" stroke="#D2DBE2" stroke-width="0.6"/>
<circle cx="10.9645" cy="8.04088" r="1.89298" fill="#EBF2F9" stroke="#D2DBE2" stroke-width="0.6"/>
<circle cx="18.275" cy="8.04088" r="1.89298" fill="#EBF2F9" stroke="#D2DBE2" stroke-width="0.6"/>
<circle cx="25.5846" cy="8.04088" r="1.89298" fill="#EBF2F9" stroke="#D2DBE2" stroke-width="0.6"/>
</svg>
