<svg width="784" height="140" viewBox="0 0 784 140" fill="none" xmlns="http://www.w3.org/2000/svg">
<path d="M218.843 118.44C204.851 118.44 193.929 114.604 186.075 106.931C178.222 99.2581 174.295 88.3806 174.295 74.2985V21.7615H201.105V73.4861C201.105 81.6104 202.685 87.4328 205.844 90.9533C209.094 94.4738 213.517 96.2341 219.114 96.2341C224.711 96.2341 229.089 94.4738 232.248 90.9533C235.408 87.4328 236.987 81.6104 236.987 73.4861V21.7615H263.391V74.2985C263.391 88.3806 259.464 99.2581 251.611 106.931C243.758 114.604 232.835 118.44 218.843 118.44Z" fill="white"/>
<path d="M328.133 41.9368C333.82 41.9368 338.965 43.1103 343.569 45.4573C348.173 47.714 351.783 51.2346 354.401 56.0189C357.109 60.8032 358.463 66.9866 358.463 74.5693V116.545H332.736V78.7669C332.736 73.5312 331.653 69.7399 329.487 67.3929C327.411 64.9556 324.477 63.7369 320.685 63.7369C317.977 63.7369 315.495 64.3688 313.238 65.6326C310.981 66.8061 309.221 68.6566 307.957 71.1842C306.694 73.7118 306.062 77.0066 306.062 81.0687V116.545H280.335V43.1554H304.843V64.0077L300.104 57.9145C302.902 52.5886 306.739 48.6167 311.613 45.9989C316.488 43.2908 321.994 41.9368 328.133 41.9368Z" fill="white"/>
<path d="M401.29 117.763C395.062 117.763 388.969 117.041 383.011 115.597C377.143 114.153 372.404 112.347 368.793 110.181L376.511 92.5781C379.942 94.6543 383.959 96.3243 388.562 97.5881C393.166 98.7616 397.68 99.3484 402.103 99.3484C406.436 99.3484 409.415 98.897 411.039 97.9943C412.755 97.0916 413.612 95.873 413.612 94.3384C413.612 92.8941 412.8 91.856 411.175 91.2241C409.64 90.5019 407.564 89.9603 404.946 89.5992C402.419 89.2382 399.62 88.8319 396.551 88.3806C393.482 87.9292 390.368 87.3425 387.208 86.6203C384.139 85.8079 381.296 84.6344 378.678 83.0998C376.15 81.475 374.119 79.3085 372.585 76.6004C371.05 73.8923 370.283 70.462 370.283 66.3096C370.283 61.6156 371.637 57.4632 374.345 53.8524C377.143 50.1513 381.205 47.2627 386.531 45.1865C391.857 43.02 398.357 41.9368 406.03 41.9368C411.175 41.9368 416.365 42.4784 421.601 43.5616C426.927 44.5546 431.395 46.0892 435.006 48.1654L427.288 65.6326C423.677 63.5564 420.066 62.1572 416.456 61.4351C412.845 60.6226 409.415 60.2164 406.165 60.2164C401.832 60.2164 398.763 60.7129 396.957 61.7059C395.242 62.6988 394.385 63.9175 394.385 65.3618C394.385 66.8061 395.152 67.9345 396.687 68.7469C398.221 69.4691 400.252 70.0558 402.78 70.5072C405.398 70.8682 408.241 71.2745 411.31 71.7258C414.379 72.0869 417.449 72.6736 420.518 73.4861C423.677 74.2985 426.521 75.5171 429.048 77.142C431.666 78.6766 433.742 80.7979 435.277 83.506C436.812 86.1238 437.579 89.509 437.579 93.6614C437.579 98.1749 436.18 102.237 433.381 105.848C430.673 109.459 426.611 112.347 421.195 114.514C415.869 116.68 409.234 117.763 401.29 117.763Z" fill="white"/>
<path d="M481.433 117.763C472.045 117.763 464.733 115.462 459.497 110.858C454.262 106.164 451.644 99.1227 451.644 89.7346V26.7714H477.371V89.4638C477.371 92.0817 478.093 94.1579 479.537 95.6924C480.982 97.1368 482.832 97.8589 485.089 97.8589C488.158 97.8589 490.776 97.0916 492.942 95.557L499.306 113.566C497.14 115.01 494.477 116.048 491.318 116.68C488.158 117.402 484.863 117.763 481.433 117.763ZM440.947 65.091V45.8635H494.161V65.091H440.947Z" fill="white"/>
<path d="M509.227 116.545V43.1554H533.735V64.5494L530.079 58.4562C532.246 52.9497 535.766 48.8424 540.641 46.1343C545.515 43.336 551.428 41.9368 558.379 41.9368V65.091C557.205 64.9104 556.167 64.8202 555.265 64.8202C554.452 64.7299 553.549 64.6848 552.556 64.6848C547.321 64.6848 543.078 66.1291 539.828 69.0177C536.579 71.8161 534.954 76.4198 534.954 82.829V116.545H509.227Z" fill="white"/>
<path d="M609.451 116.545V102.869L607.691 99.4838V74.2985C607.691 70.2364 606.427 67.1221 603.899 64.9556C601.462 62.6988 597.535 61.5705 592.119 61.5705C588.598 61.5705 585.033 62.1572 581.422 63.3307C577.811 64.414 574.742 65.9485 572.214 67.9345L563.549 50.4673C567.701 47.7592 572.666 45.683 578.443 44.2387C584.311 42.7041 590.133 41.9368 595.91 41.9368C607.826 41.9368 617.033 44.69 623.533 50.1965C630.123 55.6127 633.417 64.1432 633.417 75.788V116.545H609.451ZM587.786 117.763C581.918 117.763 576.954 116.77 572.891 114.785C568.829 112.799 565.715 110.09 563.549 106.66C561.472 103.23 560.434 99.3935 560.434 95.1508C560.434 90.6373 561.563 86.7557 563.819 83.506C566.166 80.166 569.732 77.6385 574.516 75.9234C579.301 74.118 585.484 73.2153 593.067 73.2153H610.399V86.6203H596.587C592.435 86.6203 589.501 87.2974 587.786 88.6514C586.161 90.0054 585.349 91.8108 585.349 94.0676C585.349 96.3243 586.206 98.1297 587.921 99.4838C589.637 100.838 591.984 101.515 594.962 101.515C597.761 101.515 600.288 100.838 602.545 99.4838C604.892 98.0395 606.607 95.873 607.691 92.9844L611.211 102.463C609.857 107.518 607.194 111.354 603.222 113.972C599.341 116.5 594.195 117.763 587.786 117.763Z" fill="white"/>
<path d="M688.089 117.763C679.965 117.763 672.698 116.139 666.289 112.889C659.97 109.639 655.005 105.171 651.394 99.4838C647.784 93.7065 645.978 87.1168 645.978 79.7147C645.978 72.3126 647.784 65.768 651.394 60.081C655.005 54.394 659.97 49.9708 666.289 46.8113C672.698 43.5616 679.965 41.9368 688.089 41.9368C696.394 41.9368 703.57 43.697 709.619 47.2176C715.667 50.7381 719.954 55.7029 722.482 62.1121L702.577 72.2674C700.862 68.8372 698.741 66.3548 696.213 64.8202C693.686 63.1953 690.933 62.3829 687.954 62.3829C684.975 62.3829 682.267 63.0599 679.829 64.414C677.392 65.768 675.451 67.7539 674.007 70.3718C672.653 72.8993 671.976 76.0136 671.976 79.7147C671.976 83.506 672.653 86.7106 674.007 89.3284C675.451 91.9462 677.392 93.9322 679.829 95.2862C682.267 96.6403 684.975 97.3173 687.954 97.3173C690.933 97.3173 693.686 96.55 696.213 95.0154C698.741 93.3906 700.862 90.863 702.577 87.4328L722.482 97.5881C719.954 103.997 715.667 108.962 709.619 112.483C703.57 116.003 696.394 117.763 688.089 117.763Z" fill="white"/>
<path d="M766.127 117.763C756.739 117.763 749.427 115.462 744.191 110.858C738.955 106.164 736.338 99.1227 736.338 89.7346V26.7714H762.065V89.4638C762.065 92.0817 762.787 94.1579 764.231 95.6924C765.675 97.1368 767.526 97.8589 769.783 97.8589C772.852 97.8589 775.47 97.0916 777.636 95.557L784 113.566C781.834 115.01 779.171 116.048 776.011 116.68C772.852 117.402 769.557 117.763 766.127 117.763ZM725.641 65.091V45.8635H778.855V65.091H725.641Z" fill="white"/>
<g clip-path="url(#clip0_52_21684)">
<path d="M112.098 8.10533L106.228 13.9695L106.223 44.4197C106.22 67.5732 106.213 74.9631 106.199 75.2568C106.138 76.5361 106.1 77.1442 106.038 77.8865C105.679 82.1476 104.833 86.3234 103.496 90.4456C103.444 90.6051 103.404 90.7346 103.406 90.7346C103.425 90.7346 104.517 89.558 104.938 89.0842C110.06 83.3274 113.85 76.4682 115.967 69.121C117.097 65.201 117.742 61.24 117.927 57.0941C117.975 56.0107 117.976 55.0078 117.971 28.7555L117.967 2.24272L112.098 8.10533Z" fill="#7FB800"/>
<path d="M122.444 29.3604C122.441 49.9506 122.435 56.5792 122.42 56.873C122.352 58.2755 122.322 58.7698 122.251 59.6211C121.461 69.0278 118.283 78.0776 113.01 85.9491C110.945 89.0305 108.642 91.8291 105.99 94.4777C103.877 96.5909 101.714 98.4403 99.2949 100.203C99.1653 100.298 98.9977 100.429 98.9234 100.494C98.7748 100.623 98.6104 100.737 98.4855 100.801C98.4396 100.824 98.2926 100.918 98.1614 101.01C95.6982 102.719 92.9425 104.305 90.1488 105.623C83.5054 108.757 76.3293 110.538 68.9396 110.887C67.2859 110.965 65.2638 110.968 63.6275 110.895C59.1422 110.693 54.7691 109.976 50.4498 108.731C49.7858 108.54 48.3154 108.084 48.0988 108.002C48.0324 107.977 49.1265 108.986 49.8569 109.624C54.3296 113.531 59.5169 116.661 65.0172 118.775C69.9341 120.665 75.0755 121.768 80.3308 122.061C81.3632 122.118 81.6604 122.125 83.3189 122.125C84.9774 122.125 85.2746 122.118 86.307 122.061C95.8863 121.526 105.064 118.302 112.884 112.723C115.971 110.519 118.835 107.95 121.359 105.113C126.608 99.219 130.393 92.2382 132.447 84.6619C133.386 81.1936 133.954 77.588 134.132 73.9459C134.142 73.7596 134.158 73.4279 134.167 73.2115C134.181 72.9146 134.188 65.4616 134.191 43.3931L134.196 13.9695L128.322 8.10215L122.449 2.2348L122.444 29.3604Z" fill="#00A6ED"/>
<path d="M0.00474302 46.5518C0.00790503 67.5147 0.014229 74.7624 0.0284581 75.0514C0.0837933 76.2328 0.120156 76.8251 0.181816 77.5595C0.812637 85.033 3.12565 92.3218 6.93429 98.8383C7.91451 100.517 9.00383 102.157 10.1564 103.693C11.1398 105.004 12.1816 106.266 13.2472 107.436C14.3682 108.665 15.8417 110.129 16.9452 111.107L17.059 111.206L17.0132 111.107C16.9879 111.052 16.9057 110.87 16.8298 110.706C15.4243 107.648 14.2733 104.387 13.4465 101.12C12.4267 97.0852 11.8765 93.0673 11.7627 88.7998C11.7532 88.4429 11.7469 77.4473 11.7469 59.2025V30.1737L5.87344 24.3064L0 18.4391L0.00474302 46.5518Z" fill="#FF4D6D"/>
<path d="M22.0915 24.3096L16.2212 30.1738V58.9972C16.2212 77.2373 16.2275 88.0702 16.237 88.4998C16.2591 89.509 16.2971 90.316 16.3635 91.2242C16.9247 98.8825 19.1856 106.288 22.9926 112.94C24.9309 116.328 27.2471 119.489 29.8953 122.361C30.8249 123.367 31.9206 124.462 32.9261 125.386C41.0951 132.899 51.4254 137.58 62.3865 138.739C65.6735 139.085 69.1359 139.123 72.4338 138.848C80.1428 138.207 87.6605 135.816 94.3576 131.874C98.737 129.298 102.708 126.097 106.165 122.361C106.538 121.957 107.131 121.292 107.124 121.284C107.121 121.281 107.014 121.328 106.887 121.39C106.032 121.798 104.824 122.32 103.761 122.742C96.3023 125.7 88.3878 126.972 80.1729 126.531C77.5089 126.387 74.8243 126.044 72.1951 125.512C66.1478 124.287 60.3423 122.041 55.0112 118.866C48.782 115.156 43.2848 110.203 38.9402 104.388C38.7521 104.135 38.5355 103.842 38.4564 103.734C38.379 103.627 38.2762 103.494 38.2272 103.439C38.1023 103.303 38.0264 103.197 37.9221 103.016C37.8715 102.93 37.7545 102.749 37.6612 102.613C36.7252 101.259 35.7403 99.6738 34.9055 98.1734C31.1095 91.3584 28.8202 83.8738 28.1673 76.1412C28.0945 75.2947 28.0582 74.685 27.9965 73.3773C27.9823 73.0709 27.976 66.4455 27.9696 45.71L27.9602 18.447L22.0915 24.3096Z" fill="#FFB400"/>
</g>
<defs>
<clipPath id="clip0_52_21684">
<rect width="134.196" height="139.032" fill="white"/>
</clipPath>
</defs>
</svg>
