<svg width="20" height="20" viewBox="0 0 20 20" fill="none" xmlns="http://www.w3.org/2000/svg">
<path d="M10 17.5C7.90278 17.5 6.12847 17.1771 4.67708 16.5312C3.22569 15.8854 2.5 15.0972 2.5 14.1667V5.83333C2.5 4.91667 3.23264 4.13194 4.69792 3.47917C6.16319 2.82639 7.93056 2.5 10 2.5C12.0694 2.5 13.8368 2.82639 15.3021 3.47917C16.7674 4.13194 17.5 4.91667 17.5 5.83333V14.1667C17.5 15.0972 16.7743 15.8854 15.3229 16.5312C13.8715 17.1771 12.0972 17.5 10 17.5ZM10 7.39583C11.2083 7.39583 12.4398 7.21412 13.6944 6.85069C14.9491 6.48726 15.7222 6.08564 16.0139 5.64583C15.713 5.21528 14.9363 4.81481 13.684 4.44444C12.4317 4.07406 11.2037 3.88888 10 3.88888C8.76389 3.88888 7.53125 4.06828 6.30208 4.42708C5.07292 4.78588 4.29629 5.19213 3.97221 5.64583C4.29629 6.10879 5.06828 6.5162 6.28819 6.86806C7.5081 7.21991 8.74538 7.39583 10 7.39583ZM9.9861 11.75C10.5694 11.75 11.1458 11.7199 11.7153 11.6597C12.2847 11.5995 12.8299 11.5104 13.3507 11.3924C13.8715 11.2743 14.3669 11.1296 14.8368 10.9583C15.3067 10.787 15.7315 10.5949 16.1111 10.3819V7.39581C15.7222 7.60879 15.2928 7.80092 14.8229 7.97221C14.353 8.1435 13.8553 8.28817 13.3299 8.40623C12.8044 8.52429 12.2616 8.61572 11.7014 8.68054C11.1412 8.74536 10.5694 8.77777 9.9861 8.77777C9.40277 8.77777 8.82407 8.74536 8.25 8.68054C7.67593 8.61572 7.12848 8.52429 6.60765 8.40623C6.0868 8.28817 5.5949 8.1435 5.13194 7.97221C4.66898 7.80092 4.25463 7.60879 3.88888 7.39581V10.3819C4.25463 10.5949 4.66667 10.787 5.125 10.9583C5.58333 11.1296 6.07292 11.2743 6.59375 11.3924C7.11458 11.5104 7.66203 11.5995 8.2361 11.6597C8.81019 11.7199 9.39352 11.75 9.9861 11.75ZM10 16.1111C10.6574 16.1111 11.3322 16.0556 12.0243 15.9445C12.7164 15.8333 13.3519 15.6864 13.9306 15.5035C14.5093 15.3206 14.9977 15.1169 15.3958 14.8924C15.794 14.6678 16.0324 14.4375 16.1111 14.2014V11.7847C15.7315 11.9977 15.3067 12.1875 14.8368 12.3542C14.3669 12.5208 13.8715 12.6632 13.3507 12.7812C12.8299 12.8993 12.287 12.9884 11.7222 13.0486C11.1574 13.1088 10.5787 13.1389 9.9861 13.1389C9.39352 13.1389 8.81019 13.1088 8.2361 13.0486C7.66203 12.9884 7.11458 12.8993 6.59375 12.7812C6.07292 12.6632 5.58333 12.5208 5.125 12.3542C4.66667 12.1875 4.25463 11.9977 3.88888 11.7847V14.2222C3.95832 14.4491 4.18865 14.6759 4.57985 14.9028C4.97106 15.1296 5.45833 15.3322 6.04167 15.5104C6.625 15.6887 7.26389 15.8333 7.95833 15.9445C8.65278 16.0556 9.33333 16.1111 10 16.1111Z" fill="#90A4B7"/>
</svg>
