<svg width="20" height="20" viewBox="0 0 20 20" fill="none" xmlns="http://www.w3.org/2000/svg">
<path d="M8.95835 19.1667L7.98615 18.1875L9.64585 16.5278H6.56252C6.40974 17.0509 6.1146 17.4826 5.6771 17.8229C5.2396 18.1632 4.73613 18.3333 4.16669 18.3333C3.47224 18.3333 2.88196 18.0903 2.39585 17.6042C1.90974 17.1181 1.66669 16.5278 1.66669 15.8333C1.66669 15.2639 1.83683 14.7604 2.1771 14.3229C2.51738 13.8854 2.9491 13.5903 3.47225 13.4375V6.5625C2.9491 6.40972 2.51738 6.11458 2.1771 5.67708C1.83683 5.23958 1.66669 4.73611 1.66669 4.16667C1.66669 3.47222 1.90974 2.88194 2.39585 2.39583C2.88196 1.90972 3.47224 1.66667 4.16669 1.66667C4.73613 1.66667 5.2396 1.8368 5.6771 2.17708C6.1146 2.51736 6.40974 2.94907 6.56252 3.47223H9.64585L7.98615 1.8125L8.95835 0.833332L12.3056 4.16667L8.95835 7.5L7.98615 6.52083L9.64585 4.8611H6.56252C6.44678 5.27777 6.23845 5.63657 5.93752 5.9375C5.63659 6.23843 5.27779 6.44676 4.86112 6.5625V13.4375C5.27779 13.5532 5.63659 13.7616 5.93752 14.0625C6.23845 14.3634 6.44678 14.7222 6.56252 15.1389H9.64585L7.98615 13.4792L8.95835 12.5L12.3056 15.8333L8.95835 19.1667ZM15.8334 18.3333C15.1389 18.3333 14.5486 18.0903 14.0625 17.6042C13.5764 17.1181 13.3334 16.5278 13.3334 15.8333C13.3334 15.2594 13.5035 14.7537 13.8438 14.3161C14.184 13.8785 14.6158 13.5857 15.1389 13.4375V6.5625C14.6158 6.41435 14.184 6.12148 13.8438 5.6839C13.5035 5.2463 13.3334 4.74055 13.3334 4.16667C13.3334 3.47222 13.5764 2.88194 14.0625 2.39583C14.5486 1.90972 15.1389 1.66667 15.8334 1.66667C16.5278 1.66667 17.1181 1.90972 17.6042 2.39583C18.0903 2.88194 18.3334 3.47222 18.3334 4.16667C18.3334 4.74074 18.1632 5.24652 17.8229 5.68402C17.4827 6.12152 17.0509 6.41435 16.5278 6.5625V13.4375C17.0509 13.5903 17.4827 13.8854 17.8229 14.3229C18.1632 14.7604 18.3334 15.2639 18.3334 15.8333C18.3334 16.5278 18.0903 17.1181 17.6042 17.6042C17.1181 18.0903 16.5278 18.3333 15.8334 18.3333ZM4.16669 16.9445C4.48151 16.9445 4.7454 16.838 4.95835 16.625C5.17133 16.412 5.27781 16.1482 5.27781 15.8333C5.27781 15.5185 5.17133 15.2546 4.95835 15.0417C4.7454 14.8287 4.48151 14.7222 4.16669 14.7222C3.85187 14.7222 3.58798 14.8287 3.37502 15.0417C3.16205 15.2546 3.05556 15.5185 3.05556 15.8333C3.05556 16.1482 3.16205 16.412 3.37502 16.625C3.58798 16.838 3.85187 16.9445 4.16669 16.9445ZM15.8334 16.9445C16.1482 16.9445 16.4121 16.838 16.625 16.625C16.838 16.412 16.9445 16.1482 16.9445 15.8333C16.9445 15.5185 16.838 15.2546 16.625 15.0417C16.4121 14.8287 16.1482 14.7222 15.8334 14.7222C15.5185 14.7222 15.2546 14.8287 15.0417 15.0417C14.8287 15.2546 14.7222 15.5185 14.7222 15.8333C14.7222 16.1482 14.8287 16.412 15.0417 16.625C15.2546 16.838 15.5185 16.9445 15.8334 16.9445ZM4.16669 5.27779C4.48151 5.27779 4.7454 5.1713 4.95835 4.95833C5.17133 4.74537 5.27781 4.48148 5.27781 4.16667C5.27781 3.85185 5.17133 3.58796 4.95835 3.375C4.7454 3.16203 4.48151 3.05554 4.16669 3.05554C3.85187 3.05554 3.58798 3.16203 3.37502 3.375C3.16205 3.58796 3.05556 3.85185 3.05556 4.16667C3.05556 4.48148 3.16205 4.74537 3.37502 4.95833C3.58798 5.1713 3.85187 5.27779 4.16669 5.27779ZM15.8334 5.27779C16.1482 5.27779 16.4121 5.1713 16.625 4.95833C16.838 4.74537 16.9445 4.48148 16.9445 4.16667C16.9445 3.85185 16.838 3.58796 16.625 3.375C16.4121 3.16203 16.1482 3.05554 15.8334 3.05554C15.5185 3.05554 15.2546 3.16203 15.0417 3.375C14.8287 3.58796 14.7222 3.85185 14.7222 4.16667C14.7222 4.48148 14.8287 4.74537 15.0417 4.95833C15.2546 5.1713 15.5185 5.27779 15.8334 5.27779Z" fill="#90A4B7"/>
</svg>
