<svg width="87" height="87" viewBox="0 0 87 87" fill="none" xmlns="http://www.w3.org/2000/svg">
<circle cx="43.1538" cy="43.1538" r="43.1538" fill="#8AD6F7"/>
<g clip-path="url(#clip0_1778_5764)">
<path d="M66.6615 58.3227L53.3902 66.8273C52.618 67.3161 51.7237 67.5777 50.8097 67.5817H32.1888C27.6622 67.5817 26.4362 65.2584 26.4362 65.2584V65.0097H23.8643V54.7219H26.4362V54.7819C27.9365 52.4929 30.9029 51.7041 32.7717 51.4384H32.7803C33.3279 51.353 33.8807 51.3043 34.4349 51.2926H34.8721C36.3492 51.2967 37.778 51.8184 38.9101 52.7672C40.0347 53.725 41.4622 54.2536 42.9395 54.2589H46.6431C47.9058 54.2658 49.0677 54.9499 49.6865 56.0507L49.7465 56.1536C50.2014 56.9555 50.2335 57.9297 49.8322 58.7598C49.7213 58.9839 49.5799 59.1917 49.4121 59.3771H51.0325C51.3359 59.3803 51.6375 59.331 51.9241 59.2313L63.6007 55.1333L65.0239 54.6275C65.2283 54.5587 65.4426 54.5239 65.6583 54.5246C66.274 54.5313 66.8485 54.8346 67.2015 55.3391C67.5287 55.8054 67.6557 56.3831 67.5542 56.9436C67.4528 57.5042 67.1313 58.0007 66.6615 58.3227Z" fill="#BFA885"/>
<path d="M63.2322 58.3227L49.961 66.8273C49.1888 67.3161 48.2944 67.5777 47.3805 67.5817H32.1888C27.6622 67.5817 26.4362 65.2584 26.4362 65.2584V65.0097H23.8643V54.7219H26.4362V54.7819C27.9365 52.4929 30.9029 51.7041 32.7717 51.4384H32.7803C33.7741 51.6581 34.7004 52.1139 35.4808 52.7673C36.6054 53.7251 38.033 54.2537 39.5102 54.259H43.2138C44.4766 54.2659 45.6385 54.95 46.2573 56.0508L46.3173 56.1537C46.9085 57.1887 46.774 58.4855 45.9829 59.3772H47.6032C47.9066 59.3804 48.2082 59.3311 48.4949 59.2314L49.8323 58.7599C49.7214 58.984 49.58 59.1918 49.4122 59.3772H51.0326C51.336 59.3804 51.6376 59.3311 51.9242 59.2314L63.6008 55.1334C63.6646 55.1962 63.722 55.2652 63.7723 55.3392C64.0996 55.8055 64.2266 56.3833 64.1251 56.9437C64.0236 57.5042 63.702 58.0007 63.2322 58.3227Z" fill="#FFE0B2"/>
<path d="M67.5878 32.4317C67.5881 36.2972 66.0528 40.0044 63.3195 42.7377C60.5862 45.471 56.8789 47.0064 53.0135 47.006C51.5032 47.0088 50.0017 46.7745 48.564 46.3116L44.4404 49.5779V44.2111C38.8785 40.1629 36.9053 32.7766 39.7072 26.494C42.5091 20.2114 49.3228 16.7439 56.051 18.1768C62.7791 19.6096 67.5888 25.5526 67.5878 32.4317Z" fill="#0097D8"/>
<path d="M18.7206 53.0073H25.5791C26.0526 53.0073 26.4364 53.3911 26.4364 53.8646V65.867C26.4364 66.3405 26.0526 66.7243 25.5791 66.7243H18.7206C18.2471 66.7243 17.8633 66.3405 17.8633 65.867V53.8646C17.8633 53.3912 18.2471 53.0073 18.7206 53.0073Z" fill="#99C633"/>
<path d="M53.0135 26.4305C53.9605 26.4305 54.7282 25.6628 54.7282 24.7159C54.7282 23.7689 53.9605 23.0012 53.0135 23.0012C52.0665 23.0012 51.2988 23.7689 51.2988 24.7159C51.2988 25.6628 52.0665 26.4305 53.0135 26.4305Z" fill="white"/>
<path d="M51.2986 33.289V38.4329H49.584V41.8622H56.4425V38.4329H54.7279V29.8598H49.584V33.289H51.2986Z" fill="white"/>
<path d="M67.5874 32.4317C67.5877 36.2972 66.0524 40.0044 63.3191 42.7377C60.5858 45.471 56.8786 47.0064 53.0131 47.006C52.5759 47.006 52.1387 46.9888 51.71 46.946C59.2349 46.2905 65.011 39.9929 65.0156 32.4395C65.0201 24.8861 59.2512 18.5818 51.727 17.9174C52.1544 17.8756 52.5836 17.8556 53.013 17.8574C56.8785 17.8571 60.5857 19.3924 63.319 22.1257C66.0523 24.859 67.5877 28.5662 67.5874 32.4317Z" fill="#004664"/>
<path d="M18.7205 67.5817H25.5791C26.0909 67.5798 26.5746 67.3481 26.8969 66.9505C28.4499 68.0116 30.308 68.5344 32.1864 68.439H50.8071C51.8865 68.4352 52.9427 68.126 53.8537 67.547L67.1271 59.0404C67.7879 58.6053 68.2435 57.9204 68.3897 57.1429C68.5442 56.34 68.3655 55.509 67.8949 54.8405C67.1838 53.8435 65.9035 53.43 64.7435 53.8229L51.6326 58.4229C51.4408 58.49 51.2389 58.5235 51.0356 58.5217H50.8314C51.0935 57.5889 50.9732 56.5902 50.4973 55.7463L50.4303 55.6249C49.6565 54.2613 48.2139 53.4141 46.646 53.4025H42.9422C41.6652 53.3936 40.4318 52.9368 39.4569 52.1119C38.1715 51.0346 36.5493 50.4414 34.8723 50.4353H34.4377C34.2219 50.4353 29.8267 50.4754 26.9902 52.8941C26.6712 52.4288 26.1433 52.1505 25.5791 52.1499H18.7205C17.774 52.151 17.007 52.918 17.0059 53.8646V65.867C17.007 66.8135 17.774 67.5806 18.7205 67.5817ZM34.4376 52.15H34.8722C36.1476 52.1558 37.3806 52.608 38.3575 53.428C39.6409 54.5105 41.2633 55.1081 42.9421 55.1172H46.646C47.5954 55.119 48.4698 55.6329 48.9334 56.4613L49.0004 56.5827C49.3392 57.1889 49.3227 57.9311 48.9573 58.5217H44.7373C43.2957 58.5258 41.8904 58.9743 40.7128 59.806L40.1987 60.1668C39.948 60.3427 39.8103 60.6389 39.8372 60.9439C39.8642 61.249 40.0518 61.5164 40.3295 61.6455C40.6072 61.7746 40.9326 61.7459 41.1833 61.5699L41.6957 61.2108C42.5853 60.581 43.6473 60.2408 44.7373 60.2362H51.0357C51.4361 60.2382 51.8338 60.1707 52.2112 60.037L65.3029 55.4437C65.7453 55.2934 66.2336 55.4543 66.5002 55.838C66.6992 56.1235 66.7735 56.4778 66.7061 56.8193C66.6509 57.1377 66.4675 57.4194 66.1988 57.5987L52.9347 66.0994C52.2986 66.5042 51.5612 66.7208 50.8073 66.7244H32.1864C28.9087 66.7244 27.6327 65.4355 27.2936 64.9976V55.051C29.3876 52.1956 34.3874 52.15 34.4376 52.15ZM18.7205 53.8646H25.5791V65.867H18.7205V53.8646Z" fill="black"/>
<path d="M20.6833 61.829C20.436 62.0743 20.3617 62.4448 20.4952 62.7665C20.6288 63.0882 20.9437 63.2971 21.292 63.2951C21.519 63.2915 21.7362 63.2028 21.9008 63.0464C21.9764 62.963 22.0373 62.8673 22.0808 62.7634C22.1247 62.6603 22.148 62.5497 22.1494 62.4377C22.1461 62.2107 22.0573 61.9934 21.9008 61.8289C21.557 61.5117 21.0271 61.5117 20.6833 61.829Z" fill="black"/>
<path d="M53.0134 27.2878C54.4338 27.2878 55.5853 26.1363 55.5853 24.7159C55.5853 23.2955 54.4338 22.1439 53.0134 22.1439C51.593 22.1439 50.4414 23.2955 50.4414 24.7159C50.443 26.1356 51.5936 27.2863 53.0134 27.2878ZM53.0134 23.8586C53.4869 23.8586 53.8706 24.2424 53.8706 24.7159C53.8706 25.1894 53.4869 25.5731 53.0134 25.5731C52.5399 25.5731 52.1561 25.1893 52.1561 24.7159C52.1566 24.2426 52.5401 23.859 53.0134 23.8586Z" fill="black"/>
<path d="M56.4425 37.5756H55.5852V29.8597C55.5853 29.6324 55.495 29.4143 55.3342 29.2534C55.1733 29.0926 54.9553 29.0024 54.7278 29.0024H49.5839C49.3566 29.0023 49.1385 29.0926 48.9776 29.2534C48.8169 29.4142 48.7266 29.6323 48.7266 29.8597V33.289C48.7265 33.5163 48.8168 33.7344 48.9776 33.8953C49.1384 34.056 49.3565 34.1464 49.5839 34.1464H50.4412V37.5756H49.5839C49.3566 37.5755 49.1385 37.6658 48.9776 37.8267C48.8169 37.9874 48.7266 38.2055 48.7266 38.433V41.8622C48.7265 42.0896 48.8168 42.3077 48.9776 42.4685C49.1384 42.6293 49.3565 42.7196 49.5839 42.7196H56.4425C56.6699 42.7197 56.888 42.6294 57.0488 42.4685C57.2096 42.3078 57.2999 42.0897 57.2999 41.8622V38.433C57.3 38.2056 57.2097 37.9875 57.0488 37.8267C56.888 37.6658 56.6699 37.5755 56.4425 37.5756ZM55.5851 41.0048H50.4412V39.2902H51.2985C51.5259 39.2903 51.744 39.1999 51.9048 39.0391C52.0656 38.8783 52.1559 38.6602 52.1559 38.4328V33.2889C52.156 33.0615 52.0657 32.8434 51.9048 32.6826C51.7441 32.5218 51.526 32.4315 51.2985 32.4315H50.4412V30.7168H53.8705V38.4327C53.8704 38.66 53.9607 38.8781 54.1215 39.039C54.2823 39.1997 54.5004 39.2901 54.7278 39.2901H55.5851V41.0048Z" fill="black"/>
<path d="M53.0127 17C46.4106 16.9984 40.5393 21.1978 38.4074 27.4462C36.2756 33.6947 38.3559 40.607 43.5822 44.6409V49.578C43.5822 49.9069 43.7703 50.2068 44.0663 50.3498C44.3624 50.493 44.7142 50.4541 44.9719 50.2499L48.7428 47.2631C54.5393 48.9315 60.7766 47.0701 64.7104 42.4975C68.6443 37.925 69.5537 31.4798 67.0385 25.9973C64.5232 20.5148 59.0446 17.0004 53.0127 17ZM53.0127 46.1487C51.5918 46.151 50.1792 45.9307 48.8265 45.4957C48.5537 45.4085 48.2554 45.4624 48.0304 45.6397L45.2969 47.8052V44.2114C45.297 43.9366 45.1652 43.6785 44.9427 43.5174C39.4942 39.5454 37.7424 32.2014 40.8114 26.1977C43.8805 20.194 50.8592 17.313 57.2697 19.4033C63.6801 21.4936 67.6192 27.9346 66.5593 34.5933C65.4994 41.2521 59.7553 46.152 53.0127 46.1487Z" fill="black"/>
</g>
<defs>
<clipPath id="clip0_1778_5764">
<rect width="51.45" height="51.45" fill="white" transform="translate(17 17)"/>
</clipPath>
</defs>
</svg>
