<svg width="87" height="87" viewBox="0 0 87 87" fill="none" xmlns="http://www.w3.org/2000/svg">
<circle cx="43.1538" cy="43.1538" r="43.1538" fill="#8AD6F7"/>
<path fill-rule="evenodd" clip-rule="evenodd" d="M54.4269 18.6078H35.8423L31.0234 23.4266V48.2435H54.4269V18.6078Z" fill="#F4F6F8"/>
<path fill-rule="evenodd" clip-rule="evenodd" d="M35.8423 23.4266V18.6078L31.0234 23.4266H35.8423Z" fill="#E4E8EB"/>
<path fill-rule="evenodd" clip-rule="evenodd" d="M39.9025 57.6797L22.666 40.4332V34.6876H62.7837V40.4332H62.7838L45.7488 57.4781V66.8422H39.9025V57.6797Z" fill="#00A6ED"/>
<path fill-rule="evenodd" clip-rule="evenodd" d="M59.5662 49.7842H64.1306V61.5693H66.8422L61.8484 66.8422L56.8545 61.5693H59.5662V49.7842Z" fill="#FFCD54"/>
<path fill-rule="evenodd" clip-rule="evenodd" d="M21.3191 49.7842H25.8835V61.5693H28.5952L23.6013 66.8422L18.6074 61.5693H21.3191V49.7842Z" fill="#FFCD54"/>
<path fill-rule="evenodd" clip-rule="evenodd" d="M26.9619 62.2729H25.8839C25.4962 62.2729 25.1794 61.9574 25.1794 61.5698V50.488H22.0207V61.5698C22.0207 61.9576 21.7086 62.2729 21.3209 62.2729H20.2428L23.6 65.8192L26.9619 62.2729ZM29.2411 61.2912C29.3546 61.5494 29.2979 61.8491 29.1039 62.053L24.1107 67.3257C23.9782 67.4661 23.7938 67.5456 23.6 67.5456C23.4062 67.5456 23.2265 67.4662 23.0893 67.3257L18.0961 62.053C17.9022 61.8492 17.8502 61.5495 17.9636 61.2912C18.0723 61.0331 18.3277 60.8661 18.6066 60.8661H20.6163V49.7844C20.6163 49.3957 20.9331 49.0813 21.3208 49.0813H25.8838C26.2716 49.0813 26.5883 49.3957 26.5883 49.7844V60.8661H28.5932C28.8769 60.8661 29.1323 61.0331 29.2411 61.2912ZM65.2061 62.2729H64.1327C63.7402 62.2729 63.4281 61.9574 63.4281 61.5698V50.488H60.2695V61.5698C60.2695 61.9576 59.9526 62.2729 59.565 62.2729H58.4915L61.8488 65.8192L65.2061 62.2729ZM67.3528 62.053L62.3595 67.3257C62.2271 67.4661 62.0427 67.5456 61.8489 67.5456C61.655 67.5456 61.4706 67.4662 61.3382 67.3257L56.3449 62.053C56.1511 61.8492 56.099 61.5495 56.2077 61.2912C56.3212 61.0331 56.5718 60.8661 56.8556 60.8661H58.8604V49.7844C58.8604 49.3957 59.1773 49.0813 59.565 49.0813H64.1327C64.5204 49.0813 64.8325 49.3957 64.8325 49.7844V60.8661H66.842C67.121 60.8661 67.3763 61.0331 67.4899 61.2912C67.5986 61.5494 67.5466 61.8491 67.3528 62.053ZM61.0876 41.1365L45.2518 56.9812C45.1194 57.1131 45.0438 57.2918 45.0438 57.4777V66.1389H40.6037V57.6796C40.6037 57.4928 40.5328 57.3141 40.4004 57.1821L24.366 41.1365H61.0876ZM23.3683 35.3914V39.7297H62.0805V35.3914H23.3683ZM31.7283 33.9846H53.7253V19.3111H36.5466V23.4263C36.5466 23.815 36.2298 24.1299 35.8421 24.1299H31.7283V33.9846ZM32.7212 22.7227L35.1375 20.306V22.7227H32.7212ZM63.2815 40.9303L46.4528 57.769V66.8425C46.4528 67.2312 46.136 67.5456 45.7483 67.5456H39.9039C39.5162 67.5456 39.1994 67.2312 39.1994 66.8425V57.9714L22.1672 40.9303C22.0349 40.7988 21.964 40.6201 21.964 40.4329V34.6882C21.964 34.501 22.0349 34.3223 22.1672 34.1908C22.2997 34.058 22.4794 33.9846 22.6685 33.9846H30.3192V23.4263C30.3192 23.2405 30.3948 23.0617 30.5272 22.9289L35.3455 18.1106C35.4779 17.9786 35.6577 17.9044 35.8421 17.9044H54.4251C54.8129 17.9044 55.1296 18.2188 55.1296 18.608V33.9846H62.785C63.1728 33.9846 63.4848 34.2991 63.4848 34.6882V40.4329C63.4848 40.6201 63.414 40.7988 63.2815 40.9303ZM50.3018 30.8255C50.6895 30.8255 51.0063 31.14 51.0063 31.5286C51.0063 31.9168 50.6894 32.2322 50.3018 32.2322H35.147C34.7592 32.2322 34.4425 31.9168 34.4425 31.5286C34.4425 31.1399 34.7593 30.8255 35.147 30.8255H50.3018ZM43.6299 24.6411C43.2422 24.6411 42.9301 24.3267 42.9301 23.938C42.9301 23.5502 43.2422 23.2344 43.6299 23.2344H50.3018C50.6896 23.2344 51.0064 23.5502 51.0064 23.938C51.0064 24.3267 50.6895 24.6411 50.3018 24.6411H43.6299ZM51.0064 27.733C51.0064 28.1212 50.6895 28.4367 50.3018 28.4367H35.147C34.7592 28.4367 34.4425 28.1213 34.4425 27.733C34.4425 27.3444 34.7593 27.0299 35.147 27.0299H50.3018C50.6895 27.0299 51.0064 27.3444 51.0064 27.733Z" fill="black"/>
</svg>
