<svg width="87" height="87" viewBox="0 0 87 87" fill="none" xmlns="http://www.w3.org/2000/svg">
<circle cx="43.1538" cy="43.1538" r="43.1538" fill="#8AD6F7"/>
<path d="M64.1912 67.3879H21.2593C19.5019 67.3879 18.0771 65.9828 18.0771 64.2494V26.9878C18.0771 25.2545 19.5017 23.8493 21.2593 23.8493H64.1913C65.9487 23.8493 67.3735 25.2544 67.3735 26.9878V64.2494C67.3733 65.9826 65.9487 67.3879 64.1912 67.3879Z" fill="white"/>
<path d="M64.1908 67.3879H60.9033V23.8493H64.1908C65.9482 23.8493 67.3729 25.2544 67.3729 26.9878V64.2494C67.3729 65.9826 65.9483 67.3879 64.1908 67.3879Z" fill="#C8EFFF"/>
<path d="M64.1912 23.8493H21.2593C19.5019 23.8493 18.0771 25.2544 18.0771 26.9878V33.7167H67.3733V26.9878C67.3733 25.2545 65.9485 23.8493 64.1912 23.8493Z" fill="#FF4D6D"/>
<path d="M66.9888 25.4918C66.8908 25.3138 66.776 25.1464 66.6462 24.9913C66.5814 24.9138 66.5128 24.8394 66.4409 24.7684C65.8651 24.2005 65.0694 23.8491 64.1908 23.8491H60.9033V33.7165H67.3729V26.9876C67.3729 26.6626 67.3229 26.3491 67.2299 26.0543C67.168 25.858 67.0868 25.6697 66.9888 25.4918Z" fill="#FF4D6D"/>
<path d="M67.3731 34.7789H18.0769C17.4823 34.7789 17 34.3034 17 33.7167V26.9878C17 24.6716 18.9106 22.7871 21.2591 22.7871H64.1909C66.5394 22.7871 68.45 24.6716 68.45 26.9878V33.7167C68.45 34.3034 67.9677 34.7789 67.3731 34.7789ZM19.1538 32.6545H66.296V26.9878C66.296 25.843 65.3517 24.9114 64.1908 24.9114H21.2591C20.0983 24.9114 19.1538 25.8428 19.1538 26.9878V32.6545Z" fill="black"/>
<path d="M64.1909 68.45H21.2591C18.9106 68.45 17 66.5656 17 64.2494V26.9878C17 24.6716 18.9106 22.7871 21.2591 22.7871H64.1909C66.5394 22.7871 68.45 24.6716 68.45 26.9878V64.2494C68.45 66.5656 66.5394 68.45 64.1909 68.45ZM21.2591 24.9116C20.0983 24.9116 19.1538 25.843 19.1538 26.988V64.2495C19.1538 65.3944 20.0981 66.3259 21.2591 66.3259H64.1909C65.3517 66.3259 66.2962 65.3944 66.2962 64.2495V26.9878C66.2962 25.843 65.3519 24.9114 64.1909 24.9114L21.2591 24.9116Z" fill="black"/>
<path d="M23.5045 30.4506C24.4184 30.4506 25.1594 29.7199 25.1594 28.8184C25.1594 27.917 24.4184 27.1863 23.5045 27.1863C22.5905 27.1863 21.8496 27.917 21.8496 28.8184C21.8496 29.7199 22.5905 30.4506 23.5045 30.4506Z" fill="black"/>
<path d="M28.3082 30.4506C29.2222 30.4506 29.9631 29.7199 29.9631 28.8184C29.9631 27.917 29.2222 27.1863 28.3082 27.1863C27.3942 27.1863 26.6533 27.917 26.6533 28.8184C26.6533 29.7199 27.3942 30.4506 28.3082 30.4506Z" fill="black"/>
<path d="M33.1119 30.4506C34.0259 30.4506 34.7668 29.7199 34.7668 28.8184C34.7668 27.917 34.0259 27.1863 33.1119 27.1863C32.1979 27.1863 31.457 27.917 31.457 28.8184C31.457 29.7199 32.1979 30.4506 33.1119 30.4506Z" fill="black"/>
<path d="M23.7686 51.7427H37.0185V61.4501H23.7686V51.7427Z" fill="#FFC333"/>
<path d="M61.6802 52.8049H42.7244C42.1297 52.8049 41.6475 52.3294 41.6475 51.7427C41.6475 51.156 42.1297 50.6806 42.7244 50.6806H61.6802C62.2748 50.6806 62.7571 51.156 62.7571 51.7427C62.7571 52.3294 62.2748 52.8049 61.6802 52.8049Z" fill="black"/>
<path d="M61.6802 57.6585H42.7244C42.1297 57.6585 41.6475 57.1831 41.6475 56.5964C41.6475 56.0097 42.1297 55.5342 42.7244 55.5342H61.6802C62.2748 55.5342 62.7571 56.0097 62.7571 56.5964C62.7571 57.1831 62.2748 57.6585 61.6802 57.6585Z" fill="black"/>
<path d="M61.6802 62.5122H42.7244C42.1297 62.5122 41.6475 62.0367 41.6475 61.4501C41.6475 60.8634 42.1297 60.3879 42.7244 60.3879H61.6802C62.2748 60.3879 62.7571 60.8634 62.7571 61.4501C62.7571 62.0367 62.2748 62.5122 61.6802 62.5122Z" fill="black"/>
<path d="M37.0192 62.5122H23.7693C23.1747 62.5122 22.6924 62.0366 22.6924 61.4501V51.7427C22.6924 51.1562 23.1747 50.6806 23.7693 50.6806H37.0192C37.6139 50.6806 38.0962 51.1562 38.0962 51.7427V61.4499C38.0962 62.0366 37.6139 62.5122 37.0192 62.5122ZM24.8462 60.3879H35.9423V52.8049H24.8462V60.3879Z" fill="black"/>
<path d="M23.7686 39.5745H61.6802V46.704H23.7686V39.5745Z" fill="#99C633"/>
<path d="M61.6809 47.7664H23.7693C23.1747 47.7664 22.6924 47.2907 22.6924 46.7042V39.5747C22.6924 38.9882 23.1747 38.5125 23.7693 38.5125H61.6809C62.2756 38.5125 62.7579 38.9882 62.7579 39.5747V46.7042C62.7579 47.2907 62.2756 47.7664 61.6809 47.7664ZM24.8462 45.6421H60.604V40.6368H24.8462V45.6421Z" fill="black"/>
<path d="M64.2704 30.5042V27.1324H60.8035C60.6107 26.302 60.2785 25.524 59.8326 24.8235L62.285 22.4048L59.8674 20.0204L57.4151 22.4391C56.7049 21.9994 55.916 21.6717 55.0741 21.4816V18.062H51.6554V21.4816C50.8134 21.6717 50.0245 21.9994 49.3143 22.4391L46.862 20.0204L44.4445 22.4048L46.8968 24.8235C46.451 25.524 46.1187 26.302 45.926 27.1324H42.459V30.5042H45.926C46.1187 31.3346 46.451 32.1127 46.8968 32.8132L44.4445 35.2319L46.862 37.6162L49.3143 35.1975C50.0245 35.6373 50.8134 35.9649 51.6554 36.1551V39.5747H55.0741V36.1551C55.916 35.9649 56.7049 35.6373 57.4151 35.1975L59.8674 37.6162L62.285 35.2319L59.8326 32.8132C60.2785 32.1127 60.6107 31.3346 60.8035 30.5042H64.2704ZM53.3646 32.7252C51.177 32.7252 49.4035 30.976 49.4035 28.8184C49.4035 26.6608 51.177 24.9116 53.3646 24.9116C55.5522 24.9116 57.3257 26.6608 57.3257 28.8184C57.3257 30.976 55.5524 32.7252 53.3646 32.7252Z" fill="#FFC333"/>
<path d="M55.0748 40.6366H51.6559C51.0611 40.6366 50.579 40.161 50.579 39.5745V36.9573C50.2102 36.8345 49.8499 36.6872 49.5008 36.5162L47.6241 38.3672C47.2036 38.7819 46.5215 38.7819 46.1012 38.3672L43.6838 35.983C43.2633 35.5682 43.2633 34.8957 43.6838 34.4809L45.5606 32.6299C45.3872 32.2854 45.2378 31.9303 45.1133 31.5664H42.4597C41.8651 31.5664 41.3828 31.0909 41.3828 30.5042V27.1324C41.3828 26.5459 41.8651 26.0703 42.4597 26.0703H45.1133C45.2378 25.7063 45.387 25.3514 45.5606 25.0069L43.6838 23.1559C43.2633 22.7411 43.2633 22.0686 43.6838 21.6538L46.1012 19.2695C46.3031 19.0703 46.577 18.9584 46.8627 18.9584C47.1485 18.9584 47.4222 19.0703 47.6243 19.2695L49.501 21.1204C49.8505 20.9494 50.2104 20.8022 50.5792 20.6793V18.0622C50.5792 17.4757 51.0613 17 51.6561 17H55.075C55.6698 17 56.1519 17.4757 56.1519 18.0622V20.6793C56.5209 20.8022 56.8808 20.9493 57.2301 21.1204L59.1068 19.2695C59.3087 19.0703 59.5826 18.9584 59.8684 18.9584C60.1539 18.9584 60.428 19.0703 60.6299 19.2695L63.0473 21.6538C63.4678 22.0686 63.4678 22.7411 63.0473 23.1559L61.1706 25.0069C61.3439 25.3514 61.4933 25.7065 61.6178 26.0703H64.2714C64.866 26.0703 65.3483 26.5459 65.3483 27.1324V30.5042C65.3483 31.0909 64.866 31.5664 64.2714 31.5664H61.6178C61.4933 31.9303 61.3441 32.2854 61.1706 32.6299L63.0473 34.4809C63.4678 34.8957 63.4678 35.5682 63.0473 35.983L60.6299 38.3672C60.2094 38.7819 59.5273 38.7819 59.107 38.3672L57.2303 36.5162C56.881 36.6872 56.5209 36.8345 56.1521 36.9573V39.5745C56.1517 40.1611 55.6696 40.6366 55.0748 40.6366ZM52.7329 38.5123H53.9979V36.155C53.9979 35.6597 54.345 35.2301 54.8345 35.1196C55.5461 34.9589 56.2219 34.6826 56.8433 34.2979C57.2687 34.0346 57.822 34.0961 58.1772 34.4464L59.868 36.114L60.7624 35.2319L59.0716 33.5643C58.7164 33.2139 58.654 32.6682 58.921 32.2486C59.3111 31.6358 59.5912 30.9691 59.7542 30.2672C59.8662 29.7844 60.3018 29.4421 60.804 29.4421H63.1941V28.1946H60.804C60.3018 28.1946 59.8662 27.8522 59.7542 27.3693C59.5912 26.6675 59.3111 26.0009 58.921 25.388C58.6541 24.9685 58.7166 24.4225 59.0716 24.0723L60.7624 22.4048L59.868 21.5226L58.1772 23.1902C57.822 23.5404 57.2687 23.6022 56.8433 23.3388C56.2217 22.9541 55.5458 22.6776 54.8345 22.5172C54.3448 22.4067 53.9977 21.9771 53.9977 21.4818V19.1243H52.7327V21.4818C52.7327 21.9771 52.3856 22.4067 51.8959 22.5172C51.1846 22.6776 50.5087 22.9541 49.8871 23.3388C49.4615 23.602 48.9084 23.5402 48.5531 23.1902L46.8624 21.5226L45.968 22.4048L47.6588 24.0723C48.014 24.4227 48.0764 24.9685 47.8093 25.388C47.4195 26.0009 47.1391 26.6675 46.9762 27.3693C46.8642 27.8522 46.4286 28.1946 45.9263 28.1946H43.5361V29.4421H45.9263C46.4286 29.4421 46.8642 29.7844 46.9762 30.2672C47.1391 30.9691 47.4193 31.6358 47.8093 32.2486C48.0762 32.6682 48.0138 33.2139 47.6588 33.5643L45.968 35.2319L46.8624 36.114L48.5531 34.4464C48.9084 34.0961 49.4619 34.0343 49.8871 34.2979C50.5085 34.6826 51.1844 34.9589 51.8959 35.1196C52.3854 35.2301 52.7325 35.6597 52.7325 36.155V38.5123H52.7329ZM53.3654 33.7873C50.5875 33.7873 48.3274 31.5582 48.3274 28.8184C48.3274 26.0786 50.5875 23.8495 53.3654 23.8495C56.1433 23.8495 58.4034 26.0786 58.4034 28.8184C58.4034 31.5582 56.1433 33.7873 53.3654 33.7873ZM53.3654 25.9738C51.7751 25.9738 50.4812 27.2498 50.4812 28.8184C50.4812 30.387 51.7749 31.663 53.3654 31.663C54.9558 31.663 56.2496 30.387 56.2496 28.8184C56.2496 27.2498 54.9558 25.9738 53.3654 25.9738Z" fill="black"/>
</svg>
