<svg width="87" height="87" viewBox="0 0 87 87" fill="none" xmlns="http://www.w3.org/2000/svg">
<circle cx="43.1538" cy="43.1538" r="43.1538" fill="#8AD6F7"/>
<g clip-path="url(#clip0_1824_235)">
<path d="M64.4251 20.9168H21.0276C19.3592 20.9168 18.0068 22.2691 18.0068 23.9376V52.0502C18.0068 53.7186 19.3591 55.0709 21.0276 55.0709H64.425C66.0935 55.0709 67.4457 53.7187 67.4457 52.0502V23.9376C67.4457 22.2691 66.0935 20.9168 64.4251 20.9168ZM62.8542 49.0134C62.8542 49.7233 62.2793 50.2982 61.5694 50.2982H23.8832C23.1733 50.2982 22.5984 49.7233 22.5984 49.0134V26.9744C22.5984 26.2645 23.1733 25.6896 23.8832 25.6896H61.5694C62.2793 25.6896 62.8542 26.2645 62.8542 26.9744V49.0134Z" fill="#CCF5FC"/>
<path d="M22.5986 49.0162V26.9716C22.5986 26.2637 23.1725 25.6899 23.8803 25.6899H61.572C62.2799 25.6899 62.8537 26.2637 62.8537 26.9716V49.0162C62.8537 49.7241 62.2799 50.2979 61.572 50.2979H23.8803C23.1725 50.2978 22.5986 49.724 22.5986 49.0162Z" fill="#FFFBDF"/>
<path d="M48.8874 64.5363H36.5655C35.4555 64.5363 34.5557 63.6365 34.5557 62.5264V62.5186C34.5557 61.4085 35.4555 60.5087 36.5655 60.5087H48.8875C49.9976 60.5087 50.8974 61.4085 50.8974 62.5186V62.5264C50.8973 63.6364 49.9975 64.5363 48.8874 64.5363Z" fill="#66E0F7"/>
<path d="M38.479 55.0709L36.9077 60.5086H48.5449L46.9735 55.0709H38.479Z" fill="#66E0F7"/>
<path d="M44.3784 40.8729H38.9566C38.1241 40.8729 37.4492 40.1979 37.4492 39.3655V36.0202C37.4492 35.1877 38.1241 34.5128 38.9566 34.5128H44.3784C45.2109 34.5128 45.8858 35.1877 45.8858 36.0202V39.3655C45.8858 40.1979 45.211 40.8729 44.3784 40.8729Z" fill="#FF4D6D"/>
<path d="M42 38L43.9806 45.3917L45.2622 44.1101L48.6612 47.5092L51.5092 44.6612L48.1101 41.2621L49.3917 39.9806L42 38Z" fill="#FDD835"/>
<path d="M42.7261 51.4844C43.2811 51.4844 43.7311 51.0345 43.7311 50.4795C43.7311 49.9245 43.2811 49.4746 42.7261 49.4746C42.1711 49.4746 41.7212 49.9245 41.7212 50.4795C41.7212 51.0345 42.1711 51.4844 42.7261 51.4844Z" fill="black"/>
<path d="M64.4251 19.9095H21.0276C18.8068 19.9095 17 21.7163 17 23.9371V52.0507C17 54.2715 18.8068 56.0783 21.0276 56.0783H37.1911L36.064 59.5448C34.6381 59.786 33.5485 61.029 33.5485 62.5224C33.5485 64.188 34.9035 65.5432 36.5692 65.5432H48.8833C50.5488 65.5432 51.904 64.1881 51.904 62.5224C51.904 61.029 50.8143 59.786 49.3884 59.5448L48.2613 56.0783H64.4249C66.6457 56.0783 68.4524 54.2715 68.4524 52.0507V23.9371C68.4526 21.7163 66.6459 19.9095 64.4251 19.9095ZM49.8903 62.5225C49.8903 63.0778 49.4386 63.5295 48.8834 63.5295H36.5693C36.0142 63.5295 35.5623 63.0778 35.5623 62.5225C35.5623 61.9673 36.0141 61.5156 36.5693 61.5156H48.8834C49.4386 61.5156 49.8903 61.9673 49.8903 62.5225ZM47.257 59.5018H38.1957L39.3087 56.0783H46.1439L47.257 59.5018ZM66.4389 52.0507C66.4389 53.1611 65.5355 54.0645 64.4251 54.0645H21.0276C19.9171 54.0645 19.0138 53.1611 19.0138 52.0507V23.9371C19.0138 22.8267 19.9171 21.9233 21.0276 21.9233H64.425C65.5354 21.9233 66.4388 22.8267 66.4388 23.9371V52.0507H66.4389Z" fill="black"/>
<path d="M61.3433 24.5014H24.1091C22.721 24.5014 21.5918 25.6307 21.5918 27.0187V48.9692C21.5918 50.3572 22.721 51.4864 24.1091 51.4864H38.2127C38.7687 51.4864 39.2197 51.0356 39.2197 50.4795C39.2197 49.9234 38.7688 49.4726 38.2127 49.4726H24.1091C23.8315 49.4726 23.6056 49.2466 23.6056 48.9691V27.0187C23.6056 26.7411 23.8315 26.5152 24.1091 26.5152H61.3434C61.621 26.5152 61.8469 26.7411 61.8469 27.0187V48.9692C61.8469 49.2467 61.621 49.4727 61.3434 49.4727H47.2396C46.6836 49.4727 46.2327 49.9235 46.2327 50.4796C46.2327 51.0357 46.6835 51.4865 47.2396 51.4865H61.3433C62.7313 51.4865 63.8606 50.3573 63.8606 48.9693V27.0187C63.8606 25.6307 62.7313 24.5014 61.3433 24.5014Z" fill="black"/>
<path d="M50.3712 39.727C50.278 39.3796 50.0067 39.108 49.6592 39.015L42.2675 37.0344C41.9198 36.9411 41.5493 37.0407 41.2949 37.295C41.0406 37.5494 40.9412 37.9202 41.0344 38.2677L43.0149 45.6594C43.108 46.0068 43.3794 46.2782 43.7269 46.3714C44.0747 46.4646 44.4451 46.3651 44.6994 46.1108L45.269 45.5412L47.9561 48.2283C48.1451 48.4171 48.4011 48.5232 48.6681 48.5232C48.9351 48.5232 49.1912 48.417 49.3801 48.2282L52.2281 45.3802C52.6213 44.987 52.6213 44.3495 52.2281 43.9562L49.5409 41.2692L50.1105 40.6996C50.365 40.4452 50.4644 40.0745 50.3712 39.727ZM50.0921 44.6682L48.6682 46.0922L45.9811 43.4051C45.7845 43.2086 45.5268 43.1103 45.2691 43.1103C45.0115 43.1103 44.7538 43.2086 44.5572 43.4051L44.5088 43.4536L43.4309 39.431L47.4535 40.5089L47.4051 40.5572C47.0119 40.9505 47.0119 41.588 47.4051 41.9812L50.0921 44.6682Z" fill="black"/>
</g>
<defs>
<clipPath id="clip0_1824_235">
<rect width="51.4526" height="51.4526" fill="white" transform="translate(17 17)"/>
</clipPath>
</defs>
</svg>
