<svg id="Layer_1" enable-background="new 0 0 496 496" height="512" viewBox="0 0 496 496" width="512" xmlns="http://www.w3.org/2000/svg"><path d="m480 80v336c0 17.67-14.33 32-32 32h-400c-17.67 0-32-14.33-32-32v-336c0-17.67 14.33-32 32-32h400c17.67 0 32 14.33 32 32z" fill="#b9dcff"/><path d="m448.107 98h-350.107c-17.673 0-32 14.327-32 32v286.107c0 32.544-50 34.259-50-.107v-336c0-17.673 14.327-32 32-32h400c34.366 0 32.65 50 .107 50z" fill="#d1e7ff"/><path d="m480 80v64h-464v-64c0-17.67 14.33-32 32-32h400c17.67 0 32 14.33 32 32z" fill="#a2d0ff"/><path d="m448.107 98h-350.107c-17.673 0-32 14.327-32 32v14h-50v-64c0-17.673 14.327-32 32-32h400c34.366 0 32.65 50 .107 50z" fill="#b9dcff"/><path d="m448 32h-400c-26.467 0-48 21.533-48 48v336c0 26.467 21.533 48 48 48h400c26.467 0 48-21.533 48-48v-336c0-26.467-21.533-48-48-48zm16 384c0 8.823-7.178 16-16 16h-400c-8.822 0-16-7.177-16-16v-256h400c8.836 0 16-7.164 16-16s-7.164-16-16-16h-400v-48c0-8.823 7.178-16 16-16h400c8.822 0 16 7.177 16 16zm-318-171.845v89.689c0 8.837-7.164 16-16 16s-16-7.163-16-16v-28.844h-14v28.845c0 8.837-7.164 16-16 16s-16-7.163-16-16v-89.689c0-8.837 7.164-16 16-16s16 7.163 16 16v28.844h14v-28.845c0-8.837 7.164-16 16-16s16 7.164 16 16zm95-.155c0 8.836-7.164 16-16 16h-8v74c0 8.837-7.164 16-16 16s-16-7.163-16-16v-74h-8c-8.836 0-16-7.164-16-16s7.164-16 16-16h48c8.836 0 16 7.164 16 16zm142.513-15.845h-18.203c-8.836 0-16 7.163-16 16v89.689c0 8.837 7.164 16 16 16s16-7.163 16-16v-15.654c27.818 0 46.879-20.017 46.879-45.358 0-24.635-20.041-44.677-44.676-44.677zm0 58.035h-2.203v-26.034h2.203c6.99 0 12.676 5.687 12.676 12.677 0 8.435-6.231 13.357-12.676 13.357zm-48.513-42.19c0 8.836-7.164 16-16 16h-8v74c0 8.837-7.164 16-16 16s-16-7.163-16-16v-74h-8c-8.836 0-16-7.164-16-16s7.164-16 16-16h48c8.836 0 16 7.164 16 16zm-267.87-132.31c-8.308 1.599-16.836-3.352-18.82-12.56-1.613-8.38 3.412-16.844 12.56-18.82 8.457-1.624 16.868 3.496 18.82 12.56 1.623 8.433-3.464 16.855-12.56 18.82zm48 0c-8.394 1.616-16.853-3.429-18.82-12.56-1.613-8.379 3.411-16.844 12.56-18.82 8.457-1.624 16.868 3.496 18.82 12.56 1.623 8.431-3.463 16.855-12.56 18.82zm48 0c-8.399 1.617-16.854-3.433-18.82-12.56-1.613-8.378 3.41-16.844 12.56-18.82 8.446-1.622 16.865 3.484 18.82 12.56 1.623 8.431-3.463 16.855-12.56 18.82z" fill="#2e58ff"/></svg>
