<?xml version="1.0" encoding="UTF-8" standalone="no"?>
<svg
   enable-background="new 0 0 24 24"
   height="48"
   viewBox="0 0 24 24"
   width="48"
   fill="#000000"
   version="1.1"
   id="svg552"
   sodipodi:docname="summarize_black_48dp.svg"
   inkscape:export-filename="summarize_black_48dp.png"
   inkscape:export-xdpi="96"
   inkscape:export-ydpi="96"
   xmlns:inkscape="http://www.inkscape.org/namespaces/inkscape"
   xmlns:sodipodi="http://sodipodi.sourceforge.net/DTD/sodipodi-0.dtd"
   xmlns="http://www.w3.org/2000/svg"
   xmlns:svg="http://www.w3.org/2000/svg">
  <defs
     id="defs556" />
  <sodipodi:namedview
     id="namedview554"
     pagecolor="#ffffff"
     bordercolor="#000000"
     borderopacity="0.25"
     inkscape:showpageshadow="2"
     inkscape:pageopacity="0.0"
     inkscape:pagecheckerboard="0"
     inkscape:deskcolor="#d1d1d1"
     showgrid="false" />
  <g
     id="g544">
    <path
       d="M 0,0 H 24 V 24 H 0 Z"
       fill="none"
       id="path542" />
  </g>
  <g
     id="g550"
     style="fill:#ff4d6d;fill-opacity:1">
    <g
       id="g548"
       style="fill:#ff4d6d;fill-opacity:1">
      <path
         d="M 15,3 H 5 C 3.9,3 3.01,3.9 3.01,5 L 3,19 c 0,1.1 0.89,2 1.99,2 H 19 c 1.1,0 2,-0.9 2,-2 V 9 Z M 5,19 V 5 h 9 v 5 h 5 v 9 z M 9,8 C 9,8.55 8.55,9 8,9 7.45,9 7,8.55 7,8 7,7.45 7.45,7 8,7 8.55,7 9,7.45 9,8 Z m 0,4 c 0,0.55 -0.45,1 -1,1 -0.55,0 -1,-0.45 -1,-1 0,-0.55 0.45,-1 1,-1 0.55,0 1,0.45 1,1 z m 0,4 c 0,0.55 -0.45,1 -1,1 -0.55,0 -1,-0.45 -1,-1 0,-0.55 0.45,-1 1,-1 0.55,0 1,0.45 1,1 z"
         id="path546"
         style="fill:#ff4d6d;fill-opacity:1" />
    </g>
  </g>
</svg>
